<?xml version="1.0" encoding="UTF-8"?><svg xmlns="http://www.w3.org/2000/svg" width="700" height="400" xmlns:xlink="http://www.w3.org/1999/xlink" viewBox="0 0 700 400"><defs><style>.cls-1{opacity:.48;}.cls-1,.cls-2{fill:#c7b299;}.cls-3{fill:#bc4d24;}.cls-4{fill:#4a4a4a;}.cls-5{fill:#4d4d4d;}.cls-6{stroke:#bc4d24;}.cls-6,.cls-7{stroke-width:.85px;}.cls-6,.cls-7,.cls-8,.cls-9{stroke-miterlimit:10;}.cls-6,.cls-8{fill:none;}.cls-10{fill:#603813;}.cls-7{stroke:#999;}.cls-7,.cls-11{fill:#ccc;}.cls-12{fill:#c69c6d;}.cls-13{fill:gray;}.cls-8{stroke:gray;stroke-width:1.13px;}.cls-9{fill:#e8d384;stroke:#eee;stroke-width:.87px;}.cls-14{fill:#3a3a3a;}.cls-15{fill:#5c88d1;}.cls-16{fill:#2e2e2e;}.cls-17{fill:#999;}.cls-18{fill:#b3b3b3;}.cls-2{opacity:.5;}.cls-19{fill:#1a1a1a;}.cls-20{fill:url(#linear-gradient);}.cls-21{fill:#eee;}.cls-22{fill:#666;}</style><linearGradient id="linear-gradient" x1="356.77" y1="273.62" x2="379.42" y2="273.62" gradientTransform="translate(-40.61 84.56) rotate(-11.41)" gradientUnits="userSpaceOnUse"><stop offset="0" stop-color="#3a3a3a"/><stop offset=".85" stop-color="#ccc"/></linearGradient></defs><g id="Layer_2"><rect class="cls-16" width="700" height="400"/></g><g id="Layer_3"><path class="cls-22" d="M522.47,347.93c2.69-60.14,5.39-120.28,8.08-180.42,.08-2.38,2.07-4.24,4.45-4.16,.78,.55,1.76,1.12,2.96,1.57,3.45,1.29,6.59,.79,8.13,.42,1.38-.95,3.01-1.78,3.98-1.18,1.22,.75,.84,3.42,.75,4.02-.63,4.1-4.56,70.04-9.92,162.7-1.76,2.73-4.34,6.15-8,9.56-3.79,3.53-7.51,5.92-10.43,7.5Z"/><path class="cls-4" d="M520.94,348.01l-263.57-25.7c-.61-.36-1.49-.96-2.32-1.92-.97-1.12-1.45-2.2-1.66-2.75-.72-1.9-.63-3.6-.51-4.49,5.12-52.48,10.23-104.95,15.35-157.43,.29-2.94,2.91-5.1,5.85-4.81,90.58,8.83,247.37,24.39,253.69,24.73,1.34,.07,1.97,.15,3.22,.3,2.08,.25,2.92,.46,3.35,.57,1.3,.35,2.08,.57,2.91,1.18,1.08,.8,1.64,1.86,1.94,2.62,.12,.47,.23,1.23,.06,2.12-.08,.4-.19,.74-.31,1.02-4.05,53.25-8.1,106.49-12.15,159.74-.29,2.94-2.91,5.1-5.85,4.81Z"/><path class="cls-11" d="M535.85,224.08c-90.52-8.83-181.05-17.65-271.57-26.48l4.06-41.59c90.31,8.81,180.61,17.61,270.92,26.42-1.13,13.88-2.27,27.77-3.4,41.65Z"/><ellipse class="cls-14" cx="393.05" cy="268" rx="64.57" ry="66.66" transform="translate(-45.25 83.05) rotate(-11.41)"/><ellipse class="cls-4" cx="392.55" cy="268.98" rx="61.15" ry="63.27" transform="translate(-45.45 82.97) rotate(-11.41)"/><rect class="cls-12" x="440.85" y="293.79" width="7.68" height="8.46" rx="1.16" ry="1.16" transform="translate(-12.15 577.06) rotate(-65.25)"/><path class="cls-12" d="M355.32,221.7l-5.27,3.19-4-6.61c-.43-1.57,.31-3.2,1.68-3.85,1.17-.55,2.61-.29,3.59,.66,1.33,2.2,2.66,4.41,4,6.61Z"/><path class="cls-5" d="M536.81,211.62c-15.09-1.44-30.19-2.89-45.28-4.33l2.87-29.39,44.87,4.37c-.82,9.78-1.64,19.57-2.46,29.35Z"/><rect class="cls-3" x="289.87" y="173.56" width="54.05" height="3.17" transform="translate(18.49 -29.93) rotate(5.57)"/><rect class="cls-3" x="289.2" y="183.42" width="53.75" height="3.17" transform="translate(19.45 -29.8) rotate(5.57)"/><path class="cls-6" d="M361.6,192.77c-1.34,.07-2.86,.06-4.54-.08-1.58-.13-3-.36-4.25-.63-.8-.21-1.13-.61-1.26-.83-.11-.18-.19-.38-.19-2.13,0-.93,.02-1.3,.1-1.74,.11-.62,.17-.94,.41-1.19,.56-.58,1.58-.35,1.6-.54,.02-.14-.49-.2-1.08-.67-.24-.19-.51-.41-.66-.76-.14-.34-.09-.61,.02-1.26,.26-1.66,.19-1.62,.3-1.81,.47-.83,1.64-1,2.11-1.05,1.24,.03,2.57,.11,4,.26,1.64,.18,3.15,.43,4.52,.72,.3,.08,.9,.29,1.2,.83,.11,.2,.13,.48,.18,1.03,.06,.75,.03,1.2-.01,1.78-.04,.5-.08,.68-.21,.87-.18,.25-.42,.36-.64,.46-.6,.27-1.06,.21-1.07,.31-.02,.15,.97,.13,1.42,.77,.19,.27,.21,.6,.22,1.25,.01,.43-.01,.85-.13,1.72-.17,1.16-.25,1.75-.48,2.01-.15,.18-.57,.6-1.55,.67Z"/><rect class="cls-6" x="356.41" y="181.85" width="2.8" height="3.75" rx=".59" ry=".59" transform="translate(19.52 -33.86) rotate(5.57)"/><rect class="cls-6" x="355.89" y="187.16" width="2.8" height="3.75" rx=".59" ry=".59" transform="translate(20.03 -33.78) rotate(5.57)"/><path class="cls-3" d="M382.94,195.33l-.45-.04s-.46-.04-.87-.09l-2.57-.24c-.21-.02-.45-.05-.49-.06-.54-.15-.61-.76-.38-3.27l.02-.23c.01-.13,.02-.25,.03-.38-.13,.37-.25,.74-.37,1.07q-.82,2.39-1.05,2.51c-.17,.08-.33,.09-.37,.1-.05,0-.09,0-.31-.02l-1.82-.18c-.19-.02-.24-.02-.28-.03-.11-.04-.21-.08-.32-.16-.25-.19-.39-.58-1.02-3.7-.01,.09-.02,.18-.03,.27-.3,3.23-.74,3.3-1.04,3.34-.14,.01-.19,0-.34-.01l-.16-.02-1.97-.19c-.07,0-1.91-.19-1.98-.19l-.46-.04,1.24-12.74,1.62,.16c.59,.06,1.17,.11,1.18,.11l2.85,.28c.23,.02,.25,.02,.33,.07l.17,.09,.11,.44c.18,.77,.34,1.46,.49,2.14,.22,1,.43,1.97,.73,3.1,.05,.21,.18,.7,.3,1.04,.15-.31,.34-.79,.5-1.17,1.03-2.56,1.9-4.9,1.91-4.92l.12-.33,2.87,.28c.05,0,2.53,.25,2.58,.25l.45,.04-1.24,12.73Zm-3.52-1.25s.52,.05,1.57,.15l1.14,.11,1.07-10.93c-.74-.07-2.11-.21-2.14-.21l-.91-.09c-.56-.05-1.19-.12-1.26-.12-.29,.78-1.02,2.68-1.8,4.62-.55,1.37-.81,2.01-1.4,1.99,0,0-.02,0-.03,0-.55-.04-.72-.6-1.08-1.96-.3-1.15-.52-2.11-.74-3.14-.14-.65-.29-1.32-.46-2.05l-3.87-.38c-.26-.02-.51-.05-.72-.07l-1.07,10.93c.58,.06,1.51,.15,1.54,.15l2.1,.21c.15-.41,.32-1.52,.41-2.46,.4-3.21,.4-3.22,.88-3.18q.41,.02,.91,2.52c.22,1.11,.58,2.92,.76,3.4,.02,0,.05,0,.09,0l1.91,.19c.15-.38,.44-1.25,.69-1.98,1.18-3.46,1.19-3.47,1.63-3.43h.19s.13,.16,.13,.16c.36,.42,.16,2.84,.15,2.95l-.02,.23c-.11,1.21-.14,1.99-.1,2.33,.04,0,.08,0,.11,.01l.33,.03h0Zm-5.17-.5s0,0,0,0h0Z"/><path class="cls-14" d="M535.92,224.16c-15.2-1.47-30.4-2.93-45.6-4.4l4.08-41.86,45.02,4.39c-1.17,13.96-2.34,27.91-3.5,41.87Z"/><rect class="cls-9" x="517.84" y="184.29" width="15.08" height="6.86" rx=".34" ry=".34" transform="translate(20.7 -50.1) rotate(5.57)"/><path class="cls-13" d="M533.88,176.35c-.51-.1-34.58-3.45-261.72-25.28,7.2-3.63,14.4-7.25,21.61-10.88,85.43,7.99,170.86,15.98,256.29,23.97-1.6,1.49-2.92,2.76-3.88,3.69-.81,.79-1.75,1.7-2.98,2.94-1.1,1.11-2.29,2.13-3.31,3.31,0,0-.57,.66-2.67,2.32-.16,.13-.46,.36-.89,.41-.39,.05-.63-.08-1.24-.24,0,0,0,0-1.21-.24Z"/><path class="cls-22" d="M377.04,159.65l-17.27-1.68,1.02-10.5,17.27,1.68c-.88,4.68,0,6.66,1.04,7.58,.74,.65,2.11,1.24,1.98,1.72-.07,.25-.48,.31-1.31,.49-1.08,.24-2,.49-2.73,.7Z"/><path class="cls-5" d="M379.9,158.53c-5.66-.59-11.31-1.18-16.97-1.78,1.39-.69,2.79-1.38,4.18-2.08,5.28,.53,10.56,1.06,15.84,1.58-1.02,.76-2.03,1.51-3.05,2.27Z"/><path class="cls-5" d="M382.95,156.26c-.92,.73-1.83,1.45-2.75,2.18l-.52,1.72c1.47-.27,2.94-.54,4.41-.82-.38-1.03-.76-2.05-1.14-3.08Z"/><path class="cls-22" d="M419.72,161.75c-.04-1.93-.08-3.86-.12-5.78,3.27-.11,6.54-.22,9.8-.32-1.36,1.19-2.64,2.3-3.85,3.31-4.34,3.64-1.81,1.22-2.82,2.11-.25,.22-.65,.57-1.27,.75-.71,.2-1.35,.06-1.75-.07Z"/><path class="cls-22" d="M431.76,146.59c-.38,.02-.93,.09-1.55,.32-1.04,.38-1.54,.95-2.47,1.72-.09,.08-1.08,.75-3.06,2.1-.3,.2-1.41,.96-2.89,1.97-1.1,.74-2.06,1.39-2.86,1.92,2.37,.77,4.73,1.54,7.1,2.31,3.84-2.94,7.67-5.89,11.51-8.83-.83-.6-1.61-.93-2.15-1.11-.19-.07-.88-.29-1.83-.39-.71-.08-1.33-.05-1.8,0Z"/><path class="cls-17" d="M426.53,156.55c-.2-.33-.54-.82-1.1-1.26-.84-.65-1.68-.81-2.57-.97-.65-.12-1.64-.29-2.87-.03-.74,.16-1.32,.42-1.71,.63-.19,.25-.46,.62-.69,1.12-.13,.28-.47,1.05-.59,2.82-.11,1.6-.21,2.41,.22,2.71,.06,.05,.14,.09,1.15,.21,1.43,.17,1.55,.11,1.62,.03,.28-.29-.17-.79-.31-2.01-.07-.6-.16-1.56,.37-2.28,.36-.49,.9-.65,1.12-.72,1.69-.52,2.89,.98,4.39,.44,.44-.16,.76-.44,.98-.7Z"/><path class="cls-22" d="M429.15,155.65c-2.68,2.07-5.36,4.14-8.03,6.22,14.75,1.57,29.5,3.14,44.26,4.72,.97-2.4,1.94-4.8,2.9-7.2-13.04-1.24-26.08-2.49-39.13-3.73Z"/><path class="cls-22" d="M476.37,152.17c.88,1.49,.41,3.13,.28,3.58-.31,1.07-.87,1.73-1.94,2.98-.29,.35-.91,.96-2.15,2.2-1.02,1.02-.96,.94-1.75,1.73-1.32,1.33-1.98,1.99-2.06,2.09-.4,.44-.88,.8-1.29,1.24-.24,.26-.56,.61-1.02,.64-.19,.01-.37-.03-.46-.07-1.01-.44,.27-4-1.41-6.44-.21-.3-.41-.51-.51-.61-1.89-.12-3.77-.24-5.66-.36,3.27-2.88,6.53-5.76,9.8-8.64,1.21-.46,2.25-.57,2.91-.59,.81-.03,1.87-.06,3.08,.48,.55,.25,1.55,.7,2.18,1.77Z"/><path class="cls-17" d="M459.31,160.86c-.5,.03-.95-.22-1.11-.6-.19-.45,.09-.89,.14-.97,.21-.33,.54-.5,.97-.64,.84-.27,1.66-.31,2.77-.23,.56,.04,1.31,.12,2.18,.29,.36,.12,.84,.35,1.32,.77,.04,.04,.08,.07,.09,.08,.57,.54,.81,1.21,.9,1.48,.08,.22,.36,1.1,.23,3.59-.09,1.66-.26,2.13-.59,2.27-.09,.04-.36,.03-.88,.01-.58-.02-.87-.03-.95-.08-.38-.25-.17-.95-.11-2.46,.07-1.84-.18-2.31-.35-2.55-.31-.44-.72-.66-.93-.77-.67-.35-1.29-.35-2.11-.35-.38,0-.92,.03-1.57,.15Z"/><g><path class="cls-5" d="M445.26,163.26c-.68,.09-1.61,.16-2.7,.07-1-.08-1.84-.28-2.48-.46l.36-4.77,5.17,.39-.36,4.77Z"/><path class="cls-5" d="M445.54,158.4c-.02,.27-1.18,.41-2.58,.3-1.41-.11-2.53-.41-2.51-.69,.02-.27,1.18-.41,2.58-.3s2.53,.41,2.51,.69Z"/></g><path class="cls-17" d="M513.56,167.84c-4.49,1.06-10.88,2.06-18.53,1.64-7.49-.41-13.62-2.05-17.93-3.55-.19-.33-.53-1.03-.57-1.98-.04-.96,.26-1.7,.43-2.04,5.23-.6,11.46-.95,18.45-.61,7.19,.35,13.51,1.35,18.76,2.51,.13,.38,.31,1.1,.19,2-.13,1-.56,1.7-.8,2.04Z"/><path class="cls-22" d="M512.53,164.35c-4.29,.91-10.16,1.71-17.11,1.35-6.99-.36-12.78-1.77-16.97-3.13-.09-.11-.52-.67-.45-1.47,.06-.7,.48-1.14,.59-1.26,11.36,.59,22.72,1.18,34.08,1.78,.11,.15,.44,.61,.44,1.28,0,.81-.47,1.33-.58,1.45Z"/><path class="cls-17" d="M513.9,161.86c-4.49,1.06-10.88,2.06-18.53,1.64-7.49-.41-13.62-2.05-17.93-3.55-.19-.33-.53-1.03-.57-1.98-.04-.96,.26-1.7,.43-2.04,5.23-.6,11.46-.95,18.45-.61,7.19,.35,13.51,1.35,18.76,2.51,.13,.38,.31,1.1,.19,2-.13,1-.56,1.7-.8,2.04Z"/><ellipse class="cls-22" cx="495.9" cy="157.07" rx="2.55" ry="18.63" transform="translate(310.5 643.09) rotate(-86.69)"/><rect class="cls-22" x="497.74" y="181.87" width="6.24" height="22.93" transform="translate(21.13 -47.69) rotate(5.57)"/><path class="cls-13" d="M531.51,207.97l-34.84-3.4c2.4-3.43,4.81-6.87,7.22-10.3,9.59,.96,19.18,1.91,28.77,2.87-.38,3.61-.77,7.21-1.15,10.82Z"/><path class="cls-4" d="M534.46,334c1.56-1.41,3.12-2.82,4.68-4.22,2.41-38.21,4.82-76.42,7.23-114.63-1.69,.8-3.38,1.6-5.07,2.4-2.28,38.82-4.55,77.64-6.83,116.46Z"/><ellipse class="cls-11" cx="391.51" cy="269.19" rx="59.34" ry="61.09" transform="translate(-45.51 82.77) rotate(-11.41)"/><ellipse class="cls-7" cx="384.8" cy="273.05" rx="56.46" ry="59.48" transform="translate(-46.41 81.52) rotate(-11.41)"/><ellipse class="cls-7" cx="378.14" cy="278.19" rx="54.95" ry="56.52" transform="translate(-47.56 80.3) rotate(-11.41)"/><ellipse class="cls-18" cx="375.63" cy="279.69" rx="49.52" ry="51.44" transform="translate(-47.91 79.83) rotate(-11.41)"/><ellipse class="cls-8" cx="375.63" cy="279.69" rx="45.23" ry="46.98" transform="translate(-47.91 79.83) rotate(-11.41)"/><ellipse class="cls-22" cx="372.63" cy="280.3" rx="24.31" ry="25.25" transform="translate(-48.08 79.25) rotate(-11.41)"/><ellipse class="cls-4" cx="372.19" cy="280.39" rx="21.16" ry="21.7" transform="translate(-48.11 79.17) rotate(-11.41)"/><circle class="cls-14" cx="372.39" cy="280.35" r="16.98"/><circle class="cls-20" cx="374.33" cy="279.95" r="11.32"/><g><path class="cls-18" d="M271.24,331.26c-1.07,1.31-7.32,8.73-18.22,9.62-11.61,.95-19.3-6.27-20.44-7.38,1.07-20.71,2.13-41.42,3.2-62.13l40.66,2.09c-1.74,19.26-3.47,38.53-5.21,57.79Z"/><g><path class="cls-14" d="M258.61,291.1c-2.17,.66-5.98,1.51-10.71,1.01-5.2-.55-9.02-2.49-11.02-3.68,.02-.19,.05-.39,.07-.58,1.98,1.2,5.83,3.18,11.09,3.72,4.71,.49,8.49-.39,10.63-1.05-.02,.19-.05,.39-.07,.58Z"/><path class="cls-14" d="M258.67,292.11c-2.17,.66-5.98,1.51-10.71,1.01-5.2-.55-9.02-2.49-11.02-3.68,.02-.19,.05-.39,.07-.58,1.98,1.2,5.83,3.18,11.09,3.72,4.71,.49,8.49-.39,10.63-1.05-.02,.19-.05,.39-.07,.58Z"/><path class="cls-14" d="M258.38,293c-2.17,.66-5.98,1.51-10.71,1.01-5.2-.55-9.02-2.49-11.02-3.68,.02-.19,.05-.39,.07-.58,1.98,1.2,5.83,3.18,11.09,3.72,4.71,.49,8.49-.39,10.63-1.05-.02,.19-.05,.39-.07,.58Z"/><path class="cls-14" d="M258.45,294.12c-2.17,.66-5.98,1.51-10.71,1.01-5.2-.55-9.02-2.49-11.02-3.68,.02-.19,.05-.39,.07-.58,1.98,1.2,5.83,3.18,11.09,3.72,4.71,.49,8.49-.39,10.63-1.05-.02,.19-.05,.39-.07,.58Z"/></g><g><path class="cls-14" d="M258.07,296.12c-2.17,.66-5.98,1.51-10.71,1.01-5.2-.55-9.02-2.49-11.02-3.68,.02-.19,.05-.39,.07-.58,1.98,1.2,5.83,3.18,11.09,3.72,4.71,.49,8.49-.39,10.63-1.05-.02,.19-.05,.39-.07,.58Z"/><path class="cls-14" d="M258.14,297.13c-2.17,.66-5.98,1.51-10.71,1.01-5.2-.55-9.02-2.49-11.02-3.68,.02-.19,.05-.39,.07-.58,1.98,1.2,5.83,3.18,11.09,3.72,4.71,.49,8.49-.39,10.63-1.05-.02,.19-.05,.39-.07,.58Z"/><path class="cls-14" d="M257.85,298.03c-2.17,.66-5.98,1.51-10.71,1.01-5.2-.55-9.02-2.49-11.02-3.68,.02-.19,.05-.39,.07-.58,1.98,1.2,5.83,3.18,11.09,3.72,4.71,.49,8.49-.39,10.63-1.05-.02,.19-.05,.39-.07,.58Z"/><path class="cls-14" d="M257.92,299.14c-2.17,.66-5.98,1.51-10.71,1.01-5.2-.55-9.02-2.49-11.02-3.68,.02-.19,.05-.39,.07-.58,1.98,1.2,5.83,3.18,11.09,3.72,4.71,.49,8.49-.39,10.63-1.05-.02,.19-.05,.39-.07,.58Z"/></g><path class="cls-14" d="M235.77,336.09c-.69-.43-1.44-.93-2.2-1.53-.55-.43-1.05-.85-1.5-1.27,.82-20.39,1.63-40.79,2.45-61.18l3.76,.15c-.83,21.27-1.67,42.55-2.5,63.82Z"/><path class="cls-10" d="M258.17,338.69c-10.73,5.36-27.55,11.62-47.97,10.86-3.64-.14-9.3-.46-16.17-2.17-.75-.19-5.12-1.3-9.95-3.26-11.39-4.64-20.22-11.97-25.25-16.69,.32-6.54,1.1-14.01,2.66-22.15,1.8-9.39,4.26-17.59,6.76-24.46,7.78,4.79,23.18,12.87,44.34,14.97,21.22,2.11,37.94-2.81,46.51-5.99-.31,16.3-.63,32.59-.94,48.89Z"/><path class="cls-1" d="M258.55,297.5l-1.23,.13c-.49,0-.88-.4-.88-.88v-2.58c.02-.14,.05-.43,.27-.62,.12-.11,.25-.14,.33-.16,.6-.14,1.63-.16,1.83-.16,.09,.01,.23,.05,.34,.17,.06,.06,.12,.16,.15,.56,.01,.16,.02,.38,0,.64-.01,.68-.02,1.37-.03,2.05,0,.04,.04,.35-.18,.61-.24,.27-.58,.25-.62,.25Z"/><path class="cls-15" d="M271.23,331.94c-1.06,1.22-2.49,2.64-4.36,3.99-2.98,2.16-5.88,3.28-7.94,3.88,1.78-19.77,3.56-39.54,5.35-59.31,1.9-.42,4.3-1.14,6.91-2.4,2.17-1.06,3.94-2.23,5.31-3.28-1.76,19.04-3.51,38.08-5.27,57.13Z"/><path class="cls-2" d="M254.7,339.39c-.24,.06-.49,.11-.75,.16-.39,.07-.76,.12-1.11,.15-.1,0-.24-.02-.35-.12-.13-.11-.15-.27-.17-.69-.03-.45-.04-.75-.04-.97,0-.21,0-.44,.02-.73,.03-.33,.07-.42,.12-.49,.16-.22,.44-.27,.56-.29,.22-.04,.44-.07,.67-.1,.29-.04,.57-.07,.84-.09,.07-.01,.22-.03,.35,.06,.15,.11,.19,.32,.22,.44,0,.04,.01,.06,.01,.07,.1,.88,.05,1.75,.05,1.75-.02,.36-.05,.59-.23,.75-.06,.06-.13,.09-.17,.11Z"/><ellipse class="cls-14" cx="255.75" cy="269.96" rx="12.12" ry="22.31" transform="translate(-35.32 501.4) rotate(-85.04)"/><ellipse class="cls-4" cx="255.47" cy="268.25" rx="8.63" ry="18.84" transform="translate(-27.67 507.12) rotate(-86.55)"/><path d="M274.17,269.69c-1.06-1.21-7.79-8.65-18.95-8.84-10.39-.19-17.1,6.04-18.36,7.26-.1-.49-.27-1.57,.14-2.84,.39-1.22,1.1-1.99,1.46-2.33,2.36-1.44,8.45-4.71,16.78-4.44,9.65,.32,16.16,5.2,18.21,6.87,.29,.41,.86,1.32,.94,2.6,.05,.72-.08,1.32-.2,1.73Z"/><path class="cls-14" d="M265.25,271.23c-1.03,.75-4.63,3.2-9.78,2.97-5.47-.24-8.97-3.33-9.86-4.16,.19-3.1,.37-6.2,.56-9.3l19.63,1.18-.56,9.3Z"/><ellipse class="cls-4" cx="256.01" cy="261.12" rx="4.21" ry="10.16" transform="translate(-20.04 500.96) rotate(-86.55)"/><path class="cls-22" d="M265.77,272.22c-.88,.76-4.55,3.75-10.04,3.66-6.02-.1-9.78-3.83-10.51-4.57,.13-.82,.27-1.65,.4-2.47,.66,.82,1.77,1.98,3.41,3,2.97,1.84,5.82,1.99,6.7,2.02,1.19,.03,4.19-.06,7.22-1.93,1.17-.73,2.02-1.52,2.59-2.13,.08,.81,.15,1.62,.23,2.43Z"/><ellipse class="cls-14" cx="256.01" cy="261.12" rx="3.2" ry="7.72" transform="translate(-20.04 500.96) rotate(-86.55)"/><path class="cls-19" d="M254.08,342c.74-.08,1.86-.28,3.08-.87,1.08-.52,1.87-1.16,2.37-1.65,1.9-19.68,3.81-39.36,5.71-59.04-.58-.12-1.35-.2-1.7,.21-.16,.19-.17,.42-.18,.48-.06,.53-.99,1.39-4.75,2.81-1.51,19.35-3.03,38.71-4.54,58.06Z"/><rect class="cls-2" x="214.2" y="298.57" width="4.33" height="5.12" rx="1.15" ry="1.15" transform="translate(1.25 -.89) rotate(.24)"/><rect class="cls-2" x="213.72" y="342.32" width="3.66" height="4.33" rx=".97" ry=".97" transform="translate(1.43 -.89) rotate(.24)"/><rect class="cls-2" x="205.35" y="342.05" width="3.66" height="4.33" rx=".97" ry=".97" transform="translate(1.43 -.86) rotate(.24)"/><rect class="cls-2" x="222.15" y="342.12" width="3.66" height="4.33" rx=".97" ry=".97" transform="translate(1.43 -.93) rotate(.24)"/><rect class="cls-2" x="205.19" y="298.26" width="4.33" height="5.12" rx="1.15" ry="1.15" transform="translate(1.25 -.86) rotate(.24)"/><rect class="cls-2" x="223.21" y="298.41" width="4.33" height="5.12" rx="1.15" ry="1.15" transform="translate(1.25 -.93) rotate(.24)"/><rect class="cls-2" x="232.51" y="297.96" width="3.68" height="4.87" rx="1.03" ry="1.03" transform="translate(1.25 -.97) rotate(.24)"/><path class="cls-1" d="M243.5,301.73l-1.38,.14c-.54,0-.98-.45-.98-.99v-2.89c.02-.16,.06-.48,.3-.7,.13-.12,.28-.16,.37-.18,.67-.16,1.82-.18,2.05-.18,.1,.02,.26,.06,.38,.19,.06,.07,.13,.18,.17,.63,.01,.18,.03,.43,0,.72-.01,.77-.02,1.53-.04,2.3,0,.05,.05,.4-.21,.68-.27,.3-.65,.28-.69,.28Z"/><path class="cls-1" d="M251.32,299.62l-1.31,.13c-.52,0-.94-.43-.94-.94v-2.76c.02-.15,.06-.46,.29-.66,.13-.11,.27-.15,.36-.17,.64-.15,1.74-.17,1.96-.17,.1,.02,.25,.06,.36,.18,.06,.07,.13,.17,.16,.6,.01,.17,.02,.41,0,.69-.01,.73-.02,1.46-.03,2.19,0,.05,.05,.38-.2,.65-.26,.29-.62,.27-.66,.27Z"/><rect class="cls-2" x="196.69" y="297.51" width="3.82" height="4.76" rx="1.04" ry="1.04" transform="translate(1.25 -.82) rotate(.24)"/><path class="cls-2" d="M191.11,300.69c-.48-.05-.33-.05-1.02-.14-.22-.03-.36-.05-.53-.14-.09-.04-.23-.12-.36-.28-.15-.19-.18-.39-.19-.49,0-.02,.02-1.2,.02-1.22,0-.02,.01-1.13,.02-1.15,0-.48,.03-.85,.07-1.11,.02-.13,.04-.26,.14-.37,.19-.19,.51-.15,.61-.13,.26,.02,.54,.06,.84,.11,.26,.04,.5,.1,.72,.15,.1,.03,.27,.1,.42,.26,.27,.28,.29,.63,.3,.72v3.05s0,.13-.03,.27c0,.03-.08,.31-.28,.45-.1,.07-.19,.07-.71,0Z"/><path class="cls-2" d="M184.7,298.03c-.48-.05-.33-.05-1.02-.14-.22-.03-.36-.05-.53-.14-.09-.04-.23-.12-.36-.28-.15-.19-.18-.39-.19-.49,0-.02,.02-1.2,.02-1.22,0-.02,.01-1.13,.02-1.15,0-.48,.03-.85,.07-1.11,.02-.13,.04-.26,.14-.37,.19-.19,.51-.15,.61-.13,.26,.02,.54,.06,.84,.11,.26,.04,.5,.1,.72,.15,.1,.03,.27,.1,.42,.26,.27,.28,.29,.63,.3,.72v3.05s0,.13-.03,.27c0,.03-.08,.31-.28,.45-.1,.07-.19,.07-.71,0Z"/><path class="cls-2" d="M178.14,294.8c-.43-.05-.3-.04-.92-.13-.2-.03-.33-.05-.48-.12-.08-.04-.21-.11-.32-.25-.13-.17-.16-.35-.17-.44,0-.02,.01-1.08,.01-1.1,0-.01,.01-1.02,.01-1.03,0-.43,.03-.77,.06-1,.01-.12,.03-.24,.13-.33,.17-.17,.46-.13,.55-.12,.24,.02,.49,.05,.76,.1,.23,.04,.45,.09,.65,.14,.09,.03,.24,.09,.38,.24,.25,.25,.26,.57,.27,.65v2.75s0,.11-.03,.25c0,.03-.07,.28-.25,.4-.09,.06-.17,.06-.64,0Z"/><path class="cls-2" d="M171.97,291.19c-.43-.05-.29-.04-.92-.13-.2-.03-.32-.04-.48-.12-.08-.04-.21-.11-.32-.25-.13-.17-.16-.35-.17-.44,0-.02,.01-1.08,.01-1.1,0-.01,.01-1.02,.01-1.03,0-.43,.03-.77,.06-1,.01-.12,.03-.24,.13-.33,.17-.17,.46-.13,.55-.12,.24,.02,.49,.05,.76,.1,.23,.04,.45,.09,.65,.14,.09,.03,.24,.09,.38,.24,.25,.25,.26,.57,.27,.65v2.75s0,.11-.03,.24c0,.03-.07,.28-.25,.4-.09,.06-.17,.06-.64,0Z"/><path class="cls-2" d="M233.41,345.45c-.31,.06-.64,.11-.99,.15-.51,.06-1,.1-1.45,.12-.13-.01-.31-.05-.45-.18-.16-.15-.17-.36-.18-.91,0-.59,0-.97,.01-1.26,0-.27,.02-.56,.08-.95,.06-.42,.12-.54,.19-.63,.22-.28,.59-.32,.74-.33,.28-.03,.57-.06,.88-.08,.38-.03,.74-.04,1.09-.05,.09-.01,.29-.02,.45,.1,.19,.15,.23,.42,.25,.58,0,.05,0,.08,0,.1,.07,1.14-.06,2.27-.06,2.27-.06,.47-.11,.76-.35,.96-.09,.07-.17,.11-.23,.13Z"/><path class="cls-2" d="M241.39,343.93c-.31,.08-.63,.15-.98,.21-.51,.1-.99,.16-1.44,.21-.13,0-.31-.03-.46-.16-.16-.14-.19-.34-.23-.9-.04-.59-.05-.97-.06-1.26,0-.27-.02-.56,.02-.95,.04-.42,.09-.55,.15-.64,.2-.29,.57-.36,.72-.38,.28-.05,.57-.1,.87-.14,.37-.05,.74-.09,1.08-.12,.09-.02,.29-.04,.45,.07,.2,.14,.25,.41,.29,.56,0,.05,.01,.08,.02,.1,.14,1.14,.07,2.27,.07,2.27-.03,.47-.06,.77-.29,.98-.08,.07-.16,.12-.22,.14Z"/><path class="cls-2" d="M248.53,341.68c-.27,.07-.56,.14-.86,.2-.45,.09-.88,.16-1.28,.21-.11,0-.28-.02-.41-.13-.15-.13-.18-.3-.22-.8-.05-.52-.06-.86-.08-1.12-.01-.24-.02-.5,0-.85,.03-.38,.07-.49,.13-.57,.18-.26,.5-.33,.63-.35,.25-.05,.51-.09,.77-.14,.33-.05,.65-.09,.96-.12,.08-.02,.26-.04,.41,.06,.18,.12,.23,.36,.26,.5,0,.04,.01,.07,.02,.08,.14,1.01,.1,2.01,.1,2.02-.02,.42-.04,.68-.24,.87-.07,.07-.14,.11-.19,.13Z"/><path class="cls-2" d="M199.84,345.65c-.31-.07-.57-.12-.74-.15-.21-.04-.52-.09-.92-.17-.42-.08-.54-.11-.62-.16-.02-.01-.04-.03-.04-.03-.03-.02-.17-.14-.25-.39-.08-.24-.05-.44-.04-.77,0-.08,0-.29,0-.7,0-.58,0-1.17,0-1.75,0-.1,0-.28,.12-.41,.1-.11,.24-.13,.36-.15,.18-.03,.32,0,.41,.02,.14,.03,.36,.08,.64,.12,.26,.04,.33,.05,.58,.09,.43,.07,.65,.11,.8,.21,.22,.15,.34,.37,.4,.53,0,.06,0,.14,.01,.25,.03,.68,0,1.07-.03,1.64-.05,1.24,.02,1.54-.22,1.72-.15,.11-.32,.11-.44,.1Z"/><path class="cls-2" d="M192.03,343.85c-.31-.07-.56-.13-.74-.16-.21-.04-.52-.1-.91-.18-.42-.09-.54-.12-.62-.17-.02-.01-.04-.03-.04-.03-.03-.02-.17-.14-.25-.39-.07-.23-.05-.43-.03-.75,0-.08,0-.28,0-.69,0-.57,.02-1.14,.02-1.72,0-.09,0-.28,.12-.4,.1-.1,.24-.12,.36-.14,.18-.02,.32,0,.41,.03,.14,.03,.36,.08,.64,.13,.26,.05,.33,.05,.57,.1,.43,.08,.65,.12,.79,.22,.22,.15,.33,.36,.39,.53,0,.06,0,.14,0,.24,.02,.66-.02,1.05-.05,1.61-.07,1.22,0,1.51-.24,1.68-.15,.1-.32,.1-.44,.09Z"/><path class="cls-2" d="M184.72,341.55c-.3-.1-.55-.17-.72-.22-.2-.06-.51-.14-.9-.25-.41-.12-.53-.16-.6-.21-.02-.02-.04-.03-.04-.03-.03-.03-.16-.15-.22-.4-.06-.24-.01-.43,.02-.75,0-.08,.03-.28,.06-.68,.04-.57,.11-1.14,.16-1.71,0-.09,.02-.28,.15-.39,.11-.1,.25-.1,.37-.11,.18-.01,.32,.03,.41,.06,.14,.04,.35,.11,.62,.18,.25,.07,.32,.08,.57,.14,.43,.11,.64,.17,.78,.28,.21,.16,.3,.39,.35,.56,0,.06,0,.14,0,.24-.03,.66-.1,1.05-.17,1.6-.16,1.21-.12,1.51-.37,1.66-.15,.09-.33,.08-.44,.05Z"/><path class="cls-2" d="M178.15,338.17c-.16-.05-.36-.12-.6-.2-.42-.15-.32-.14-.65-.25,0,0-.43-.15-.67-.33-.02-.01-.03-.03-.03-.03s0,0,0,0c-.13-.12-.13-.4-.13-.4,0-.31,.04-.6,.05-.66,0-.04,.02-.23,.05-.61,.03-.41,.05-.61,.06-.75,0-.18,.02-.38,.04-.68,.02-.21,.04-.37,.16-.51,.03-.04,.1-.11,.2-.15,.13-.04,.22,0,.45,.07,.27,.09,.13,.02,.55,.16,.3,.09,.28,.1,.51,.17,.46,.14,.56,.14,.71,.25,.15,.12,.23,.27,.27,.37,0,.1,0,.26-.01,.46-.02,.39-.05,.63-.09,.9-.05,.47-.06,.68-.15,1.56-.04,.39-.07,.61-.23,.69-.16,.09-.37,0-.49-.06Z"/><path class="cls-2" d="M172.96,334.96c-.13-.04-.3-.09-.49-.15-.35-.12-.27-.11-.53-.2,0,0-.36-.12-.56-.27-.01-.01-.03-.02-.03-.02s0,0,0,0c-.11-.11-.11-.36-.11-.36,0-.28,.03-.56,.03-.61,0-.04,.02-.21,.04-.56,.03-.38,.04-.56,.04-.69,0-.17,.01-.35,.03-.63,.01-.19,.03-.34,.13-.48,.03-.04,.08-.11,.16-.15,.1-.05,.18-.01,.37,.04,.22,.07,.11,.01,.46,.11,.25,.07,.23,.07,.42,.13,.38,.11,.46,.1,.58,.2,.13,.1,.19,.23,.23,.33,0,.1,0,.24,0,.42-.01,.36-.04,.58-.06,.83-.04,.43-.04,.63-.11,1.44-.03,.37-.05,.56-.18,.65-.13,.09-.31,.02-.4-.03Z"/><path class="cls-2" d="M168.14,331.29c-.12-.03-.28-.08-.46-.14-.33-.11-.25-.11-.5-.19,0,0-.34-.11-.53-.25-.01-.01-.03-.02-.03-.02s0,0,0,0c-.1-.1-.1-.34-.1-.34,0-.27,.03-.52,.03-.57,0-.03,.01-.2,.04-.53,.02-.35,.04-.53,.04-.65,0-.16,0-.33,.03-.59,.01-.18,.03-.32,.12-.45,.03-.04,.07-.1,.15-.14,.1-.04,.17-.01,.35,.04,.21,.06,.1,.01,.43,.11,.23,.07,.22,.07,.4,.12,.36,.1,.44,.09,.55,.18,.12,.09,.18,.22,.21,.31,0,.09,0,.23,0,.4-.01,.34-.04,.55-.06,.78-.04,.41-.04,.59-.11,1.36-.03,.34-.05,.53-.17,.61-.12,.08-.29,.02-.38-.03Z"/><path class="cls-2" d="M164.06,327.49c-.12-.03-.27-.08-.45-.14-.32-.11-.25-.1-.49-.18,0,0-.33-.11-.51-.25-.01-.01-.03-.02-.03-.02s0,0,0,0c-.1-.1-.1-.33-.1-.33,0-.26,.02-.51,.03-.56,0-.03,.01-.2,.04-.52,.02-.35,.03-.52,.04-.64,0-.16,0-.32,.03-.58,.01-.18,.03-.32,.12-.44,.03-.04,.07-.1,.15-.14,.1-.04,.17,0,.34,.04,.21,.06,.1,.01,.42,.11,.23,.06,.21,.07,.39,.12,.35,.1,.43,.09,.54,.18,.12,.09,.18,.22,.21,.3,0,.09,0,.23,0,.39-.01,.33-.04,.53-.06,.77-.04,.4-.04,.58-.1,1.33-.03,.34-.05,.52-.17,.6-.12,.08-.28,.02-.37-.03Z"/></g><g><path class="cls-21" d="M214.41,86.08c-1.42,1.18-3.45,1.78-6.07,1.78s-4.65-.59-6.08-1.78-2.15-2.9-2.15-5.16v-9.86h5.3v9.79c0,.93,.25,1.67,.74,2.22,.5,.55,1.22,.83,2.16,.83s1.67-.28,2.17-.84c.5-.56,.76-1.3,.76-2.21v-9.79h5.3v9.86c0,2.26-.71,3.98-2.14,5.16Z"/><path class="cls-21" d="M232.1,71.76c.8,.47,1.42,1.12,1.87,1.94,.45,.82,.67,1.75,.67,2.77v.31c0,1.02-.22,1.95-.67,2.78-.45,.83-1.07,1.48-1.87,1.96-.8,.47-1.71,.71-2.74,.71h-3.96v5.33h-5.3v-16.51h9.26c1.02,0,1.94,.24,2.74,.71Zm-6.7,6.61h2.18c.56,0,.98-.14,1.26-.43,.28-.29,.42-.68,.42-1.18v-.19c0-.51-.14-.91-.42-1.19-.28-.28-.7-.42-1.26-.42h-2.18v3.41Z"/><path class="cls-21" d="M237.43,71.05h14.28v3.96h-8.98v2.28h7.68v3.79h-7.68v2.52h9.14v3.96h-14.45v-16.51Z"/><path class="cls-21" d="M269.61,78.85c-.54,.82-1.34,1.42-2.38,1.8l3.67,6.91h-5.95l-2.93-6.02h-1.97v6.02h-5.3v-16.51h10.1c1.18,0,2.2,.23,3.04,.68s1.47,1.07,1.9,1.85c.42,.78,.64,1.62,.64,2.53,0,1.01-.27,1.92-.82,2.74Zm-5.02-3.6c-.29-.29-.64-.43-1.06-.43h-3.48v3.05h3.48c.42,0,.77-.15,1.06-.44,.29-.3,.43-.66,.43-1.09s-.14-.79-.43-1.08Z"/><path class="cls-21" d="M273.43,71.05h13.34v3.96h-8.04v2.83h6.91v3.79h-6.91v5.93h-5.3v-16.51Z"/><path class="cls-21" d="M289.43,71.05h14.28v3.96h-8.98v2.28h7.68v3.79h-7.68v2.52h9.14v3.96h-14.45v-16.51Z"/><path class="cls-21" d="M317.95,71.05h6.58l-5.93,6.79,6.05,9.72h-6.26l-3.43-6.05-2.88,2.35v3.7h-5.3v-16.51h5.3v7.06l5.88-7.06Z"/><path class="cls-21" d="M336.26,75.28v12.29h-5.3v-12.29h-5.42v-4.22h16.13v4.22h-5.4Z"/><path class="cls-21" d="M352.07,71.05h14.28v3.96h-8.98v2.28h7.68v3.79h-7.68v2.52h9.14v3.96h-14.45v-16.51Z"/><path class="cls-21" d="M384.26,78.85c-.54,.82-1.34,1.42-2.38,1.8l3.67,6.91h-5.95l-2.93-6.02h-1.97v6.02h-5.3v-16.51h10.1c1.18,0,2.2,.23,3.04,.68s1.47,1.07,1.9,1.85c.42,.78,.64,1.62,.64,2.53,0,1.01-.27,1.92-.82,2.74Zm-5.02-3.6c-.29-.29-.64-.43-1.06-.43h-3.48v3.05h3.48c.42,0,.77-.15,1.06-.44,.29-.3,.43-.66,.43-1.09s-.14-.79-.43-1.08Z"/><path class="cls-21" d="M408.06,71.76c.8,.47,1.42,1.12,1.87,1.94,.45,.82,.67,1.75,.67,2.77v.31c0,1.02-.22,1.95-.67,2.78-.45,.83-1.07,1.48-1.87,1.96-.8,.47-1.71,.71-2.74,.71h-3.96v5.33h-5.3v-16.51h9.26c1.02,0,1.94,.24,2.74,.71Zm-6.7,6.61h2.18c.56,0,.98-.14,1.26-.43,.28-.29,.42-.68,.42-1.18v-.19c0-.51-.14-.91-.42-1.19-.28-.28-.7-.42-1.26-.42h-2.18v3.41Z"/><path class="cls-21" d="M413.39,71.05h14.28v3.96h-8.98v2.28h7.68v3.79h-7.68v2.52h9.14v3.96h-14.45v-16.51Z"/><path class="cls-21" d="M445.58,78.85c-.54,.82-1.34,1.42-2.38,1.8l3.67,6.91h-5.95l-2.93-6.02h-1.97v6.02h-5.3v-16.51h10.1c1.18,0,2.2,.23,3.04,.68s1.47,1.07,1.9,1.85c.42,.78,.64,1.62,.64,2.53,0,1.01-.27,1.92-.82,2.74Zm-5.02-3.6c-.29-.29-.64-.43-1.06-.43h-3.48v3.05h3.48c.42,0,.77-.15,1.06-.44,.29-.3,.43-.66,.43-1.09s-.14-.79-.43-1.08Z"/><path class="cls-21" d="M449.39,71.05h13.34v3.96h-8.04v2.83h6.91v3.79h-6.91v5.93h-5.3v-16.51Z"/><path class="cls-21" d="M465.4,71.05h14.28v3.96h-8.98v2.28h7.68v3.79h-7.68v2.52h9.14v3.96h-14.45v-16.51Z"/><path class="cls-21" d="M493.91,71.05h6.58l-5.93,6.79,6.05,9.72h-6.26l-3.43-6.05-2.88,2.35v3.7h-5.3v-16.51h5.3v7.06l5.88-7.06Z"/><path class="cls-21" d="M512.22,75.28v12.29h-5.3v-12.29h-5.42v-4.22h16.13v4.22h-5.4Z"/></g></g></svg>