<?xml version="1.0" encoding="utf-8"?>
<!-- Generator: Adobe Illustrator 27.0.0, SVG Export Plug-In . SVG Version: 6.00 Build 0)  -->
<svg version="1.1" id="Layer_1" xmlns="http://www.w3.org/2000/svg" xmlns:xlink="http://www.w3.org/1999/xlink" x="0px" y="0px"
	 viewBox="0 0 450 452.8" style="enable-background:new 0 0 450 452.8;" xml:space="preserve">
<style type="text/css">
	.st0{fill:#FFFFFF;}
	.st1{fill:#0068BA;}
</style>
<rect x="40" y="63.4" class="st0" width="379" height="348"/>
<g>
	<path class="st1" d="M242,204.2v-0.7c-0.1,0.2-0.3,0.5-0.5,0.7H242z"/>
	<path class="st1" d="M416.7,0H33.2C14.9,0,0,14.5,0,32.4v388c0,17.9,14.9,32.4,33.2,32.4h383.5c18.4,0,33.3-14.5,33.3-32.4v-388
		C450,14.5,435.1,0,416.7,0z M136.4,379.1h-68V174.6h68V379.1z M102.4,146.6H102c-22.8,0-37.5-15.7-37.5-35.3
		c0-20.1,15.2-35.3,38.4-35.3c23.3,0,37.6,15.3,38,35.3C140.9,130.9,126.1,146.6,102.4,146.6z M381.5,379.1h-68V269.6
		c0-27.5-9.8-46.2-34.4-46.2c-18.8,0-30,12.6-34.9,24.9c-1.8,4.4-2.2,10.5-2.2,16.6v114.2h-68c0,0,0.9-185.3,0-204.5h68v28.9
		c9-13.9,25.2-33.8,61.3-33.8c44.7,0,78.2,29.2,78.2,92.1V379.1z"/>
</g>
</svg>
