<?xml version="1.0" encoding="UTF-8"?>
<svg id="Layer_1" data-name="Layer 1" xmlns="http://www.w3.org/2000/svg" viewBox="0 0 200 200">
  <defs>
    <style>
      .cls-1 {
        fill: #cf0;
      }
    </style>
  </defs>
  <path class="cls-1" d="M185.2,0C193.36,0,200,6.46,200,14.42V185.57c0,7.96-6.64,14.43-14.8,14.43H14.75c-8.14,0-14.75-6.47-14.75-14.43V14.42C0,6.46,6.61,0,14.75,0c0,0,170.45,0,170.45,0Zm-14.77,170.42v-52.34c0-25.71-5.55-45.47-35.59-45.47-14.43,0-24.11,7.91-28.07,15.42h-.41v-13.05h-28.44v95.44h29.63v-47.21c0-12.45,2.36-24.51,17.79-24.51s15.41,14.24,15.41,25.31v46.41h29.66ZM59.33,74.98H29.63v95.44h29.69V74.98Zm-14.84-47.44c-9.53,0-17.21,7.71-17.21,17.2s7.68,17.2,17.21,17.2,17.19-7.71,17.19-17.2-7.7-17.2-17.19-17.2h0Z"/>
</svg>