<svg xmlns="http://www.w3.org/2000/svg" xmlns:xlink="http://www.w3.org/1999/xlink" width="700" height="400" xmlns:v="https://vecta.io/nano"><style><![CDATA[.M{fill:#eee}.N{fill:#794303}.O{fill:#f28705}.P{fill:#facf9b}.Q{fill:#ce411b}.R{stroke-miterlimit:10}]]></style><path d="M0 0h700v400H0z" fill="#2a2a2a"/><g stroke="#eee" class="R"><path d="M582.41 218.97c-23.54-32.87-94.23-33.54-118.29-.38-22.92 31.58.28 88.59 42.09 97.74 27.14 5.94 56.06-9.61 70.92-29.84 13.74-18.72 19.75-47.33 5.29-67.52zm-34.3-19.32c.37-.51 1.13-.66 1.69-.32a1.07 1.07 0 0 1 .52.71 1.02 1.02 0 0 1-.18.84 1.21 1.21 0 0 1-.77.48c-.08.02-.17.02-.25.02-.24 0-.47-.06-.67-.18-.56-.34-.72-1.03-.35-1.54zm-20.96-.47c.37-.51 1.13-.66 1.69-.32s.72 1.03.35 1.54a1.21 1.21 0 0 1-.77.48c-.08.02-.17.02-.25.02-.24 0-.47-.06-.67-.18a1.07 1.07 0 0 1-.52-.71 1.02 1.02 0 0 1 .18-.84zm-27.63.36c.37-.51 1.13-.66 1.69-.32s.72 1.03.35 1.54a1.21 1.21 0 0 1-.77.48c-.08.02-.17.02-.25.02-.24 0-.47-.06-.67-.18a1.07 1.07 0 0 1-.52-.71 1.02 1.02 0 0 1 .18-.84zm-12.04 17.84a1.21 1.21 0 0 1 .77-.48 1.34 1.34 0 0 1 .92.16c.27.16.46.42.52.71a1.02 1.02 0 0 1-.18.84h0c-.23.32-.62.5-1.02.5-.23 0-.46-.06-.67-.18a1.07 1.07 0 0 1-.52-.71c-.07-.29 0-.59.18-.84zm-21.81 37.33a1.21 1.21 0 0 1-.77.48c-.08.01-.16.02-.25.02-.24 0-.47-.06-.67-.19-.56-.34-.72-1.03-.35-1.54a1.21 1.21 0 0 1 .77-.48c.32-.06.65 0 .92.16a1.07 1.07 0 0 1 .52.71c.06.29 0 .59-.18.84zm1.1-25.68a1.21 1.21 0 0 1-.77.48c-.08.02-.16.02-.25.02-.24 0-.47-.06-.67-.18-.56-.34-.72-1.03-.35-1.54s1.13-.66 1.69-.32c.27.16.46.42.52.71s0 .59-.18.84zm4.62 51.14c-.2.28-.5.47-.86.53-.09.02-.18.03-.28.03-.08 0-.16 0-.25-.02h0c-.18-.03-.34-.09-.49-.18a1.22 1.22 0 0 1-.58-.79 1.14 1.14 0 0 1 .2-.93 1.33 1.33 0 0 1 .86-.53 1.46 1.46 0 0 1 1.02.18c.62.38.79 1.15.38 1.71zm99.45 8.52c-19.8 21.89-60.6 30.41-82.53 11.88-19.23-16.25-15.69-46.32-3.83-64.79 16.04-24.98 55.55-41.59 80.93-26.54 25.39 15.05 26.73 55.91 5.43 79.45z" class="O"/><path d="M565.41 209.25c-25.38-15.04-64.89 1.57-80.93 26.54-11.86 18.47-15.4 48.54 3.83 64.79 21.93 18.53 62.73 10.01 82.53-11.88 21.29-23.55 19.96-64.4-5.43-79.45zm-.01 75.32c-4.63 5.22-10.68 9.8-17.43 13.35 0 .03.02.06.03.09l-1 1c-.05-.17-.11-.34-.16-.51-16.83 8.48-37.65 10.55-51.59.28-5.48-4.03-9.1-9.39-11.18-15.41-.19.08-.38.15-.58.23l-.48-1.03.52-.21.18-.07c-3.47-11.11-1.86-24.28 2.97-35.51l-.27-.08.58-.69c1.62-3.57 3.53-6.94 5.72-9.96 6.49-8.96 16.49-16.51 27.45-21.22l.83-.83.13.41c14.45-5.96 30.43-6.94 42.14.39 10.08 6.3 15.18 17.61 15.85 29.96l.33-.13-.3.92c.52 13.6-4.29 28.35-13.75 39.01z" class="P"/><g class="Q"><path d="M546.62 258.74l-5.59 2.2c0 .02-.02.04-.02.05-.04.13-.17.56 0 1 .03.08.07.15.11.21l6.01 1.8c-.57-1.4-.71-3.29-.51-5.27zm-19.83-.82l3.37 1.01.66-.27c.83-.34 1.05-.44 1.26-.67.17-.18.27-.36.38-.57.22-.41.47-1.1.52-2.05l-.66-2.06c-1.63 1.8-3.55 3.43-5.53 4.6zM535 265c-.4-.1-.76-.05-1 0l-.07.07-26.28 39.38-.65-.45 25.18-38.2.17-1.13-1.2.16-47.08 18.53c2.08 6.01 5.7 11.37 11.18 15.41 13.95 10.27 34.76 8.2 51.59-.28l-10.5-32.66c-.51-.42-.82-.71-1.34-.83zm-14.83 29.36c-1.61 2.68-3.6 4.51-4.45 4.09-.85-.43-.24-2.95 1.37-5.63s3.6-4.51 4.45-4.09c.85.43.24 2.95-1.37 5.63zM579 246l-18.26 7.19c.35 2.61.47 4.09.35 4.78-.59 3.39-4.27 6.65-7.71 7.92l19.83 5.94-.39 1.06-21.42-6.5c-.9.11-1.72.04-2.4-.25-.42-.18-.78-.46-1.08-.8l-7.77-2.36s-.1 0-.15.02c-.25.04-.83.13-1.36.45-.19.16-.4.33-.64.55-.34.45-.46 1.04-.4 1.66l10.37 32.26c6.75-3.55 12.8-8.13 17.43-13.35 9.46-10.66 14.27-25.41 13.75-39.01l-.15.45zm-30.31 35.93c-.89.35-2.69-1.64-4.01-4.45s-1.67-5.37-.78-5.72 2.69 1.64 4.01 4.45 1.67 5.37.78 5.72z"/><path d="M539.42 262.82s.05 0 .07.01c-.02 0-.03-.02-.05-.03l-.02.02zm-3.6-29.4c3.37 1.78 2.88 10.06-.59 15.99-.55.93-1.21 1.87-1.96 2.79l1.04 3.22c.81 1.03 1.71 1.66 2.39 1.62.28-.02.61-.1.61-.1a4.01 4.01 0 0 0 .96-.39L565 215.99l1 1-27.03 40.51a2.02 2.02 0 0 0-.08.88 2.08 2.08 0 0 0 .4 1c.14.19.34.46.71.6.08.03.15.04.23.06l6.56-2.58c.3-1.76.86-3.54 1.62-5.07 2.52-5.09 8.11-9.19 10.34-8.15.55.26.82.79 1.5 5.41l.34 2.38 18.54-7.29c-.66-12.34-5.76-23.65-15.85-29.96-11.72-7.33-27.69-6.35-42.14-.39l6.6 20.54c6.74-2.08 7.64-1.78 8.09-1.54zm.97-19.42c.97.02 1.71 2.51 1.65 5.57s-.89 5.53-1.86 5.51-1.71-2.51-1.65-5.57.89-5.52 1.86-5.51zm-19.4 24.81c1.09-.93 3.8-1.81 9.14-3.48L519.99 215l.17-.17c-10.96 4.71-20.96 12.26-27.45 21.22-2.19 3.02-4.1 6.39-5.7 9.96l27.78 8.32c-1.87-5.02-1.25-12.22 2.59-15.52zm12.25 25.27c.57-.5 1.42-1.24 1.49-2.08.05-.66-.4-1.39-1.34-2.16l-4.2-1.27c-2.27 1.11-4.53 1.53-6.43.83-1.67-.61-2.98-2.07-3.89-3.96l-28.58-8.67c-4.83 11.23-6.44 24.39-2.97 35.51l45.66-17.96c.08-.08.17-.16.26-.24z"/></g><path d="M572.83 272.9l.39-1.06-19.83-5.94c-.68.25-1.35.43-1.98.51l21.42 6.5zm-58.03-18.57l-27.78-8.32-.6.69.27.08 28.58 8.67a13.68 13.68 0 0 1-.47-1.11zm11.74-19l.58-.18.62-.19-6.6-20.54-.13-.41-.83.83-.17.17 6.54 20.33zm34.2 17.86L579 246l.15-.45.3-.92-.33.13-18.54 7.29.16 1.13z" class="M"/><path d="M539 262c0-.55.45-1 1-1-.31-.13-.96-.46-1.44-1.16-.13-.19-.44-.65-.53-1.32a3.02 3.02 0 0 1 .03-.95 4.82 4.82 0 0 1-1.28.28c-1.18.1-2.36-.28-3.29-.97-.05.6-.3 1.18-.75 1.65-.54.57-1.29.9-2.08.97.95.87 1.4 1.72 1.34 2.56-.07.92-.73 1.66-1.33 2.22.91-.34 1.81-.62 2.3-.16.21.19.29.45.25.8.06-.08.73-.97 1.78-.92.68.03 1.31.46 1.68 1.1.03 0 .07-.02.1-.03-.01-.32.03-.69.22-1.07.32-.64.85-.93 1-1a2.25 2.25 0 0 1 1.42-.18l.02-.02c-.26-.18-.44-.47-.44-.8zm-1 2l.64-.55c-.23.14-.46.31-.64.55zm-4.64 1.64l-.36.36c.11.04.21-.14.36-.36z" class="P"/><path d="M538 264c.18-.24.4-.41.64-.55.53-.31 1.12-.41 1.36-.45.05 0 .1 0 .15-.02l7.77 2.36c-.32-.37-.59-.81-.79-1.33l-6.01-1.8-.11-.21c-.17-.44-.04-.87 0-1 0-.02.02-.04.02-.05l5.59-2.2.17-1.27-6.56 2.58c-.08-.01-.15-.03-.23-.06-.37-.14-.57-.41-.71-.6-.11-.14-.33-.5-.4-1-.04-.3 0-.6.08-.88L566 217.01l-1-1-26.73 40.56c-.28.16-.59.3-.96.39 0 0-.32.08-.61.1-.68.04-1.58-.6-2.39-1.62l-1.04-3.22a33.44 33.44 0 0 1-.96 1.12l.66 2.06c-.05.95-.31 1.63-.52 2.05-.11.2-.2.39-.38.57-.21.22-.43.33-1.26.67l-.66.27-3.37-1.01-1.2.65 4.2 1.27c.93.77 1.39 1.49 1.34 2.16-.06.84-.92 1.58-1.49 2.08-.1.08-.18.16-.26.24l-45.66 17.96-.18.07-.52.21.48 1.03.58-.23 47.08-18.53 1.2-.16-.17 1.13-25.18 38.2.65.45 26.28-39.38.07-.07c.24-.05.6-.1 1 0 .52.12.83.41 1.34.83l10.5 32.66.16.51 1-1c0-.03-.02-.06-.03-.09l-10.37-32.26c-.06-.62.06-1.21.4-1.66zm1.42-1.18a2.25 2.25 0 0 0-1.42.18c-.15.07-.68.36-1 1-.19.38-.23.75-.22 1.07-.03 0-.07.02-.1.03-.37-.64-1-1.06-1.68-1.1-1.05-.05-1.72.84-1.78.92.04-.35-.04-.61-.25-.8-.5-.46-1.4-.17-2.3.16.6-.56 1.26-1.31 1.33-2.22.06-.84-.39-1.7-1.34-2.56.79-.07 1.54-.41 2.08-.97.45-.47.7-1.05.75-1.65.93.7 2.11 1.07 3.29.97a4.91 4.91 0 0 0 1.28-.28 3.02 3.02 0 0 0-.03.95c.09.67.4 1.13.53 1.32A3.37 3.37 0 0 0 540 261c-.55 0-1 .45-1 1 0 .34.18.62.44.8.02.01.03.02.05.03-.02 0-.04 0-.07-.01zM533 266l.36-.36c-.15.22-.24.39-.36.36z" class="M"/><path d="M536.59 225.08c.97.02 1.81-2.45 1.86-5.51.06-3.06-.68-5.55-1.65-5.57s-1.81 2.45-1.86 5.51c-.06 3.06.68 5.55 1.65 5.57zm7.31 46.68c-.89.35-.54 2.91.78 5.72s3.12 4.8 4.01 4.45.54-2.91-.78-5.72-3.12-4.8-4.01-4.45zm-26.81 21.05c-1.61 2.68-2.22 5.2-1.37 5.63s2.84-1.4 4.45-4.09c1.61-2.68 2.22-5.2 1.37-5.63s-2.84 1.4-4.45 4.09z" class="O"/><use xlink:href="#B" class="N"/><use xlink:href="#C" class="M"/><use xlink:href="#B" x="-27.63" y="0.36" class="N"/><use xlink:href="#C" x="-27.63" y="0.37" class="M"/><path d="M488.21 217.83a.29.29 0 0 0-.05.24c.02.08.07.15.15.2a.37.37 0 0 0 .48-.09c.11-.15.06-.34-.1-.44a.32.32 0 0 0-.19-.05.37.37 0 0 0-.29.14z" class="N"/><path d="M487.83 218.93c.21.12.44.18.67.18.4 0 .79-.18 1.02-.5h0c.18-.25.24-.55.18-.84s-.25-.54-.52-.71c-.27-.16-.6-.22-.92-.16a1.21 1.21 0 0 0-.77.48c-.18.25-.24.55-.18.84.07.29.25.54.52.71zm.96-.76c-.1.14-.32.18-.48.09-.08-.05-.13-.12-.15-.2s0-.17.05-.24a.37.37 0 0 1 .29-.14.45.45 0 0 1 .19.05c.16.1.2.29.1.44z" class="M"/><path d="M466.04 228.6h0a.29.29 0 0 0 .05-.24c-.02-.08-.07-.15-.15-.2a.32.32 0 0 0-.19-.05.37.37 0 0 0-.29.14.29.29 0 0 0-.05.24c.02.08.07.15.15.2s.17.06.26.05c.09-.02.17-.07.22-.14z" class="N"/><path d="M466.43 227.5c-.56-.34-1.32-.19-1.69.32s-.21 1.21.35 1.54c.2.12.43.18.67.18.08 0 .16 0 .25-.02a1.21 1.21 0 0 0 .77-.48c.18-.25.24-.55.18-.84-.07-.29-.25-.54-.52-.71zm-1.01.99c-.02-.08 0-.17.05-.24a.37.37 0 0 1 .29-.14.45.45 0 0 1 .19.05c.08.05.13.12.15.2s0 .17-.05.24h0c-.05.07-.13.12-.22.14-.09.01-.18 0-.26-.05s-.13-.12-.15-.2z" class="M"/><path d="M464.94 254.27h0c.05-.07.07-.15.05-.24-.02-.08-.07-.15-.15-.2-.06-.03-.12-.05-.19-.05h-.07c-.09.02-.17.06-.22.14-.1.14-.06.34.1.44.08.05.17.06.26.05.09-.02.17-.06.22-.14z" class="N"/><path d="M465.32 253.17c-.27-.16-.59-.22-.92-.16a1.21 1.21 0 0 0-.77.48c-.37.51-.21 1.21.35 1.54.2.12.43.19.67.19.08 0 .16 0 .25-.02a1.21 1.21 0 0 0 .77-.48c.18-.25.24-.55.18-.84-.07-.29-.25-.54-.52-.71zm-.96.76c.05-.07.13-.12.22-.14h.07c.07 0 .13.02.19.05.08.05.13.12.15.2s0 .17-.05.24h0c-.05.07-.13.12-.22.14s-.18 0-.26-.05c-.16-.1-.2-.29-.1-.44z" class="M"/><path d="M470.33 279.2l-.02.11h-.04c-.07 0-.14.03-.18.09-.03.04-.04.09-.03.15.01.05.04.09.09.12.04.03.1.04.16.03.05-.01.1-.04.13-.08.06-.09.04-.21-.06-.26v-.12s-.03-.01-.05-.02z" class="N"/><path d="M471.01 278.46a1.45 1.45 0 0 0-1.02-.18c-.36.07-.66.26-.86.53-.2.28-.27.61-.2.93s.28.6.58.79a1.45 1.45 0 0 0 .49.18h0l.25.02c.09 0 .18 0 .28-.03.36-.07.66-.26.86-.53.41-.57.24-1.34-.38-1.71zm-.57 1.14s-.08.07-.13.08c-.06 0-.12 0-.16-.03-.05-.03-.08-.07-.09-.12s0-.1.03-.15c.04-.05.11-.09.18-.09h.04l.02-.11s.04 0 .05.02v.12c.09.06.12.18.06.26z" class="M"/><path d="M548.84 200.09c-.1.14-.06.34.1.44.08.05.17.06.26.05s.17-.06.22-.13h0a.29.29 0 0 0 .05-.24c-.02-.08-.07-.15-.15-.2a.32.32 0 0 0-.19-.05.37.37 0 0 0-.29.14z" class="N"/><path d="M548.45 201.2c.2.12.43.18.67.18.08 0 .16 0 .25-.02a1.21 1.21 0 0 0 .77-.48c.18-.25.24-.55.18-.84s-.25-.54-.52-.71c-.56-.34-1.32-.2-1.69.32-.37.51-.21 1.21.35 1.54zm1.01-.99c.02.08 0 .17-.05.24h0c-.05.07-.13.12-.22.14s-.18 0-.26-.05c-.16-.1-.2-.29-.1-.44a.37.37 0 0 1 .29-.14.45.45 0 0 1 .19.05c.08.05.13.12.15.2z" class="M"/><path d="M535.82 233.42c-.45-.24-1.35-.54-8.09 1.54l-.62.19-.58.18c-5.34 1.67-8.06 2.55-9.14 3.48-3.84 3.3-4.46 10.49-2.59 15.52.14.38.3.76.47 1.11.91 1.89 2.22 3.35 3.89 3.96 1.9.7 4.17.28 6.43-.83.4-.2.8-.41 1.2-.65 1.98-1.17 3.89-2.8 5.53-4.6a33.44 33.44 0 0 0 .96-1.12c.74-.92 1.41-1.86 1.96-2.79 3.47-5.93 3.95-14.21.59-15.99zm-6.81 19.6c-.84 1.6-2.47 2.48-3.64 1.97s-1.43-2.23-.59-3.83 2.47-2.48 3.64-1.97 1.43 2.23.59 3.83z" fill="#fff"/><path d="M528.42 249.19c-1.17-.51-2.8.37-3.64 1.97s-.57 3.31.59 3.83c1.17.51 2.8-.37 3.64-1.97s.57-3.31-.59-3.83z" fill="#794f03"/><path d="M560.24 249.67c-.68-4.62-.95-5.15-1.5-5.41-2.23-1.04-7.82 3.06-10.34 8.15-.76 1.53-1.31 3.31-1.62 5.07a18.41 18.41 0 0 0-.17 1.27c-.2 1.98-.06 3.87.51 5.27.21.51.47.96.79 1.33.31.35.67.62 1.08.8.68.3 1.51.37 2.4.25.63-.08 1.3-.26 1.98-.51 3.43-1.27 7.12-4.53 7.71-7.92.12-.7 0-2.17-.35-4.78l-.16-1.13-.34-2.38zm-8.03 10.35c-.65 1.25-1.81 1.98-2.59 1.64s-.88-1.63-.23-2.87c.65-1.25 1.81-1.98 2.59-1.64s.88 1.63.23 2.87z" fill="#fff"/><path d="M549.39 258.79c-.65 1.25-.55 2.53.23 2.87s1.94-.39 2.59-1.64.55-2.53-.23-2.87-1.94.39-2.59 1.64z" fill="#794f03"/></g><path d="M183.23 105.01c-.48-.41-.48-1.02-.47-1.15v-7.55c-.55-.35-1.58-.65-3.09-.92a36.85 36.85 0 0 0-4.28-.52l-.6 1.34c-1.06 2.75-.67 4.25-1.73 6.93-.14.35-.38.91-.76 1.58-1.6 0-2.52-.38-2.77-1.15.46-.61.99-2.42 1.57-5.41l2.08-10.54 2.55-12.79c.78-3.53 1.61-6.49 2.49-8.87.97-2.65 1.89-3.97 2.77-3.97s1.55.15 2.02.46c0 1.54.4 5.24 1.2 11.12.84 5.76 1.26 9.7 1.26 11.81s.23 4.95.69 8.76c.42 3.88.63 6.97.63 9.27 0 1.31-.69 1.96-2.08 1.96-.46 0-1.04.03-1.48-.35zm-.54-12.21c-.13-1.69-.34-3.78-.63-6.28-.97-8.68-1.45-14-1.45-15.96v-.46c-.42.38-1 2.12-1.73 5.21-.74 3.09-1.42 6.4-2.05 9.94-.63 3.53-.97 5.88-1.01 7.03 1.76.46 3.63.69 5.61.69.34 0 .76-.06 1.26-.17zm23.18 11.57l.13-7.08.13-7.08c0-2.57-.06-6.47-.19-11.69l-.19-11.69c-.11-1.44.12-2.49.31-3.11.17-.54.36-.94.77-1.23.32-.22.74-.33 1.24-.33 2.94 0 5.27.86 6.99 2.59s2.58 4.01 2.58 6.85c0 1.73-.5 3.53-1.51 5.41s-2.21 3.28-3.59 4.2c2.44 1.5 4.23 3.43 5.39 5.79 1.15 2.36 1.73 4.96 1.73 7.81 0 1.34-.5 3.01-1.51 5.01-1.22 2.38-2.88 4.09-4.98 5.13-1.26.58-2.65.86-4.16.86-.09.03-1.43.41-2.43-.36-.48-.38-.66-.85-.72-1.08zm6.3-26.5c.63-1.07 1.22-2.38 1.76-3.92.13-.42.34-.96.63-1.61v-2.02c0-1.15-.46-2.27-1.39-3.34-.92-1.07-1.97-1.61-3.15-1.61-.59 0-.88.6-.88 1.79 0 2.53.04 4.8.13 6.8l.13 6.39c1.09-.23 2.02-1.06 2.77-2.48zm2.39 22.35c1.22-1.46 1.83-3.21 1.83-5.24 0-1.77-.16-3.39-.47-4.87s-.72-2.6-1.23-3.37c-.46-.73-.92-1.34-1.39-1.84-.46-.5-.86-.83-1.2-.98l-.5-.17h-2.27c.21 4.42.31 10.77.31 19.07 2.06-.27 3.7-1.13 4.91-2.59zm12.45 5.22c-.05-.04-.6-.54-.66-1.3-.03-.38.07-.49.25-1.27.13-.54.19-.94.19-1.21 0-3.42-.21-9.98-.63-19.7-.42-8.29-.63-14.84-.63-19.64 0-.07 0-.27.12-.48.25-.45.89-.66 1.4-.67.74-.01 1.22.41 1.32.49.09.07.32.28.45.6.08.18.11.37.11.58 0 2.3.13 5.76.38 10.37l.32 10.37.06.69.14 7.63.05 8.73v1.5h4.85c.88.58 1.32 1.15 1.32 1.73 0 .25-.07.46-.09.53-.04.11-.32.82-1.1 1.03-.49.13-.92 0-1.08-.07l-3.53-.06c-.13.14-.28.26-.44.36-.57.34-1.15.33-1.33.33-.2 0-.9-.04-1.48-.55zm19.5.49c-.92-.69-1.72-1.63-2.39-2.82-1.22-2.07-2.12-4.91-2.71-8.52-.42-2.5-.74-5.38-.95-8.64l-.13-9.79c0-.42.02-2.88.31-6.11.17-1.84.59-3.67 1.26-5.47.67-1.57 1.64-2.69 2.9-3.34a5.94 5.94 0 0 1 2.27-.46c2.23 0 3.99.81 5.29 2.42a14.41 14.41 0 0 1 2.84 6.05c.67 2.69 1.05 5.26 1.13 7.72l.25 7.72-.32 6.97-.25 3.63v.23c-.25 1.08-.38 2.34-.38 3.8 0 1.08-.25 2.19-.76 3.34a8.27 8.27 0 0 1-2.14 2.94c-.62.54-1.23 1.05-2.22 1.28-1.02.23-1.89.03-2.2-.05-.34-.08-1-.27-1.82-.88zm5.36-4.26c.5-1.27.87-2.81 1.1-4.64l.6-6.19.13-3.86-.06-5.3c-.08-2.07-.34-4.67-.76-7.78-.34-2.65-.97-4.99-1.89-7.03-.42-.96-.95-1.71-1.57-2.25-.63-.54-1.3-.81-2.02-.81-1.05 0-1.83.75-2.33 2.25-.63 1.57-1.05 3.3-1.26 5.18l-.44 5.82-.13 4.09.22 4.54.66 5.2c.67 5.11 1.66 8.74 2.96 10.89.84 1.34 1.72 2.02 2.65 2.02.84 0 1.55-.71 2.14-2.13zm17 4.26c-.92-.69-1.72-1.63-2.39-2.82-1.22-2.07-2.12-4.91-2.71-8.52-.42-2.5-.74-5.38-.95-8.64l-.06-3.05v-3.11l-.06-3.63c0-2.3.1-4.34.31-6.11.17-1.84.59-3.67 1.26-5.47.67-1.57 1.64-2.69 2.9-3.34a5.94 5.94 0 0 1 2.27-.46c2.23 0 3.99.81 5.29 2.42a14.41 14.41 0 0 1 2.84 6.05c.67 2.69 1.05 5.26 1.13 7.72l.25 7.72v3.28c0 .65-.11 1.88-.32 3.69-.17 1.42-.25 2.63-.25 3.63v.23c-.25 1.08-.38 2.34-.38 3.8 0 1.08-.25 2.19-.76 3.34a8.27 8.27 0 0 1-2.14 2.94c-.92.92-1.97 1.38-3.15 1.38s-2.16-.35-3.09-1.04zm5.36-4.26c.5-1.27.87-2.81 1.1-4.64.54-4.26.41-2.05.6-6.19l.06-9.16c-.08-2.07-.34-4.67-.76-7.78-.34-2.65-.97-4.99-1.89-7.03-.42-.96-.95-1.71-1.57-2.25-.63-.54-1.3-.81-2.02-.81-1.05 0-1.83.75-2.33 2.25-.63 1.57-1.05 3.3-1.26 5.18l-.44 5.82-.13 4.09.22 4.54.66 5.2c.67 5.11 1.66 8.74 2.96 10.89.84 1.34 1.72 2.02 2.65 2.02.84 0 1.55-.71 2.14-2.13zm12.88 3.28c-.61-.35-.91-.83-.91-1.44.92-.84 1.39-3.09 1.39-6.74 0-2.19-.19-5.38-.57-9.56l-.63-9.45.13-3.17.06-3.17c0-1.07-.21-2.44-.63-4.09-.5-1.73-.76-2.94-.76-3.63 0-1.34 1.62-2.02 4.85-2.02h.95c2.27 0 4.24.63 5.92 1.9 1.34 1.08 2.48 2.63 3.4 4.67.63 1.38 1.18 3.3 1.64 5.76l.38 5.07v4.55c.04 1.62-.07 3.72-.6 6.13-.12.54-.55 2.56-1.73 5.21-1.89 4.22-4.01 7.22-6.36 8.99-1.39 1-2.83 1.5-4.35 1.5-.84 0-1.57-.17-2.17-.52zm7.59-6.65c1.18-1.67 2.08-3.52 2.71-5.56 1.13-3.76 1.7-7.56 1.7-11.4 0-2.07-.21-4.34-.63-6.8a14.86 14.86 0 0 0-2.96-6.45c-.71-.92-1.62-1.64-2.71-2.16s-2.33-.78-3.72-.78v.06c0 3.46.25 8.68.76 15.67.5 6.95.76 12.21.76 15.78v5.47c1.55-.88 2.92-2.16 4.1-3.83zm19.22 3.48c0-1.84-.87-8.44-2.61-19.79s-2.85-17.54-3.31-18.58c.55-.92 1.28-1.38 2.21-1.38s1.87 2 2.71 5.99c.8 4.22 1.47 9.06 2.02 14.51l.44 4.67c.25 2.61.4 3.94.44 3.97l.63-4.84.38-3 1.07-9.27c.21-2.38.32-4.01.32-4.9v-1.09c0-.42.17-.83.5-1.21.34-.38.71-.58 1.13-.58 1.51 0 2.27.58 2.27 1.73v.86c0 2.19.24 4.54.72 7.06s1.19 5.52 2.11 9.01c.59 2.04 1.17 4.51 1.76 7.43.13-1.27.52-4.34 1.2-9.22.67-4.45 1.17-8.25 1.48-11.38s.47-6.06.47-8.78c0-.88.16-1.51.47-1.87.6-.69 1.71-.56 1.8-.55.85.09 1.88.66 1.95 1.56.06.7-.51 1.22-.63 1.32 0 2.76-.23 6-.69 9.71s-1.03 7.23-1.7 10.57c-.67 3.26-1.24 6.77-1.7 10.51s-.69 7.04-.69 9.88c0 .61-.16 1.1-.47 1.47-.32.36-.79.55-1.42.55-.46 0-1.01-.79-1.64-2.36-.8-2.19-1.79-6.55-2.96-13.08l-1.13-6.74-.57-3.74-1.23 8.44a190.37 190.37 0 0 0-.79 7.57c-.29 2.8-.44 5.57-.44 8.29 0 .38-.18.75-.54 1.09-.36.35-.77.52-1.23.52-1.55 0-2.33-1.46-2.33-4.38zm32.32 4.15c-.92-.69-1.72-1.63-2.39-2.82-1.22-2.07-2.12-4.91-2.71-8.52-.42-2.5-.73-5.38-.95-8.64l-.13-9.79a72.19 72.19 0 0 1 .32-6.11c.17-1.84.59-3.67 1.26-5.47.67-1.57 1.64-2.69 2.9-3.34a5.94 5.94 0 0 1 2.27-.46c2.23 0 3.99.81 5.29 2.42a14.41 14.41 0 0 1 2.84 6.05c.67 2.69 1.05 5.26 1.13 7.72l.25 7.72-.32 6.97-.63 7.66c-.06.77-.15 1.95-.76 3.34a8.27 8.27 0 0 1-2.14 2.94c-.92.92-1.97 1.38-3.15 1.38s-2.16-.35-3.09-1.04zm5.36-4.26c.5-1.27.87-2.81 1.1-4.64l.6-6.19.13-3.86-.06-5.3c-.08-2.07-.34-4.67-.76-7.78-.34-2.65-.97-4.99-1.89-7.03-.42-.96-.95-1.71-1.57-2.25-.63-.54-1.3-.81-2.02-.81-1.05 0-1.83.75-2.33 2.25-.63 1.57-1.05 3.3-1.26 5.18l-.44 5.82-.13 4.09c0 1.96.12 3.93.88 9.73.79 6.02 1.39 8.37 2.96 10.89.84 1.34 1.72 2.02 2.65 2.02.84 0 1.55-.71 2.14-2.13zm21.16 2.7v-.17c-.13-2.03-.5-4.3-1.13-6.8s-1.55-5.51-2.77-9.04l-2.33-7.14v22.69c.02.1.16.82-.35 1.35-.56.59-1.61.65-2.31.19-.59-.38-.86-1.09-.68-1.78l.13-16.93.13-16.88v-7.08c0-.31.05-.68.31-.95.84-.88 3.14-.18 4.22.29 1.84.81 2.82 2.12 3.27 2.75 1.01 1.4 1.31 2.7 1.52 3.62.43 1.95.24 3.5.09 4.55-.19 1.43-.69 3.65-2.11 6.16l-.63 1.5c.04 1.38.3 3.13.79 5.24l1.61 5.88 2.27 6.34 1.83 5.07v.12c.04.13.3.91-.19 1.67-.08.13-.53.8-1.32.92-.89.13-1.91-.49-2.33-1.56zm-4.22-27.99c.89-2.45 1.02-4.48 1.01-5.76 0-.26 0-1.04-.17-2.05-.23-1.37-.46-2.61-1.5-3.56a4.37 4.37 0 0 0-1.23-.78l-.13 5.76-.19 5.99.06 2.65 2.14-2.25zM395 106.5c-1.13-5.88-2.27-10.79-3.4-14.75-1.13-3.95-2.56-7.68-4.28-11.17L386 82.83c-.38.65-.59 1.23-.63 1.73-.1 1.22-.22 2.15-.19 2.53.11 1.63.22 5.43.38 10.66v4.72c0 2.04-.72 3.05-2.14 3.05-1.22 0-1.83-1.07-1.83-3.23 0-1.69.13-4.28.38-7.78.29-3.23.44-5.8.44-7.72l.06-10.94c0-.57-1.42-9.61-.88-12.04.08-.36.29-1.31 1.08-1.66.3-.13.58-.13.69-.13 1.55 0 2.33 1.56 2.33 4.67l-.25 11.81 1.2-2.82 4.28-9.56c.84-1.73 1.6-3.09 2.27-4.09.71-1.04 1.28-1.56 1.7-1.56.26 0 .53.07.58.08a2.26 2.26 0 0 0 1.08.88c.8 1.24-2.75 6.81-3.29 7.67-1.2 1.91-2.69 4.68-3.91 8.35v1.04c.63 1.46 2.31 6.13 5.04 14.03 2.73 7.89 4.09 12.07 4.09 12.53a1.43 1.43 0 0 1-.12.57c-.41.86-1.75 1.03-1.9 1.04a3.24 3.24 0 0 1-1.45-.17zm25.76-.57c-.92-.69-1.72-1.63-2.39-2.82-1.22-2.07-2.12-4.91-2.71-8.52-.42-2.5-.73-5.38-.95-8.64-.18-2.77-.15-5.15-.13-9.79.03-4.17.11-8.13 1.57-11.58 0 0 1.11-2.61 2.9-3.34a5.94 5.94 0 0 1 2.27-.46c.26 0 1.63-.03 3.09.65 2.01.94 2.93 2.61 3.71 4.09.51.97.89 1.97 1.33 3.73.67 2.69 1.05 5.26 1.13 7.72.17 2.73.25 5.3.25 7.72.1 9.08-.74 15.8-1.7 17.97-.74 1.68-2.14 2.94-2.14 2.94-1.09.99-1.9 1.21-2.21 1.28-1.02.23-1.89.03-2.21-.05-.34-.08-1-.27-1.82-.88zm5.36-4.26c.5-1.27.87-2.81 1.1-4.64.54-4.26.41-2.05.6-6.19.11-2.35.18-5.45.06-9.16-.08-2.07-.34-4.67-.76-7.78-.34-2.65-.97-4.99-1.89-7.03-.42-.96-.95-1.71-1.57-2.25-.63-.54-1.3-.81-2.02-.81-1.05 0-1.83.75-2.33 2.25-.63 1.57-1.05 3.3-1.26 5.18-.25 2.04-.4 3.97-.44 5.82a60.33 60.33 0 0 0 .09 8.63c.09 1.03.3 2.42.66 5.2.67 5.11 1.66 8.74 2.96 10.89.84 1.34 1.72 2.02 2.65 2.02.84 0 1.55-.71 2.14-2.13zm21.16 2.7v-.17c-.13-2.03-.5-4.3-1.13-6.8s-1.55-5.51-2.77-9.04l-2.33-7.14v22.69c.02.1.17.82-.35 1.35-.56.59-1.63.66-2.31.19-.66-.45-.68-1.21-.68-1.31l.13-17.39.13-16.88v-7.08c0-.46.1-.78.31-.95s.65-.26 1.32-.26c1.05 0 2.02.18 2.9.55.28.12.86.38 1.49.84.24.17 1 .75 1.79 1.91.19.28 1.06 1.6 1.52 3.62.45 2.02.23 3.64.09 4.55-.19 1.28-.51 2.24-.79 3.05-.44 1.29-.93 2.34-1.32 3.11l-.63 1.5c.04 1.38.3 3.13.79 5.24l1.61 5.88 2.27 6.34 1.83 5.07v.12c.04.13.3.91-.19 1.67-.08.13-.53.8-1.32.92-.89.13-1.91-.49-2.33-1.56zm-4.22-27.99l.95-4.95c-.02-.89-.1-2.86-.63-4.67-.17-.6-.47-1.15-.98-1.76-.4-.48-.81-.74-1.23-.78l-.13 5.76-.19 5.99.06 2.65c.59-.54 1.3-1.29 2.14-2.25zm24.1 28.63c-.31-.3-.42-.68-.42-.68-.06-.22-.06-.4-.05-.47v-7.55c-.55-.35-1.57-.65-3.09-.92a36.85 36.85 0 0 0-4.28-.52l-.6 1.34c-1.06 2.75-.67 4.25-1.73 6.93-.14.35-.38.91-.76 1.58-1.6 0-2.52-.38-2.77-1.15l1.58-5.41 2.08-10.54 2.55-12.79c.78-3.53 1.61-6.49 2.49-8.87.97-2.65 1.89-3.97 2.77-3.97s1.55.15 2.02.46l1.2 11.12 1.95 20.56s.63 1.85.63 9.27c0 .51-.1 1.08-.55 1.5-.79.73-2.42.69-3.01.11zm-.53-12.21l-.63-6.28c-.97-8.68-1.45-14-1.45-15.96v-.46c-.42.38-1 2.12-1.73 5.21-.74 3.09-1.42 6.4-2.05 9.94-.63 3.53-.97 5.88-1.01 7.03 1.76.46 3.63.69 5.61.69.34 0 .76-.06 1.26-.17zm21.98 1.55c-2.94-9.25-5.48-17.76-7.62-25.52v18.89c0 1.61.17 4.36.5 8.24l.44 8.18c0 .35-.23.64-.69.89s-.99.37-1.58.37c-.88 0-1.32-.31-1.32-.92.09-.95.2-2.37.25-4.09.15-4.8-.25-8.37-.38-9.68-.33-3.3-.62-8.28-.38-15.55l.44-10.6c.1-.72.47-3.12 1.39-3.23.82-.09 1.66 1.69 2.08 2.53 1.39 2.76 3.15 7.72 5.29 14.86 1.22 4.15 2.65 9.49 4.28 16.01a418.74 418.74 0 0 0 1.01 3.97l.06.29.03-5.3.22-14.75V61.89a1.67 1.67 0 0 1 .51-.99c.67-.61 1.84-.58 2.43-.22 1.07.67.62 2.77.4 4.03-.61 3.49-.1 7.07-.19 10.6l-.19 10.71v17.57c.02.33.01 1.09-.54 1.76-.35.42-.91.84-1.29.84-.84 0-2.56-3.95-5.17-11.87zm19.91 10.6c-1.22-.92-2.33-2.5-3.34-4.72-.63-1.46-1.13-3.51-1.51-6.16-.26-1.82-.35-3.35-.44-6.11-.15-4.73-.25-8.18.13-12.79.18-2.23.41-3.95 1.01-5.99.96-3.27 2.09-4.7 2.39-5.07.63-.77 1.94-2.33 4.22-3.11.32-.11 1.46-.4 2.96-.4.99 0 1.93.12 2.4.77.3.42.38 1.07.05 1.55-.37.53-1.07.62-1.5.67-.79.09-1.43-.14-1.76-.29-.51.03-1.35.16-2.14.66-.94.6-1.32 1.44-1.57 1.93-.97 1.84-1.62 3.86-1.95 6.05-.46 2.69-.72 5.03-.76 7.03l-.13 5.47c-.05 6.25.14 8.3.25 9.33.32 2.95.87 4.36 1.39 5.76.67 1.81 1.76 3.07 3.28 3.8.71.38 1.6.58 2.65.58 1.85 0 3.4-.81 4.66-2.42-.04-1.34-.15-2.66-.32-3.95s-.42-2.16-.76-2.62l-2.46.23c-1.43 0-2.14-.56-2.14-1.67 0-.26.18-.55.63-.92 1.28-1.05 3.09-1.01 4.85-.98.31 0 .79.03 1.29.3.25.14.48.33.67.57.46.58.69 1.31.69 2.19 0 1.27.21 3 .63 5.18 0 0 .61 3.13.63 5.13 0 .08 0 .35-.14.66a1.57 1.57 0 0 1-.89.82c-.1.03-.18.05-.24.06-.51.09-1.18 0-1.71-.38a1.95 1.95 0 0 1-.67-.81v-.06l-1.39.63c-1.26.65-2.33.98-3.21.98-2.31 0-4.22-.63-5.73-1.9zm20.53.46c-.34-.1-.54-.26-.58-.3-.33-.28-.49-.72-.49-1.32l-.09-34.69a10.49 10.49 0 0 0-.28-1.71c-.29-1.19-.44-2.17-.44-2.94v-.17c.71-1.07 1.24-1.77 1.58-2.07 2.12-.49 3.71-.51 4.66-.46.56.03 1.25.14 1.95.55.63.37.95.8.95 1.3 0 1.15-.97 1.73-2.9 1.73h-2.46l.06 2.16.39 8.73a38.97 38.97 0 0 1-.14 1.96l-.13 3.23.88-.17c.84-.23 1.53-.35 2.08-.35.46 0 .88.16 1.26.49s.57.7.57 1.12c0 .46-.16.87-.47 1.24a1.47 1.47 0 0 1-1.17.55l-.76-.06h-.82c-.63 0-1.07.13-1.32.4v17.8l3.53-.17c2.39 0 3.59.5 3.59 1.5-.17.28-.58.89-1.39 1.35a4.21 4.21 0 0 1-1.95.55c-.34 0-4.88.11-6.11-.23z" class="M"/><g stroke="#eee" class="R"><path d="M166.72 190.33c-26.02 4.27-48.29 25.67-53.24 51.68-5.3 27.85 10.21 55.9 35.43 67.59 39.52 18.31 94.12-7.64 101.73-43.96 8.19-39.1-39.65-82.58-83.92-75.31zm25.93 120.44c-.21.13-.45.2-.7.2-.08 0-.15 0-.23-.02-.33-.06-.61-.22-.8-.48-.19-.25-.26-.55-.2-.85s.25-.56.52-.73.61-.24.93-.18c.33.06.61.22.8.47s.26.55.2.85-.25.56-.52.73zm25.67-14.07c-.08 0-.15 0-.23-.02-.33-.05-.61-.22-.8-.47s-.26-.55-.2-.85c.13-.62.77-1.03 1.45-.91.67.11 1.12.71 1 1.33-.11.55-.64.93-1.22.93zm3.71-31.63c-5.67 21.49-26.62 46.15-53.64 45.61-30.82-.61-54.44-33.68-51.98-62.91 2.64-31.44 35.66-60.92 66.32-55.45 30.65 5.46 46.97 43.69 39.3 72.75zm2.73-50.3c-.08 0-.15 0-.23-.02-.68-.12-1.12-.71-1-1.33s.78-1.03 1.45-.91c.68.12 1.12.71 1 1.33-.11.55-.64.93-1.22.93zm2.87 63.5c-.07 0-.15 0-.23-.02-.67-.11-1.12-.71-1-1.33.13-.62.77-1.03 1.45-.91.67.12 1.12.71 1 1.33-.11.55-.64.93-1.22.93zm5.08-31.12c-.08 0-.15 0-.23-.02-.33-.06-.61-.22-.8-.48-.19-.25-.26-.55-.2-.85s.25-.56.52-.73.61-.24.93-.18c.67.12 1.12.71.99 1.33-.11.55-.64.93-1.22.93zm7.1-17.97c-.44-.07-.73-.46-.64-.86s.5-.66.94-.59.73.46.64.86-.5.66-.94.59zm5.66 43.57c-.08 0-.15 0-.23-.02-.33-.05-.61-.22-.8-.47s-.26-.55-.2-.85.25-.56.52-.73c.28-.17.61-.24.93-.18.67.11 1.12.71.99 1.33-.11.55-.64.93-1.22.93z" class="O"/><path d="M182.73 192.32c-30.66-5.46-63.68 24.01-66.32 55.45-2.46 29.23 21.16 62.3 51.98 62.91 27.03.53 47.97-24.12 53.64-45.61 7.67-29.06-8.65-67.29-39.3-72.75zM209 220c6.65 11.9 9.32 26.68 6.74 39.7l.53.09-.2 1.05-.53-.08h-.02c-3.36 15.16-14.5 31.5-29.4 39.38l.29.63-1.08.41-.21-.46s-.01-.03-.02-.05c-6.27 3.12-13.18 4.73-20.43 4.14a36.48 36.48 0 0 1-9.61-2.13l-.06.34-.6-.6c-10.87-4.24-19.47-13.41-24.8-24.26l-.75-.82.27-.2c-4.3-9.17-6.31-19.43-5.42-28.85a64.88 64.88 0 0 1 .29-2.39l-.13-1.13.31.05c2.22-13.05 9.89-25.79 20.17-34.76.07-.19.14-.38.2-.58l.13.28c8.26-7.1 18.15-11.77 28.24-12.25l.09-.49 1.13.09-.07.38c1.96-.03 3.93.08 5.9.38 12.6 1.95 22.64 10.71 29.03 22.14h.01z" class="P"/><path d="M201.15 258.53l-10.14-1.73-22.12-3.57c-.96.05-1.65.29-2.06.73-.35.38-.1.89-.53 2.53l-.07.27 19.89 43.37c14.9-7.88 26.04-24.22 29.4-39.38l-14.32-2.31-.04.09zm-18.38 25.49c-.95.3-2.64-1.86-3.79-4.84s-1.31-5.64-.37-5.94c.95-.3 2.64 1.86 3.79 4.84s1.31 5.64.37 5.94zm-20.58-27.29h-.04c.24-1.69-.11-1.89-.11-1.89-.19-.09-.9.38-1.2.58-.31.2-.6.39-.86.48l-30.38 22.24c5.34 10.85 13.93 20.03 24.8 24.26l-.4-.4 8.19-45.27zm-9.08 29.33c-.91 3.05-2.43 5.32-3.4 5.08s-1.01-2.91-.1-5.95 2.43-5.32 3.4-5.08 1.01 2.91.1 5.95zm6.15-31.38c.16-.38.35-.84.3-1.29-.08-.68-.76-1.36-1.99-1.98L124 246c0-.04 0-.08-.01-.12l-.29 2.39c-.89 9.42 1.12 19.68 5.42 28.85L159.14 255c.04-.11.08-.22.13-.32zm20.7-56.83c-1.96-.3-3.93-.41-5.9-.38l-.02.11-8.35 46.24c.07.37.08.74 0 1.09.06.34.17.72.39 1.09.13.23.29.44.48.64.46.49 1.24 1.31 2.03 1.38l39.4-29.03.99.99c-6.39-11.42-16.43-20.19-29.03-22.14zm17.36 22.07c-2.35 2.31-4.86 3.68-5.59 3.05-.73-.62.58-3 2.94-5.31 2.35-2.31 4.86-3.68 5.59-3.05.73.62-.58 3-2.94 5.31zm-62.44 26.63c.02-5.61.96-11.19 2.8-16.57 1.88-5.5 4.62-10.55 8.13-15l-1.82-3.97.34-.96c-10.28 8.98-17.95 21.71-20.17 34.76l.22.04 10.49 1.71zm70.65-5c-.2 5.49-1.51 10.82-3.86 15.86l14.07 2.29c2.58-13.01-.1-27.8-6.74-39.7l-6.44 4.72c2.18 5.41 3.19 11.07 2.97 16.83zm-40.84 14.98c-.19-.39-.63-1.31-.88-1.38 0 0-.08.04-.21.25l-8.54 47.26c3.04 1.12 6.24 1.86 9.61 2.13 7.25.6 14.15-1.02 20.43-4.14l-19.76-43.1c-.17-.17-.38-.48-.64-1.03zm-11.37-27.92l8.65 18.1s.03.02.05.02c.05.02.09.02.12.03.27.07.48-.01.7-.06.52-.11.96-.35 1.3-.67l8.78-48.53c-10.09.48-19.98 5.15-28.24 12.25l.08.17 8.57 18.69z" class="Q"/><path d="M168.6 248.03c-.79-.07-1.58-.9-2.03-1.38-.19-.2-.35-.41-.48-.64-.21-.37-.33-.75-.39-1.09a3.07 3.07 0 0 0 0-1.09l8.35-46.24.02-.11.07-.38-1.13-.09-.09.49-8.78 48.53c-.34.32-.79.57-1.3.67-.21.04-.43.12-.7.06a.49.49 0 0 1-.12-.03c-.02 0-.03-.02-.05-.02l-8.65-18.1-8.57-18.69-.08-.17-.13-.28-.2.58-.34.96 1.82 3.97c-3.51 4.46-6.25 9.5-8.13 15-1.85 5.39-2.78 10.96-2.8 16.57l-10.49-1.71-.22-.04-.31-.05.13 1.13c0 .04 0 .08.01.12l33.57 5.41c1.23.62 1.91 1.29 1.99 1.98.05.45-.15.92-.3 1.29-.05.11-.09.22-.13.32l-30.02 22.12-.27.2.74.82 30.39-22.24c.27-.09.55-.28.86-.48.3-.2 1.01-.66 1.2-.58 0 0 .35.21.11 1.89h.04L154 302.01l.4.4.6.6.06-.34 8.54-47.26c.14-.22.22-.25.21-.25.25.07.69.99.88 1.38.26.55.47.86.64 1.03l19.76 43.1c0 .02.01.03.02.05l.21.46 1.08-.41-.29-.63-19.89-43.37c.02-.08.05-.17.07-.27.43-1.64.18-2.15.53-2.53.4-.44 1.09-.68 2.06-.73l22.12 3.57 10.14 1.73.04-.09 14.32 2.31h.02l.53.08.2-1.05-.53-.09-14.07-2.29c2.35-5.04 3.65-10.37 3.86-15.86.21-5.76-.79-11.42-2.97-16.83l6.44-4.72h-.01l-.99-1-39.4 29.03zm36.05-6.5c-.2 5.45-1.51 10.74-3.86 15.74-.06.12-.11.24-.16.36l-29.75-5.08s-.16-.08-.33-.2c-.43-.29-1.14-.92-1.3-1.98-.08-.54.01-1.01.15-1.39.01-.03.03-.06.04-.1.04-.11.09-.21.14-.3.09-.16.18-.3.25-.4a1.84 1.84 0 0 0 .33-.03l20.26-14.73c.35-.67.67-1.03.92-.99.08.01.15.08.21.17l10.24-7.45a1 1 0 0 0 .03.08c2.07 5.24 3.02 10.71 2.82 16.28zm-37.76 11.39c-.28.15-.54.32-.74.53-.44.48-.62 1.07-.69 1.65-.04.32-.06.64-.06.93-.21-.43-.42-.85-.67-1.16-.18-.22-.48-.49-.86-.51h-.04-.04c-.1 0-.18.02-.22.03-.32.09-.51.31-.58.41-.08-.23-.2-.39-.36-.52-.07-.06-.13-.12-.21-.16-.67-.28-1.43.21-2.09.65-.07.04-.14.09-.22.14.1-.24.21-.52.27-.82.06-.25.09-.51.06-.78-.06-.56-.4-1.09-.94-1.58-.14-.13-.29-.26-.47-.39a6.32 6.32 0 0 0-.69-.44c.06-.01.1-.04.15-.05.27-.08.49-.18.68-.29.02-.01.05-.02.07-.04 0 0 .02 0 .02-.01 1.06-.67 1.47-1.83 1.63-2.64.08-.41.1-.74.11-.85.04.03.12.08.21.12.15.08.34.16.59.24.04.01.09.02.13.03.13.03.25.07.4.08a3.09 3.09 0 0 0 .68 0 2.71 2.71 0 0 0 .9-.27c.77-.37 1.19-.99 1.26-1.11.02.05.05.09.08.14a3.89 3.89 0 0 0 .66.93c.58.6 1.33 1.01 2.17 1.24.09.02.17.05.26.07.19.04.38.07.58.09.07 0 .14.03.21.03a3.04 3.04 0 0 0-.44.64c-.06.12-.12.25-.16.39a2.64 2.64 0 0 0-.15.7c-.04.63.16 1.24.53 1.76.04.05.08.1.11.15.05.06.1.14.15.2-.35 0-.67.03-.97.07-.35.05-.66.14-.95.25a4.17 4.17 0 0 0-.37.17zm-20.25-4.45s-.01-.04-.02-.06l-10.87-1.86c.02-5.53.95-11.02 2.77-16.33 1.8-5.26 4.39-10.09 7.69-14.38 0-.01.02-.03.03-.04l13.65 28.57c-.02.32 0 .81.02 1.36a29.59 29.59 0 0 0 .09 1.28c.04.49.05.68 0 1-.02.15-.22 1.23-1.25 1.85a2.65 2.65 0 0 1-1.31.37h-.2l-3.68-.63-6.1-1.04-.04.04c-.17.2-.33.3-.46.28s-.24-.17-.32-.4z" class="M"/><path d="M201.81 225.16l-10.24 7.45a.52.52 0 0 0 .07.11c.51 1.14.16 5.62-.91 10.87-1.23 6.01-2.93 10.75-3.81 10.61-.88-.15-.59-5.14.64-11.15.83-4.08 1.89-7.58 2.75-9.35.05-.09.09-.18.13-.26l-20.26 14.73a4.05 4.05 0 0 0 .48-.09c.03 0 .06 0 .09-.02l-.15.06a2.81 2.81 0 0 0-1.14.77c-.01.03-.03.06-.04.1-.14.38-.23.85-.15 1.39.16 1.06.87 1.69 1.3 1.98a4.69 4.69 0 0 0 .33.2l29.75 5.08c.06-.12.11-.24.16-.36 2.36-5 3.66-10.29 3.86-15.74a39.75 39.75 0 0 0-2.82-16.28.69.69 0 0 0-.03-.08zm-54.21 12.56c1.22-5.96 2.91-10.67 3.79-10.6h.02c.23.04.37.41.45 1.03.21 1.78-.18 5.67-1.09 10.12-1.03 5.01-2.38 9.14-3.31 10.28l6.1 1.04 3.68.63h.2c.38 0 .85-.09 1.31-.37 1.03-.62 1.22-1.7 1.25-1.85.05-.32.04-.51 0-1l-.09-1.28c-.03-.55-.05-1.05-.02-1.36l-13.65-28.57s-.02.03-.03.04c-3.31 4.29-5.89 9.12-7.69 14.38-1.82 5.31-2.75 10.8-2.77 16.33l10.87 1.86c-.42-1.37-.05-5.67.97-10.68z" fill="#fff"/><path d="M187.55 243.04c-1.23 6.01-1.51 11-.64 11.15.88.15 2.58-4.6 3.81-10.61 1.07-5.25 1.43-9.73.91-10.87-.02-.04-.05-.07-.07-.11-.06-.09-.13-.16-.21-.17-.25-.04-.57.32-.92.99-.04.08-.09.17-.13.26-.87 1.78-1.92 5.27-2.75 9.35zm-40.13 5.55s.02-.03.04-.04c.93-1.14 2.29-5.27 3.31-10.28.91-4.45 1.3-8.34 1.09-10.12-.07-.62-.22-.99-.45-1.03h-.02c-.88-.07-2.57 4.64-3.79 10.6-1.03 5.01-1.39 9.31-.97 10.68 0 .02.01.04.02.06.08.23.18.38.32.4.13.02.29-.08.46-.28z" class="N"/><path d="M170.75 248.06s-.06.01-.09.02a4.05 4.05 0 0 1-.48.09l-.33.03a3.64 3.64 0 0 0-.25.4c-.05.09-.1.19-.14.3.3-.33.69-.6 1.14-.77l.15-.06zm-1.57 4.37c-.06-.06-.1-.13-.15-.2l-.11-.15c-.37-.51-.57-1.12-.53-1.76.01-.24.07-.47.15-.7.04-.13.1-.26.16-.39.12-.23.26-.45.44-.64-.07 0-.14-.02-.21-.03-.2-.02-.39-.05-.58-.09l-.26-.07c-.83-.23-1.59-.64-2.17-1.24-.29-.3-.5-.61-.66-.93-.02-.05-.06-.09-.08-.14a3.32 3.32 0 0 1-1.26 1.11c-.26.13-.56.22-.9.27a3.09 3.09 0 0 1-.68 0c-.15-.02-.27-.05-.4-.08l-.13-.03c-.25-.08-.45-.16-.59-.24l-.21-.12c0 .12-.03.44-.11.85-.16.81-.57 1.97-1.63 2.64 0 0-.02 0-.02.01-.02.01-.05.02-.07.04-.18.11-.41.21-.68.29-.05.02-.1.04-.15.05a6.32 6.32 0 0 1 .69.44c.18.13.33.26.47.39.54.5.88 1.02.94 1.58.03.27 0 .54-.06.78-.07.3-.18.59-.27.82l.22-.14c.67-.44 1.43-.94 2.08-.65.09.04.16.1.22.16.15.13.28.29.36.52.07-.1.26-.32.58-.41.04-.01.12-.03.22-.03h.04.04c.38.02.69.29.86.51.25.31.47.73.67 1.16 0-.29.02-.61.06-.93.08-.58.25-1.17.69-1.65.2-.22.46-.39.74-.53l.37-.17c.28-.11.59-.19.95-.25.3-.04.62-.07.97-.07z" class="P"/><path d="M194.67 217.65c-2.35 2.31-3.67 4.69-2.94 5.31s3.24-.74 5.59-3.05 3.67-4.69 2.94-5.31-3.24.74-5.59 3.05zm-16.05 55.59c-.95.3-.78 2.97.37 5.94 1.15 2.98 2.84 5.14 3.79 4.84s.78-2.97-.37-5.94c-1.15-2.98-2.84-5.14-3.79-4.84zm-25.61 6.87c-.97-.24-2.49 2.03-3.4 5.08s-.87 5.71.1 5.95 2.49-2.03 3.4-5.08.87-5.71-.1-5.95z" class="O"/><path d="M225.12 213.69c.04-.18-.09-.36-.3-.39h-.07c-.17 0-.33.11-.36.28-.04.18.09.36.3.39.2.03.39-.09.43-.27z" class="N"/><path d="M224.99 212.51c-.67-.12-1.33.29-1.45.91s.32 1.21 1 1.33l.23.02c.59 0 1.11-.38 1.22-.93.13-.62-.32-1.21-1-1.33zm-.59 1.06c.03-.16.19-.28.36-.28h.07c.2.03.33.21.3.39-.04.18-.23.3-.43.27s-.33-.21-.3-.39z" class="M"/><path d="M240.11 227.73c-.44-.07-.86.19-.94.59s.21.79.64.86.86-.19.94-.59-.21-.79-.64-.86zm-12.12 49.47c.04-.18-.1-.36-.3-.39-.19-.03-.39.09-.43.27s.1.36.3.39c.2.04.39-.09.43-.27z" class="N"/><path d="M227.86 276.02c-.68-.12-1.32.29-1.45.91s.32 1.21 1 1.33l.23.02c.59 0 1.11-.38 1.22-.93.13-.62-.32-1.21-1-1.33zm-.59 1.06c.04-.18.24-.3.43-.27.2.03.33.21.3.39-.04.18-.23.31-.43.27-.2-.03-.33-.21-.3-.39z" class="M"/><path d="M233.07 246.08c.04-.18-.1-.36-.3-.39h-.07c-.07 0-.15.02-.21.06-.08.05-.14.13-.15.22h0c-.02.09 0 .18.06.25s.14.12.24.14c.2.03.39-.09.43-.27z" class="N"/><path d="M232.94 244.9c-.33-.06-.66 0-.93.18s-.46.43-.52.73 0 .6.2.85c.19.25.47.42.8.48l.23.02c.59 0 1.11-.38 1.22-.93.13-.62-.32-1.21-.99-1.33zm-.59 1.06h0a.34.34 0 0 1 .15-.22.37.37 0 0 1 .21-.06h.07c.2.03.33.21.3.39-.04.18-.24.3-.43.27-.1-.02-.18-.07-.24-.14s-.08-.16-.06-.25z" class="M"/><path d="M245.84 271.68c.04-.18-.1-.36-.3-.39-.1-.02-.19 0-.28.05-.08.05-.14.13-.15.22-.02.09 0 .18.06.25s.14.12.24.14c.2.03.39-.09.43-.27z" class="N"/><path d="M245.7 270.5c-.33-.06-.66 0-.93.18-.27.17-.46.43-.52.73s0 .6.2.85c.19.25.47.42.8.47l.23.02c.59 0 1.11-.38 1.22-.93.13-.62-.32-1.21-.99-1.33zm-.59 1.06a.34.34 0 0 1 .15-.22c.08-.05.18-.07.28-.05.2.03.33.21.3.39-.04.18-.23.3-.43.27-.1-.02-.18-.07-.24-.14a.29.29 0 0 1-.06-.25z" class="M"/><path d="M218.69 295.62c.04-.18-.1-.36-.3-.39-.19-.03-.39.09-.43.27-.02.09 0 .18.06.25s.14.12.24.14c.2.04.39-.09.43-.27z" class="N"/><path d="M218.55 294.44c-.68-.12-1.32.29-1.45.91-.06.3 0 .6.2.85.19.25.47.42.8.47l.23.02c.59 0 1.11-.38 1.22-.93.13-.62-.32-1.21-1-1.33zm-.59 1.06c.04-.18.24-.3.43-.27.2.03.33.21.3.39-.04.18-.23.31-.43.27-.1-.02-.18-.07-.24-.14s-.08-.16-.06-.25z" class="M"/><path d="M192.16 310.11c.08-.05.14-.13.15-.22.02-.09 0-.18-.06-.25s-.14-.12-.24-.14h-.07c-.07 0-.15.02-.21.06-.08.05-.14.13-.15.22h0c-.02.09 0 .18.06.25s.14.12.24.14.2 0 .28-.05z" class="N"/><path d="M192.18 308.71c-.33-.06-.66 0-.93.18s-.46.43-.52.73a1.01 1.01 0 0 0 .2.85c.19.25.47.42.8.48l.23.02c.25 0 .49-.07.7-.2.27-.17.46-.43.52-.73a1.01 1.01 0 0 0-.2-.85c-.19-.25-.47-.42-.8-.47zm-.59 1.06h0a.34.34 0 0 1 .15-.22.37.37 0 0 1 .21-.06h.07c.1.02.18.07.24.14s.08.16.06.25a.34.34 0 0 1-.15.22c-.08.05-.18.07-.28.05s-.18-.07-.24-.14-.08-.16-.06-.25z" class="M"/><path d="M271.13 315.28c4.74 1.91 6.48 1.67 7.14 1 1.45-1.47-1.7-5.56-.33-6.63s5.61 2.23 6.71 1.26-2.65-4.69-1.25-7.24c.75-1.37 2.71-1.9 4.41-2.12a47.78 47.78 0 0 1-1.33-7.22l-24.87 11.25c1.73 2.54 4.8 6.29 9.52 9.69z" fill="#b3b3b3"/><path d="M270.77 315.14l.36.14c-4.73-3.41-7.8-7.16-9.52-9.69l24.87-11.25-.09-.85-26.03 11.77.25.37c2.37 3.59 7.59 9.95 16.7 14.23-3.13-1.77-5.36-3.64-6.54-4.72zm29.78 8.24s.03.04.05.06c-1.15.25-2.47.46-3.9.6l4.28-.23-.43-.43z" class="M"/><path d="M409.71 246.47l-3.18.88c4.48 5.56 7.97 11.76 10.08 18.33 8.97 27.96-6.61 64.53-36.44 70.89-26.16 5.58-52.04-14.47-62.36-34.3-13.93-26.73-6.74-66.79 21.68-77.91 18.69-7.31 41.81-.25 58.27 13.94l2.77-1.58c-12.44-10.97-28.8-17.9-45.69-17.46-38.24 1-71.53 39.6-68.44 74.22l.09.85c.26 2.43.7 4.84 1.33 7.22.03 0 .06 0 .09-.01a70.46 70.46 0 0 0 5.17 11.12c2.46 4.29 5.09 7.85 7.49 10.72.14.15.29.29.43.43 23.34 23.5 69.39 31.23 98.08 10.65 23.27-16.69 30.52-48.7 18.76-74.67-2.13-4.69-4.87-9.17-8.11-13.33zm-109.23 17.84c.13-.28.37-.5.67-.61.63-.24 1.36.04 1.62.61a1.02 1.02 0 0 1 0 .87c-.13.28-.37.5-.67.61-.15.06-.31.09-.47.09-.49 0-.95-.26-1.15-.7a1.02 1.02 0 0 1 0-.87zm-7.59 16.84a1.3 1.3 0 0 1 .95 0c.31.12.54.33.67.61.26.58-.04 1.24-.67 1.48-.15.06-.31.09-.47.09s-.32-.03-.47-.09c-.31-.12-.54-.33-.67-.61-.26-.58.04-1.24.67-1.48zm-.01 19.42c-.16 0-.32-.03-.47-.09-.31-.12-.54-.33-.67-.61-.26-.58.04-1.24.67-1.48a1.3 1.3 0 0 1 .95 0c.31.12.55.33.67.61a1.02 1.02 0 0 1 0 .87c-.13.28-.36.5-.67.61-.15.06-.31.09-.47.09zm17.36-56.83c.13-.3.39-.53.72-.65a1.46 1.46 0 0 1 1.01 0c.33.12.58.36.71.65.13.3.13.63 0 .92-.13.3-.39.53-.72.65a1.44 1.44 0 0 1-.51.09 1.44 1.44 0 0 1-.51-.09c-.33-.12-.58-.36-.72-.66a1.06 1.06 0 0 1 0-.92zm-.64 58.68c-.31-.12-.54-.33-.67-.61a1.02 1.02 0 0 1 0-.87c.13-.28.36-.5.67-.61.63-.24 1.36.04 1.62.61.26.58-.04 1.24-.67 1.48-.15.06-.31.09-.47.09s-.32-.03-.47-.09zm2.34 19.27c-.15.06-.31.09-.47.09-.49 0-.95-.26-1.15-.7-.26-.58.04-1.24.67-1.48s1.36.04 1.62.61c.26.58-.04 1.24-.67 1.48zm23.8 13.48c-.15.06-.31.09-.47.09s-.32-.03-.47-.09c-.31-.12-.54-.33-.67-.61a1.02 1.02 0 0 1 0-.87c.13-.28.36-.5.67-.61a1.3 1.3 0 0 1 .95 0c.31.12.54.33.67.61.26.58-.04 1.24-.67 1.48z" class="O"/><path d="M408.44 264.33l.2-.07.36.74-.24.09.88 2.43c2.98 9 3.32 19.35 1.19 29.08.09.04.19.09.28.13l-.51.92h0c-2.75 11.54-9.04 22.06-18.65 28.22.02.04.04.08.05.13h-.25a35.25 35.25 0 0 1-9.28 4.15c-6.92 1.94-14 1.66-20.8-.2l-.11.52-.24-.62c-16.58-4.67-31.44-18.72-38.19-33.08-.14.05-.28.1-.42.16l-.36-.81.4-.15c-10.69-23.86-3.25-58.21 20.89-66.91 1.85-.67 3.74-1.14 5.66-1.48-.05-.11-.1-.23-.14-.34l1.05-.38.16.38.06.15c9.92-1.42 20.58 1.27 30.2 6.64l.06-.3 1.1.2-.14.69c3.53 2.05 6.91 4.46 10.05 7.16l6.05-3.46c-16.46-14.2-39.58-21.25-58.27-13.94-28.43 11.12-35.61 51.18-21.68 77.91 10.33 19.82 36.21 39.88 62.36 34.3 29.83-6.36 45.41-42.93 36.44-70.89-2.11-6.57-5.61-12.76-10.08-18.33-2.8.82-5.1 1.62-6.98 2.41 3.72 4.49 6.76 9.41 8.89 14.57z" class="P"/><path d="M370.25 284.24c-.09-.2-.14-.45-.19-.74-.13-.73-.34-1.82-1.08-2.36-.75-.54-2.06-.51-3.9.11h0l-41.95 15.52c6.74 14.36 21.6 28.41 38.19 33.08l-.32-.84 9.25-44.76zm10.31 17.11c-1.79-1.66-4.07-4.26-5.62-7.92-.34-.8-.61-1.59-.84-2.36-.42-.82-.57-1.67-.6-2.64-.26-1.62-.3-3.09-.25-4.34l-.98-2.3c-.08-.05-.12-.07-.13-.07-.2.11-.42 1.08-.52 1.5-.12.52-.22.92-.41 1.15l-9.55 45.57c6.8 1.86 13.88 2.14 20.8.2 3.38-.95 6.47-2.36 9.28-4.15h-.75l-10.44-24.65zm-15.72-20.92c.39-.25.7-.57.87-.96.27-.59.15-1.13.1-1.37-.28-1.35-1.61-2.01-1.82-2.1-.02-.01-.03-.02-.04-.03L320.99 256v-1l43.36 20.08c.41.07.99.11 1.64-.08.34-.1 1.13-.33 1.59-1.03.16-.23.24-.46.28-.59.16-.45.2-.88.17-1.26-.11-.26-.18-.53-.21-.81l-1.21-2.86c-1.43-.69-2.78-1.37-3.81-2.94-1.65-2.54-1.26-5.54-.68-7.66l-12.83-30.28c-1.92.34-3.82.81-5.66 1.48-24.14 8.7-31.58 43.05-20.89 66.91h0l42.08-15.53zm-37.17-31.29c.57-.74 3.31.11 6.12 1.92 2.81 1.8 4.62 3.87 4.04 4.62-.57.74-3.31-.11-6.12-1.92-2.81-1.8-4.62-3.87-4.04-4.62zm49.77.33l3.19-15.45c-9.62-5.36-20.28-8.05-30.2-6.64l12.55 29.78 14.46-7.69zm-4.36-6.58c.45-3.11 1.61-5.53 2.6-5.41s1.42 2.74.98 5.85c-.45 3.11-1.61 5.53-2.6 5.41s-1.42-2.74-.98-5.85zm-1.83 30.43c.3 0 .59-.06.87-.14a9.12 9.12 0 0 0-.92-1.46c-.99-1.25-2.07-1.99-3.15-2.56l1.48 3.51c.46.39 1.05.65 1.73.66zm2.2 8.66l.13-.77c-.09.06-.17.14-.24.22 0 .11.01.22.03.35.03.07.06.13.08.2zm18.33-8.87l.68.27 4.49 8.59 1.66 2.85c-.05.02-.09.04-.14.07l.21.39-3.82 1.32-2.78 1.32 18.75 8.68c2.13-9.73 1.79-20.08-1.19-29.08-.27-.82-.56-1.63-.88-2.43l-17.81 6.59.84 1.43zm-4.68 17.17c-2.35 1.57-3.11 2.92-3.07 4.07.05 1.73 1.91 3.56 1 5.79-.55 1.34-1.81 2.15-2.79 2.63-.01 0-.02-.02-.03-.03l9.75 23.13c9.6-6.16 15.89-16.69 18.65-28.23l-19.71-9.16-3.79 1.8zm8.21 24.49c1.48 2.83 1.95 5.44 1.05 5.84-.9.39-2.83-1.58-4.31-4.41s-1.95-5.44-1.05-5.84c.9-.39 2.83 1.58 4.31 4.41zm13.13-50.44c-2.13-5.16-5.17-10.09-8.89-14.57-5.56 2.33-7.39 4.49-7.52 6.34-.1 1.41.62 4.57-1.38 6.13-1.34 1.05-3.34.93-4.75.69-.08-.11-.17-.21-.25-.32l4.87 8.35 17.92-6.61zm-29.86-15.07l13.12-7.5a67 67 0 0 0-10.05-7.16l-3.07 14.65z" class="Q"/><path d="M362.21 257.57l.78-.41-12.55-29.78-.06-.15-.16-.38-1.05.38.14.34 12.83 30.28.07-.28zm18.35 43.78L391 326h1s-.04-.08-.05-.13l-9.75-23.13a23.74 23.74 0 0 1-1.64-1.39zm-7.13-19.24l.02-.13c-.03-.07-.06-.13-.08-.2l.07.33zm17.51-10.43l17.81-6.59.24-.09-.36-.74-.2.07-17.92 6.61.43.73zm-.05 16.81l19.71 9.16h0l.51-.91-.28-.13-18.75-8.68-1.19.57zm-9.09-54.57l-1.1-.2-.06.3-3.19 15.45.42-.22a5.37 5.37 0 0 0 .19.32l.53-.3 3.07-14.65.14-.69z" class="M"/><path d="M371.28 274.12h-.05a3.58 3.58 0 0 1-2.4-.93c-.09.38-.23.77-.48 1.17-.6.97-1.62 1.68-2.81 1.99.53.38.93.92 1.11 1.54.22.75.1 1.53-.3 2.19.43-.08.83-.12 1.2-.12.8 0 1.45.18 1.96.55.83.59 1.13 1.56 1.3 2.36.21-.91.46-1.8 1.18-1.92.29-.05.59.04.89.28.03-.35.17-.59.4-.76.08-.06.17-.1.26-.13-.18-2.61-.38-4.63-1.09-6.4a3.6 3.6 0 0 1-1.18.19zm2.08 7.66a2.16 2.16 0 0 1-.03-.35c-.13.16-.24.35-.31.52l.36.51.05-.36a3.88 3.88 0 0 1-.07-.33z" class="P"/><path d="M371.64 283.23c.09-.42.32-1.39.52-1.5a.37.37 0 0 0 .13.07l.98 2.3.13-1.63c-.12-.19-.24-.36-.36-.51a2.55 2.55 0 0 1 .31-.52 1 1 0 0 1 .24-.22c.01-.07.02-.14.04-.2l-.05-.68c-.09.03-.18.07-.26.13-.24.17-.37.42-.4.76-.3-.24-.6-.33-.89-.28-.72.12-.97 1.01-1.18 1.92-.17-.8-.48-1.76-1.3-2.36-.51-.36-1.16-.55-1.96-.55-.37 0-.77.04-1.2.12.4-.66.52-1.44.3-2.19-.18-.62-.58-1.15-1.11-1.54 1.19-.31 2.21-1.02 2.81-1.99a3.97 3.97 0 0 0 .48-1.17c.62.56 1.47.91 2.4.93h.05c.41 0 .81-.07 1.18-.19-.1-.26-.22-.51-.35-.75a2.83 2.83 0 0 1-.87.14c-.67 0-1.27-.27-1.73-.66l-1.48-3.51-1.42-.7 1.21 2.86c.04.28.1.56.21.81.02.37-.02.81-.17 1.26-.04.12-.13.36-.28.59-.47.7-1.25.93-1.59 1.03-.65.19-1.23.15-1.64.08L321.03 255v1l42.96 19.97c.01.01.03.02.04.03.2.1 1.54.75 1.82 2.1.05.24.16.78-.1 1.37-.17.38-.48.71-.87.96l-42.08 15.53h0l-.4.15.36.81.42-.16 41.95-15.52h0c1.83-.61 3.14-.65 3.9-.11.74.53.94 1.63 1.08 2.36.05.29.11.55.19.74l-9.25 44.76.32.84.24.62.11-.52 9.55-45.57c.19-.23.29-.62.41-1.15z" class="M"/><path d="M331.71 253.75c2.81 1.8 5.55 2.66 6.12 1.92s-1.24-2.81-4.04-4.62c-2.81-1.8-5.55-2.66-6.12-1.92s1.24 2.81 4.04 4.62zm60.35 62.44c1.48 2.83 3.41 4.81 4.31 4.41.9-.39.43-3.01-1.05-5.84s-3.41-4.81-4.31-4.41c-.9.39-.43 3.01 1.05 5.84zm-18-67.45c.99.12 2.15-2.31 2.6-5.41.45-3.11.01-5.73-.98-5.85s-2.15 2.3-2.6 5.41-.01 5.73.98 5.85z" class="O"/><path d="M311.56 244.45c.07-.03.12-.07.15-.14.03-.06.03-.13 0-.2-.03-.06-.08-.11-.15-.14a.36.36 0 0 0-.11-.02c-.04 0-.07 0-.11.02-.07.03-.12.07-.15.14-.03.06-.03.13 0 .2.03.06.08.11.15.14s.14.03.21 0z" class="N"/><path d="M310.95 245.33a1.44 1.44 0 0 0 .51.09 1.48 1.48 0 0 0 .51-.09c.33-.12.58-.36.72-.65a1.06 1.06 0 0 0 0-.92 1.26 1.26 0 0 0-.71-.65 1.46 1.46 0 0 0-1.01 0c-.33.12-.58.36-.72.65a1.06 1.06 0 0 0 0 .92c.13.3.39.53.72.66zm.25-1.02c-.03-.06-.03-.13 0-.2.03-.06.08-.11.15-.14a.36.36 0 0 1 .11-.02c.04 0 .07 0 .11.02.07.03.12.07.15.14.03.06.03.13 0 .2-.03.06-.08.11-.15.14s-.15.03-.21 0c-.07-.03-.12-.07-.15-.14z" class="M"/><path d="M301.28 264.88c.08.17.29.25.48.18s.27-.27.2-.44c-.06-.13-.19-.21-.34-.21-.05 0-.09 0-.14.02-.09.03-.16.1-.2.18s-.04.17 0 .25z" class="N"/><path d="M301.62 265.88c.16 0 .32-.03.47-.09.31-.12.54-.33.67-.61a1.02 1.02 0 0 0 0-.87c-.26-.58-.99-.85-1.62-.61-.31.12-.54.33-.67.61a1.02 1.02 0 0 0 0 .87c.2.44.66.7 1.15.7zm0-1.47c.14 0 .28.08.34.21.08.17-.01.36-.2.44-.18.07-.4-.01-.48-.18-.04-.08-.04-.17 0-.25s.11-.15.2-.18c.05-.02.09-.02.14-.02z" class="M"/><path d="M292.74 299.75c.09.03.19.03.28 0s.16-.1.2-.18.04-.17 0-.25-.11-.15-.2-.18a.32.32 0 0 0-.14-.03c-.05 0-.09 0-.14.03-.19.07-.27.26-.2.43.04.08.11.15.2.18z" class="N"/><path d="M293.35 300.49c.31-.12.54-.33.67-.61a1.02 1.02 0 0 0 0-.87c-.13-.28-.37-.5-.67-.61a1.35 1.35 0 0 0-.95 0c-.63.24-.93.9-.67 1.48.13.28.36.5.67.61.15.06.31.09.47.09s.32-.03.47-.09zm-.61-1.35s.09-.03.14-.03.09 0 .14.03c.09.03.16.1.2.18s.04.17 0 .25-.11.15-.2.18-.19.03-.28 0-.16-.1-.2-.18c-.08-.17.01-.36.2-.43z" class="M"/><path d="M310.41 301.26c-.06-.13-.19-.21-.34-.21-.05 0-.09 0-.14.02-.09.03-.16.1-.2.18s-.04.17 0 .25.11.15.2.18.19.03.28 0c.18-.07.27-.26.2-.43z" class="N"/><path d="M311.22 300.95c-.26-.58-.99-.85-1.62-.61-.31.12-.54.33-.67.61a1.02 1.02 0 0 0 0 .87c.13.28.36.5.67.61.15.06.31.09.47.09s.32-.03.47-.09c.63-.24.93-.9.67-1.48zm-1.01.74c-.09.03-.19.03-.28 0s-.16-.1-.2-.18-.04-.17 0-.25.11-.15.2-.18c.05-.02.09-.02.14-.02.14 0 .28.08.34.21.08.17-.01.36-.2.43z" class="M"/><path d="M311.8 320.52c-.06-.13-.19-.21-.34-.21-.05 0-.09 0-.14.03-.19.07-.27.27-.2.44.08.17.29.25.48.18s.27-.27.2-.44z" class="N"/><path d="M310.98 319.6c-.63.24-.93.9-.67 1.48.2.44.66.7 1.15.7.16 0 .32-.03.47-.09.63-.24.93-.9.67-1.48s-.99-.85-1.62-.61zm.61 1.35c-.19.07-.4-.01-.48-.18s.01-.36.2-.44c.05-.02.09-.03.14-.03.14 0 .28.08.34.21.08.17-.01.36-.2.44z" class="M"/><path d="M335.6 334c-.04-.08-.11-.15-.2-.18a.32.32 0 0 0-.14-.03c-.05 0-.09 0-.14.03-.09.03-.16.1-.2.18s-.04.17 0 .25.11.15.2.18.19.03.28 0c.19-.07.27-.26.2-.43z" class="N"/><path d="M335.74 333.08a1.3 1.3 0 0 0-.95 0c-.31.12-.54.33-.67.61a1.02 1.02 0 0 0 0 .87c.13.28.36.5.67.61.15.06.31.09.47.09s.32-.03.47-.09c.63-.24.93-.9.67-1.48-.13-.28-.36-.5-.67-.61zm-.34 1.35c-.09.03-.19.03-.28 0s-.16-.1-.2-.18-.04-.17 0-.25.11-.15.2-.18a.32.32 0 0 1 .14-.03c.05 0 .09 0 .14.03.09.03.16.1.2.18.08.17-.01.36-.2.43z" class="M"/><path d="M293.03 282.33c.08.17.29.25.48.18s.27-.26.2-.43c-.04-.08-.11-.15-.2-.18a.32.32 0 0 0-.14-.03c-.05 0-.09 0-.14.03-.09.03-.16.1-.2.18s-.04.17 0 .25z" class="N"/><path d="M292.89 283.25c.15.06.31.09.47.09s.32-.03.47-.09c.63-.24.93-.9.67-1.48-.13-.28-.36-.5-.67-.61a1.3 1.3 0 0 0-.95 0c-.63.24-.93.9-.67 1.48.13.28.36.5.67.61zm.47-1.38s.09 0 .14.03c.09.03.16.1.2.18.08.17-.01.36-.2.43s-.4-.01-.48-.18c-.04-.08-.04-.17 0-.25s.11-.15.2-.18a.32.32 0 0 1 .14-.03z" class="M"/><path d="M391.7 241.76l-13.12 7.5-.53.3 7.6 13.03.25.32c1.41.24 3.41.36 4.75-.69 2-1.56 1.27-4.72 1.38-6.13.14-1.86 1.96-4.01 7.52-6.34 1.87-.78 4.18-1.59 6.98-2.41l3.18-.88c4.07-1.06 9-2.15 14.99-3.24l-7.62-15.96-16.55 9.46-2.77 1.58-6.05 3.46z" fill="#4d4d4d"/><path d="M300.6 323.45s-.03-.04-.05-.06c-2.4-2.87-5.03-6.43-7.49-10.72-2.32-4.05-3.97-7.84-5.17-11.12-.03 0-.06 0-.09.01-1.7.22-3.66.75-4.41 2.12-1.4 2.55 2.34 6.26 1.25 7.24-1.1.98-5.33-2.33-6.71-1.26-1.37 1.07 1.78 5.16.33 6.63-.66.67-2.4.9-7.14-1-.12-.05-.23-.09-.36-.14 1.18 1.08 3.41 2.95 6.54 4.72 3.48 1.96 8.08 3.79 13.67 4.23 2.07.17 3.99.12 5.72-.05 1.44-.14 2.75-.35 3.9-.6z" fill="#8c1b2f"/><path d="M398.61 284.83l-1.66-2.85 1.53 2.92c.05-.02.09-.04.14-.07zm-24.51 6.25a21.54 21.54 0 0 1-.6-2.64c.03.97.18 1.82.6 2.64zm13-.8l3.79-1.8 1.19-.57 2.78-1.32c-3.6 1.33-6.08 2.56-7.76 3.68zm-9.66-40.81l-14.46 7.69-.78.41c-.03.09-.05.19-.07.28-.58 2.12-.97 5.12.68 7.66 1.02 1.57 2.37 2.26 3.81 2.94l1.42.7c1.08.58 2.16 1.31 3.15 2.56.37.47.67.96.92 1.46l.35.75c.71 1.77.91 3.79 1.09 6.4l.05.68c3.07 4.51 4.76 5.36 5.75 5.11 2.19-.55 1.56-6.53 4.42-7.31 1.76-.48 3.43 1.45 4.21.88 1.22-.9-2.66-5.84-1.25-7.24.53-.53 1.89-.59 5.04.67l-.84-1.43-.43-.73-4.87-8.35-7.6-13.03a5.37 5.37 0 0 0-.19-.32l-.42.22z" fill="#b3b3b3"/><path d="M373.45 281.98l-.02.13-.05.36-.13 1.63c-.05 1.25-.01 2.72.25 4.34a20.2 20.2 0 0 0 .6 2.64 23.19 23.19 0 0 0 .84 2.36c1.55 3.66 3.83 6.25 5.62 7.92l1.64 1.39c.01 0 .02.02.03.03.98-.48 2.25-1.29 2.79-2.63.91-2.23-.95-4.06-1-5.79-.03-1.14.73-2.5 3.07-4.07 1.67-1.12 4.16-2.34 7.76-3.68l3.82-1.32-.21-.39-1.53-2.92-4.49-8.59-.68-.27c-3.15-1.26-4.51-1.19-5.04-.67-1.41 1.4 2.47 6.34 1.25 7.24-.78.57-2.45-1.36-4.21-.88-2.85.78-2.23 6.76-4.42 7.31-.99.25-2.68-.6-5.75-5.11l-.04.2-.13.77z" fill="#8c1b2f"/></g><defs ><path id="B" d="M527.88 199.62a.29.29 0 0 0-.05.24c.02.08.07.15.15.2s.17.06.26.05c.09-.02.17-.07.22-.14h0c.1-.14.06-.34-.1-.44a.32.32 0 0 0-.19-.05.37.37 0 0 0-.29.14z"/><path id="C" d="M527.49 200.72c.2.12.43.18.67.18.08 0 .16 0 .25-.02a1.21 1.21 0 0 0 .77-.48c.37-.51.21-1.21-.35-1.54-.56-.34-1.32-.2-1.69.32-.18.25-.24.55-.18.84s.25.54.52.71zm.96-.76h0c-.05.07-.13.12-.22.14s-.18 0-.26-.05-.13-.12-.15-.2 0-.17.05-.24a.37.37 0 0 1 .29-.14.45.45 0 0 1 .19.05c.16.1.2.29.1.44z"/></defs></svg>