<?xml version="1.0" encoding="UTF-8"?><svg xmlns="http://www.w3.org/2000/svg" width="700" height="400" viewBox="0 0 700 400"><defs><style>.cls-1{fill:#fff;}.cls-2{fill:#794f03;}.cls-3{fill:#4d4d4d;}.cls-4{fill:#8c1b2f;}.cls-5{fill:#f28705;}.cls-6{fill:#ce411b;}.cls-7{fill:#2e2e2e;}.cls-8{fill:#b3b3b3;}.cls-9{fill:#eee;}.cls-10{fill:#794303;}.cls-11{fill:#facf9b;}</style></defs><g id="Layer_2"><rect class="cls-7" width="700" height="400"/></g><g id="Layer_3"><g><path class="cls-5" d="M580.41,197.97c-23.54-32.87-94.23-33.54-118.29-.38-22.92,31.58,.28,88.59,42.09,97.74,27.14,5.94,56.06-9.61,70.92-29.84,13.74-18.72,19.75-47.33,5.29-67.52Zm-34.3-19.32c.37-.51,1.13-.66,1.69-.32,.27,.16,.46,.41,.52,.71,.07,.29,0,.59-.18,.84-.18,.25-.45,.42-.77,.48-.08,.02-.17,.02-.25,.02-.24,0-.47-.06-.67-.18-.56-.34-.72-1.03-.35-1.54Zm-20.96-.47c.37-.51,1.13-.66,1.69-.32,.56,.34,.72,1.03,.35,1.54-.18,.25-.45,.42-.77,.48-.08,.02-.17,.02-.25,.02-.24,0-.47-.06-.67-.18-.27-.16-.46-.41-.52-.71-.07-.29,0-.59,.18-.84Zm-27.63,.36c.37-.51,1.13-.66,1.69-.32,.56,.34,.72,1.03,.35,1.54-.18,.25-.45,.42-.77,.48-.08,.02-.17,.02-.25,.02-.24,0-.47-.06-.67-.18-.27-.16-.46-.41-.52-.71-.07-.29,0-.59,.18-.84Zm-12.04,17.84c.18-.25,.45-.42,.77-.48,.32-.06,.64,0,.92,.16,.27,.16,.46,.42,.52,.71,.07,.29,0,.59-.18,.84h0c-.23,.32-.62,.5-1.02,.5-.23,0-.46-.06-.67-.18-.27-.16-.46-.41-.52-.71-.07-.29,0-.59,.18-.84Zm-21.81,37.33c-.18,.25-.45,.42-.77,.48-.08,.01-.16,.02-.25,.02-.24,0-.47-.06-.67-.19-.56-.34-.72-1.03-.35-1.54,.18-.25,.45-.42,.77-.48,.32-.06,.65,0,.92,.16,.27,.16,.46,.41,.52,.71,.06,.29,0,.59-.18,.84Zm1.1-25.68c-.18,.25-.45,.42-.77,.48-.08,.02-.16,.02-.25,.02-.24,0-.47-.06-.67-.18-.56-.34-.72-1.03-.35-1.54,.37-.51,1.13-.66,1.69-.32,.27,.16,.46,.42,.52,.71,.06,.29,0,.59-.18,.84Zm4.62,51.14c-.2,.28-.5,.47-.86,.53-.09,.02-.18,.03-.28,.03-.08,0-.16,0-.25-.02h0c-.18-.03-.34-.09-.49-.18-.3-.18-.51-.46-.58-.79-.07-.33,0-.66,.2-.93,.2-.28,.51-.47,.86-.53,.35-.07,.71,0,1.02,.18,.62,.38,.79,1.15,.38,1.71Zm99.45,8.52c-19.8,21.89-60.6,30.41-82.53,11.88-19.23-16.25-15.69-46.32-3.83-64.79,16.04-24.98,55.55-41.59,80.93-26.54,25.39,15.05,26.73,55.91,5.43,79.45Z"/><path class="cls-11" d="M563.41,188.25c-25.38-15.04-64.89,1.57-80.93,26.54-11.86,18.47-15.4,48.54,3.83,64.79,21.93,18.53,62.73,10.01,82.53-11.88,21.29-23.55,19.96-64.4-5.43-79.45Zm-.01,75.32c-4.63,5.22-10.68,9.8-17.43,13.35,0,.03,.02,.06,.03,.09-.33,.33-.67,.67-1,1-.05-.17-.11-.34-.16-.51-12.35,6.22-26.83,8.98-39.18,5.96,0,0,0,0,0,0,0,0,0,0,0,0-4.49-1.1-8.69-2.95-12.41-5.69-5.48-4.03-9.1-9.39-11.18-15.41-.19,.08-.38,.15-.58,.23l-.48-1.03,.52-.21,.18-.07c-3.47-11.11-1.86-24.28,2.97-35.51l-.27-.08c.19-.23,.39-.46,.58-.69,0,0,.02,0,.02,0,1.6-3.57,3.51-6.94,5.7-9.96,6.49-8.96,16.49-16.51,27.45-21.22,.28-.28,.55-.55,.83-.83l.13,.41c14.45-5.96,30.43-6.94,42.14,.39,10.08,6.3,15.18,17.61,15.85,29.96l.33-.13c-.1,.31-.2,.61-.3,.92,.52,13.6-4.29,28.35-13.75,39.01Z"/><path class="cls-6" d="M544.62,237.74c-1.86,.73-3.73,1.47-5.59,2.2,0,.02-.02,.04-.02,.05-.04,.13-.17,.56,0,1,.03,.08,.07,.15,.11,.21,2,.6,4.01,1.2,6.01,1.8-.57-1.4-.71-3.29-.51-5.27Z"/><path class="cls-6" d="M524.79,236.92l3.37,1.01c.2-.08,.41-.17,.66-.27,.83-.34,1.05-.44,1.26-.67,.17-.18,.27-.36,.38-.57,.22-.41,.47-1.1,.52-2.05-.22-.69-.44-1.37-.66-2.06-1.63,1.8-3.55,3.43-5.53,4.6Z"/><path class="cls-6" d="M530.18,244.8c.06-.38,.11-.75,.17-1.13-.44,.06-.84,.11-1.2,.16-15.69,6.18-31.39,12.35-47.08,18.53,2.08,6.01,5.7,11.37,11.18,15.41,3.72,2.74,7.92,4.59,12.41,5.69-.22-.15-.43-.3-.65-.45l25.18-38.2Z"/><path class="cls-6" d="M533,244c-.4-.1-.76-.05-1,0l-.07,.07c-8.76,13.13-17.52,26.26-26.27,39.38,12.35,3.02,26.84,.25,39.18-5.96-3.5-10.89-7-21.77-10.5-32.66-.51-.42-.82-.71-1.34-.83Zm-14.83,29.36c-1.61,2.68-3.6,4.51-4.45,4.09-.85-.43-.24-2.95,1.37-5.63,1.61-2.68,3.6-4.51,4.45-4.09,.85,.43,.24,2.95-1.37,5.63Z"/><path class="cls-6" d="M577,225c-6.09,2.4-12.18,4.79-18.26,7.19,.35,2.61,.47,4.09,.35,4.78-.59,3.39-4.27,6.65-7.71,7.92,6.61,1.98,13.22,3.96,19.83,5.94l-.39,1.06-21.42-6.5c-.9,.11-1.72,.04-2.4-.25-.42-.18-.78-.46-1.08-.8l-7.77-2.36s-.1,0-.15,.02c-.25,.04-.83,.13-1.36,.45-.19,.16-.4,.33-.64,.55-.34,.45-.46,1.04-.4,1.66,3.46,10.75,6.91,21.51,10.37,32.26,6.75-3.55,12.8-8.13,17.43-13.35,9.46-10.66,14.27-25.41,13.75-39.01l-.15,.45Zm-30.31,35.93c-.89,.35-2.69-1.64-4.01-4.45s-1.67-5.37-.78-5.72c.89-.35,2.69,1.64,4.01,4.45,1.32,2.81,1.67,5.37,.78,5.72Z"/><path class="cls-6" d="M537.49,241.84s-.03-.02-.05-.03c0,0-.01,.01-.02,.02,.02,0,.05,0,.07,.01Z"/><path class="cls-6" d="M533.82,212.42c3.37,1.78,2.88,10.06-.59,15.99-.55,.93-1.21,1.87-1.96,2.79,.35,1.07,.69,2.15,1.04,3.22,.81,1.03,1.71,1.66,2.39,1.62,.28-.02,.61-.1,.61-.1,.37-.09,.68-.24,.96-.39,8.91-13.52,17.82-27.04,26.73-40.56,.33,.33,.67,.67,1,1-9.01,13.5-18.02,27.01-27.03,40.51-.09,.29-.12,.58-.08,.88,.06,.5,.29,.86,.4,1,.14,.19,.34,.46,.71,.6,.08,.03,.15,.04,.23,.06l6.56-2.58c.3-1.76,.86-3.54,1.62-5.07,2.52-5.09,8.11-9.19,10.34-8.15,.55,.26,.82,.79,1.5,5.41,.13,.87,.24,1.66,.34,2.38l18.54-7.29c-.66-12.34-5.76-23.65-15.85-29.96-11.72-7.33-27.69-6.35-42.14-.39,2.2,6.85,4.4,13.7,6.6,20.54,6.74-2.08,7.64-1.78,8.09-1.54Zm-.89-13.91c.06-3.06,.89-5.52,1.86-5.51,.97,.02,1.71,2.51,1.65,5.57-.06,3.06-.89,5.53-1.86,5.51s-1.71-2.51-1.65-5.57Z"/><path class="cls-6" d="M515.39,217.81c1.09-.93,3.8-1.81,9.14-3.48l-6.54-20.33,.17-.17c-10.96,4.71-20.96,12.26-27.45,21.22-2.19,3.02-4.1,6.39-5.7,9.96,9.26,2.77,18.52,5.55,27.78,8.32-1.87-5.02-1.25-12.22,2.59-15.52Z"/><path class="cls-6" d="M527.64,243.08c.57-.5,1.42-1.24,1.49-2.08,.05-.66-.4-1.39-1.34-2.16l-4.2-1.27c-2.27,1.11-4.53,1.53-6.43,.83-1.67-.61-2.98-2.07-3.89-3.96l-28.58-8.67c-4.83,11.23-6.44,24.39-2.97,35.51l45.66-17.96c.08-.08,.17-.16,.26-.24Z"/><path class="cls-9" d="M570.83,251.9l.39-1.06c-6.61-1.98-13.22-3.96-19.83-5.94-.68,.25-1.35,.43-1.98,.51l21.42,6.5Z"/><path class="cls-9" d="M512.8,233.33c-9.26-2.77-18.52-5.55-27.78-8.32,0,0-.02,0-.02,0-.19,.23-.39,.46-.58,.69l.27,.08,28.58,8.67c-.17-.36-.33-.73-.47-1.11Z"/><path class="cls-9" d="M524.54,214.33c.19-.06,.38-.12,.58-.18,.22-.07,.41-.13,.62-.19-2.2-6.85-4.4-13.7-6.6-20.54l-.13-.41c-.28,.28-.55,.55-.83,.83l-.17,.17,6.54,20.33Z"/><path class="cls-9" d="M558.74,232.19c6.09-2.4,12.18-4.79,18.26-7.19l.15-.45c.1-.31,.2-.61,.3-.92l-.33,.13-18.54,7.29c.06,.4,.11,.78,.16,1.13Z"/><path class="cls-11" d="M537.42,241.82s.01-.01,.02-.02c-.26-.18-.44-.47-.44-.8,0-.55,.45-1,1-1-.31-.13-.96-.46-1.44-1.16-.13-.19-.44-.65-.53-1.32-.04-.32-.03-.64,.03-.95-.38,.14-.8,.24-1.28,.28-1.18,.1-2.36-.28-3.29-.97-.05,.6-.3,1.18-.75,1.65-.54,.57-1.29,.9-2.08,.97,.95,.87,1.4,1.72,1.34,2.56-.07,.92-.73,1.66-1.33,2.22,.91-.34,1.81-.62,2.3-.16,.21,.19,.29,.45,.25,.8,.06-.08,.73-.97,1.78-.92,.68,.03,1.31,.46,1.68,1.1,.03,0,.07-.02,.1-.03-.01-.32,.03-.69,.22-1.07,.32-.64,.85-.93,1-1,.53-.26,1.04-.25,1.42-.18Z"/><path class="cls-11" d="M536,243c.24-.22,.44-.4,.64-.55-.23,.14-.46,.31-.64,.55Z"/><path class="cls-11" d="M531.36,244.64l-.36,.36c.11,.04,.21-.14,.36-.36Z"/><path class="cls-9" d="M536,243c.18-.24,.4-.41,.64-.55,.53-.31,1.12-.41,1.36-.45,.05,0,.1,0,.15-.02l7.77,2.36c-.32-.37-.59-.81-.79-1.33-2-.6-4.01-1.2-6.01-1.8-.04-.07-.08-.14-.11-.21-.17-.44-.04-.87,0-1,0-.02,.02-.04,.02-.05,1.86-.73,3.73-1.47,5.59-2.2,.04-.42,.1-.84,.17-1.27l-6.56,2.58c-.08-.01-.15-.03-.23-.06-.37-.14-.57-.41-.71-.6-.11-.14-.33-.5-.4-1-.04-.3,0-.6,.08-.88,9.01-13.5,18.02-27.01,27.03-40.51-.33-.33-.67-.67-1-1-8.91,13.52-17.82,27.04-26.73,40.56-.28,.16-.59,.3-.96,.39,0,0-.32,.08-.61,.1-.68,.04-1.58-.6-2.39-1.62-.35-1.07-.69-2.15-1.04-3.22-.31,.38-.63,.75-.96,1.12,.22,.69,.44,1.37,.66,2.06-.05,.95-.31,1.63-.52,2.05-.11,.2-.2,.39-.38,.57-.21,.22-.43,.33-1.26,.67-.24,.1-.45,.19-.66,.27l-3.37-1.01c-.4,.24-.8,.45-1.2,.65l4.2,1.27c.93,.77,1.39,1.49,1.34,2.16-.06,.84-.92,1.58-1.49,2.08-.1,.08-.18,.16-.26,.24l-45.66,17.96-.18,.07-.52,.21,.48,1.03c.19-.08,.38-.15,.58-.23,15.69-6.18,31.39-12.35,47.08-18.53,.36-.05,.76-.11,1.2-.16-.06,.38-.11,.75-.17,1.13l-25.18,38.2c.22,.15,.43,.3,.65,.45,0,0,0,0,0,0,0,0,0,0,0,0,8.76-13.13,17.52-26.26,26.27-39.38l.07-.07c.24-.05,.6-.1,1,0,.52,.12,.83,.41,1.34,.83,3.5,10.89,7,21.77,10.5,32.66,.05,.17,.11,.34,.16,.51,.33-.33,.67-.67,1-1,0-.03-.02-.06-.03-.09-3.46-10.75-6.91-21.51-10.37-32.26-.06-.62,.06-1.21,.4-1.66Zm-5,2l.36-.36c-.15,.22-.24,.39-.36,.36Zm4-2c-.19,.38-.23,.75-.22,1.07-.03,0-.07,.02-.1,.03-.37-.64-1-1.06-1.68-1.1-1.05-.05-1.72,.84-1.78,.92,.04-.35-.04-.61-.25-.8-.5-.46-1.4-.17-2.3,.16,.6-.56,1.26-1.31,1.33-2.22,.06-.84-.39-1.7-1.34-2.56,.79-.07,1.54-.41,2.08-.97,.45-.47,.7-1.05,.75-1.65,.93,.7,2.11,1.07,3.29,.97,.47-.04,.9-.14,1.28-.28-.06,.31-.07,.63-.03,.95,.09,.67,.4,1.13,.53,1.32,.49,.7,1.13,1.03,1.44,1.16-.55,0-1,.45-1,1,0,.34,.18,.62,.44,.8,.02,.01,.03,.02,.05,.03-.02,0-.04,0-.07-.01-.38-.07-.89-.08-1.42,.18-.15,.07-.68,.36-1,1Z"/><path class="cls-5" d="M534.59,204.08c.97,.02,1.81-2.45,1.86-5.51,.06-3.06-.68-5.55-1.65-5.57-.97-.02-1.81,2.45-1.86,5.51-.06,3.06,.68,5.55,1.65,5.57Z"/><path class="cls-5" d="M541.9,250.76c-.89,.35-.54,2.91,.78,5.72s3.12,4.8,4.01,4.45c.89-.35,.54-2.91-.78-5.72-1.32-2.81-3.12-4.8-4.01-4.45Z"/><path class="cls-5" d="M515.09,271.81c-1.61,2.68-2.22,5.2-1.37,5.63,.85,.43,2.84-1.4,4.45-4.09,1.61-2.68,2.22-5.2,1.37-5.63-.85-.43-2.84,1.4-4.45,4.09Z"/><path class="cls-10" d="M526.23,179.1c.09-.02,.17-.07,.22-.14h0c.1-.14,.06-.34-.1-.44-.06-.04-.12-.05-.19-.05-.11,0-.22,.05-.29,.14-.05,.07-.07,.15-.05,.24,.02,.08,.07,.15,.15,.2,.08,.05,.17,.06,.26,.05Z"/><path class="cls-9" d="M525.49,179.72c.2,.12,.43,.18,.67,.18,.08,0,.16,0,.25-.02,.32-.06,.59-.23,.77-.48,.37-.51,.21-1.21-.35-1.54-.56-.34-1.32-.2-1.69,.32-.18,.25-.24,.55-.18,.84,.06,.29,.25,.54,.52,.71Zm.38-1.1c.07-.09,.18-.14,.29-.14,.06,0,.13,.02,.19,.05,.16,.1,.2,.29,.1,.44h0c-.05,.07-.13,.12-.22,.14-.09,.02-.18,0-.26-.05-.08-.05-.13-.12-.15-.2-.02-.08,0-.17,.05-.24Z"/><path class="cls-10" d="M498.6,179.47c.09-.02,.17-.07,.22-.14h0c.1-.14,.06-.34-.1-.44-.06-.04-.12-.05-.19-.05-.11,0-.22,.05-.29,.14-.05,.07-.07,.15-.05,.24,.02,.08,.07,.15,.15,.2,.08,.05,.17,.06,.26,.05Z"/><path class="cls-9" d="M497.86,180.09c.2,.12,.43,.18,.67,.18,.08,0,.16,0,.25-.02,.32-.06,.59-.23,.77-.48,.37-.51,.21-1.21-.35-1.54-.56-.34-1.32-.2-1.69,.32-.18,.25-.24,.55-.18,.84,.06,.29,.25,.54,.52,.71Zm.38-1.1c.07-.09,.18-.14,.29-.14,.06,0,.13,.02,.19,.05,.16,.1,.2,.29,.1,.44h0c-.05,.07-.13,.12-.22,.14-.09,.02-.18,0-.26-.05-.08-.05-.13-.12-.15-.2-.02-.08,0-.17,.05-.24Z"/><path class="cls-10" d="M486.78,197.17c.11-.15,.06-.34-.1-.44-.06-.04-.12-.05-.19-.05-.11,0-.22,.05-.29,.14-.05,.07-.07,.15-.05,.24,.02,.08,.07,.15,.15,.2,.16,.1,.37,.05,.48-.09Z"/><path class="cls-9" d="M485.83,197.93c.21,.12,.44,.18,.67,.18,.4,0,.79-.18,1.02-.5h0c.18-.25,.24-.55,.18-.84-.06-.29-.25-.54-.52-.71-.27-.16-.6-.22-.92-.16-.32,.06-.59,.23-.77,.48-.18,.25-.24,.55-.18,.84,.07,.29,.25,.54,.52,.71Zm.38-1.1c.07-.09,.18-.14,.29-.14,.06,0,.13,.02,.19,.05,.16,.1,.2,.29,.1,.44-.1,.14-.32,.18-.48,.09-.08-.05-.13-.12-.15-.2-.02-.08,0-.17,.05-.24Z"/><path class="cls-10" d="M463.76,207.11c-.11,0-.22,.05-.29,.14-.05,.07-.07,.15-.05,.24,.02,.08,.07,.15,.15,.2,.08,.05,.17,.06,.26,.05,.09-.02,.17-.07,.22-.14h0c.05-.07,.07-.15,.05-.24-.02-.08-.07-.15-.15-.2-.06-.04-.12-.05-.19-.05Z"/><path class="cls-9" d="M464.43,206.5c-.56-.34-1.32-.19-1.69,.32-.37,.51-.21,1.21,.35,1.54,.2,.12,.43,.18,.67,.18,.08,0,.16,0,.25-.02,.32-.06,.59-.23,.77-.48,.18-.25,.24-.55,.18-.84-.07-.29-.25-.54-.52-.71Zm-.38,1.1h0c-.05,.07-.13,.12-.22,.14-.09,.01-.18,0-.26-.05-.08-.05-.13-.12-.15-.2-.02-.08,0-.17,.05-.24,.07-.09,.18-.14,.29-.14,.06,0,.13,.02,.19,.05,.08,.05,.13,.12,.15,.2,.02,.08,0,.17-.05,.24Z"/><path class="cls-10" d="M462.65,232.79s-.05,0-.07,0c-.09,.02-.17,.06-.22,.14-.1,.14-.06,.34,.1,.44,.08,.05,.17,.06,.26,.05,.09-.02,.17-.06,.22-.14h0c.05-.07,.07-.15,.05-.24-.02-.08-.07-.15-.15-.2-.06-.03-.12-.05-.19-.05Z"/><path class="cls-9" d="M463.32,232.17c-.27-.16-.59-.22-.92-.16-.32,.06-.59,.23-.77,.48-.37,.51-.21,1.21,.35,1.54,.2,.12,.43,.19,.67,.19,.08,0,.16,0,.25-.02,.32-.06,.59-.23,.77-.48,.18-.25,.24-.55,.18-.84-.07-.29-.25-.54-.52-.71Zm-.38,1.1h0c-.05,.07-.13,.12-.22,.14-.09,.02-.18,0-.26-.05-.16-.1-.2-.29-.1-.44,.05-.07,.13-.12,.22-.14,.02,0,.05,0,.07,0,.07,0,.13,.02,.19,.05,.08,.05,.13,.12,.15,.2,.02,.08,0,.17-.05,.24Z"/><path class="cls-10" d="M468.38,258.21s-.04-.01-.05-.02l-.02,.11s-.03,0-.04,0c-.07,0-.14,.03-.18,.09-.03,.04-.04,.09-.03,.15,.01,.05,.04,.09,.09,.12,.04,.03,.1,.04,.16,.03,.05-.01,.1-.04,.13-.08,.06-.09,.04-.21-.06-.26v-.12Z"/><path class="cls-9" d="M469.01,257.46c-.3-.18-.67-.25-1.02-.18-.36,.07-.66,.26-.86,.53-.2,.28-.27,.61-.2,.93,.07,.32,.28,.6,.58,.79,.15,.09,.32,.15,.49,.18h0c.08,.01,.16,.02,.25,.02,.09,0,.18,0,.28-.03,.36-.07,.66-.26,.86-.53,.41-.57,.24-1.34-.38-1.71Zm-.57,1.14s-.08,.07-.13,.08c-.06,0-.12,0-.16-.03-.05-.03-.08-.07-.09-.12-.01-.05,0-.1,.03-.15,.04-.05,.11-.09,.18-.09,.01,0,.03,0,.04,0l.02-.11s.04,0,.05,.02v.12c.09,.06,.12,.18,.06,.26Z"/><path class="cls-10" d="M547.19,179.58c.09-.02,.17-.06,.22-.13h0c.05-.07,.07-.15,.05-.24-.02-.08-.07-.15-.15-.2-.06-.04-.12-.05-.19-.05-.11,0-.22,.05-.29,.14-.1,.14-.06,.34,.1,.44,.08,.05,.17,.06,.26,.05Z"/><path class="cls-9" d="M546.45,180.2c.2,.12,.43,.18,.67,.18,.08,0,.16,0,.25-.02,.32-.06,.59-.23,.77-.48,.18-.25,.24-.55,.18-.84-.06-.29-.25-.54-.52-.71-.56-.34-1.32-.2-1.69,.32-.37,.51-.21,1.21,.35,1.54Zm.38-1.1c.07-.09,.18-.14,.29-.14,.06,0,.13,.02,.19,.05,.08,.05,.13,.12,.15,.2,.02,.08,0,.17-.05,.24h0c-.05,.07-.13,.12-.22,.14s-.18,0-.26-.05c-.16-.1-.2-.29-.1-.44Z"/><path class="cls-1" d="M533.82,212.42c-.45-.24-1.35-.54-8.09,1.54-.21,.06-.4,.12-.62,.19-.2,.06-.39,.12-.58,.18-5.34,1.67-8.06,2.55-9.14,3.48-3.84,3.3-4.46,10.49-2.59,15.52,.14,.38,.3,.76,.47,1.11,.91,1.89,2.22,3.35,3.89,3.96,1.9,.7,4.17,.28,6.43-.83,.4-.2,.8-.41,1.2-.65,1.98-1.17,3.89-2.8,5.53-4.6,.33-.37,.65-.74,.96-1.12,.74-.92,1.41-1.86,1.96-2.79,3.47-5.93,3.95-14.21,.59-15.99Zm-6.81,19.6c-.84,1.6-2.47,2.48-3.64,1.97-1.17-.51-1.43-2.23-.59-3.83,.84-1.6,2.47-2.48,3.64-1.97,1.17,.51,1.43,2.23,.59,3.83Z"/><path class="cls-2" d="M526.42,228.19c-1.17-.51-2.8,.37-3.64,1.97-.84,1.6-.57,3.31,.59,3.83,1.17,.51,2.8-.37,3.64-1.97,.84-1.6,.57-3.31-.59-3.83Z"/><path class="cls-1" d="M558.24,228.67c-.68-4.62-.95-5.15-1.5-5.41-2.23-1.04-7.82,3.06-10.34,8.15-.76,1.53-1.31,3.31-1.62,5.07-.07,.42-.13,.85-.17,1.27-.2,1.98-.06,3.87,.51,5.27,.21,.51,.47,.96,.79,1.33,.31,.35,.67,.62,1.08,.8,.68,.3,1.51,.37,2.4,.25,.63-.08,1.3-.26,1.98-.51,3.43-1.27,7.12-4.53,7.71-7.92,.12-.7,0-2.17-.35-4.78-.05-.36-.1-.73-.16-1.13-.1-.72-.21-1.51-.34-2.38Zm-8.03,10.35c-.65,1.25-1.81,1.98-2.59,1.64-.78-.34-.88-1.63-.23-2.87,.65-1.25,1.81-1.98,2.59-1.64,.78,.34,.88,1.63,.23,2.87Z"/><path class="cls-2" d="M549.98,236.15c-.78-.34-1.94,.39-2.59,1.64-.65,1.25-.55,2.53,.23,2.87,.78,.34,1.94-.39,2.59-1.64s.55-2.53-.23-2.87Z"/></g><g><path class="cls-5" d="M166.72,164.33c-26.02,4.27-48.29,25.67-53.24,51.68-5.3,27.85,10.21,55.9,35.43,67.59,39.52,18.31,94.12-7.64,101.73-43.96,8.19-39.1-39.65-82.58-83.92-75.31Zm25.93,120.44c-.21,.13-.45,.2-.7,.2-.08,0-.15,0-.23-.02-.33-.06-.61-.22-.8-.48-.19-.25-.26-.55-.2-.85,.06-.3,.25-.56,.52-.73s.61-.24,.93-.18c.33,.06,.61,.22,.8,.47,.19,.25,.26,.55,.2,.85-.06,.3-.25,.56-.52,.73Zm25.67-14.07c-.08,0-.15,0-.23-.02-.33-.05-.61-.22-.8-.47-.19-.25-.26-.55-.2-.85,.13-.62,.77-1.03,1.45-.91,.67,.11,1.12,.71,1,1.33-.11,.55-.64,.93-1.22,.93Zm3.71-31.63c-5.67,21.49-26.62,46.15-53.64,45.61-30.82-.61-54.44-33.68-51.98-62.91,2.64-31.44,35.66-60.92,66.32-55.45,30.65,5.46,46.97,43.69,39.3,72.75Zm2.73-50.3c-.08,0-.15,0-.23-.02-.68-.12-1.12-.71-1-1.33s.78-1.03,1.45-.91c.68,.12,1.12,.71,1,1.33-.11,.55-.64,.93-1.22,.93Zm2.87,63.5c-.07,0-.15,0-.23-.02-.67-.11-1.12-.71-1-1.33,.13-.62,.77-1.03,1.45-.91,.67,.12,1.12,.71,1,1.33-.11,.55-.64,.93-1.22,.93Zm5.08-31.12c-.08,0-.15,0-.23-.02-.33-.06-.61-.22-.8-.48-.19-.25-.26-.55-.2-.85,.06-.3,.25-.56,.52-.73s.61-.24,.93-.18c.67,.12,1.12,.71,.99,1.33-.11,.55-.64,.93-1.22,.93Zm7.1-17.97c-.44-.07-.73-.46-.64-.86s.5-.66,.94-.59c.44,.07,.73,.46,.64,.86s-.5,.66-.94,.59Zm5.66,43.57c-.08,0-.15,0-.23-.02-.33-.05-.61-.22-.8-.47-.19-.25-.26-.55-.2-.85,.06-.3,.25-.56,.52-.73,.28-.17,.61-.24,.93-.18,.67,.11,1.12,.71,.99,1.33-.11,.55-.64,.93-1.22,.93Z"/><path class="cls-11" d="M182.73,166.32c-30.66-5.46-63.68,24.01-66.32,55.45-2.46,29.23,21.16,62.3,51.98,62.91,27.03,.53,47.97-24.12,53.64-45.61,7.67-29.06-8.65-67.29-39.3-72.75Zm26.27,27.68s0,0,0,0c6.65,11.9,9.32,26.68,6.74,39.7l.53,.09-.2,1.05-.53-.08s-.02,0-.02,0c-3.36,15.16-14.5,31.5-29.4,39.38l.29,.63-1.08,.41-.21-.46s-.01-.03-.02-.05c-6.27,3.12-13.18,4.73-20.43,4.14-3.36-.28-6.57-1.01-9.61-2.13-.02,.11-.04,.22-.06,.34-.2-.2-.4-.4-.6-.6-10.87-4.24-19.47-13.41-24.8-24.26,0,0,0,0-.01,0l-.74-.82,.27-.2c-4.3-9.17-6.31-19.43-5.42-28.85,.08-.8,.18-1.59,.29-2.39-.04-.38-.09-.75-.13-1.13l.31,.05c2.22-13.05,9.89-25.79,20.17-34.76,.07-.19,.14-.38,.2-.58l.13,.28c8.26-7.1,18.15-11.77,28.24-12.25,.03-.16,.06-.33,.09-.49,.38,.03,.76,.06,1.13,.09l-.07,.38c1.96-.03,3.93,.08,5.9,.38,12.6,1.95,22.64,10.71,29.03,22.14h.01Z"/><path class="cls-6" d="M201.15,232.53l-10.14-1.73-22.12-3.57c-.96,.05-1.65,.29-2.06,.73-.35,.38-.1,.89-.53,2.53-.03,.1-.05,.18-.07,.27l19.89,43.37c14.9-7.88,26.04-24.22,29.4-39.38-4.77-.77-9.55-1.54-14.32-2.31l-.04,.09Zm-18.38,25.49c-.95,.3-2.64-1.86-3.79-4.84-1.15-2.98-1.31-5.64-.37-5.94,.95-.3,2.64,1.86,3.79,4.84,1.15,2.98,1.31,5.64,.37,5.94Z"/><path class="cls-6" d="M162.19,230.73h-.04c.24-1.69-.11-1.89-.11-1.89-.19-.09-.9,.38-1.2,.58-.31,.2-.6,.39-.86,.48-10.13,7.41-20.25,14.83-30.38,22.24,5.34,10.85,13.93,20.03,24.8,24.26l-.4-.4c2.73-15.09,5.46-30.18,8.19-45.27Zm-9.08,29.33c-.91,3.05-2.43,5.32-3.4,5.08s-1.01-2.91-.1-5.95,2.43-5.32,3.4-5.08,1.01,2.91,.1,5.95Z"/><path class="cls-6" d="M159.26,228.68c.16-.38,.35-.84,.3-1.29-.08-.68-.76-1.36-1.99-1.98-11.19-1.8-22.38-3.61-33.57-5.41,0-.04,0-.08-.01-.12-.12,.8-.22,1.59-.29,2.39-.89,9.42,1.12,19.68,5.42,28.85,10.01-7.37,20.01-14.75,30.02-22.12,.04-.11,.08-.22,.13-.32Z"/><path class="cls-6" d="M179.96,171.85c-1.96-.3-3.93-.41-5.9-.38l-.02,.11c-2.78,15.41-5.57,30.83-8.35,46.24,.07,.37,.08,.74,0,1.09,.06,.34,.17,.72,.39,1.09,.13,.23,.29,.44,.48,.64,.46,.49,1.24,1.31,2.03,1.38,13.13-9.68,26.27-19.35,39.4-29.03,.33,.33,.66,.66,.99,.99-6.39-11.42-16.43-20.19-29.03-22.14Zm17.36,22.07c-2.35,2.31-4.86,3.68-5.59,3.05-.73-.62,.58-3,2.94-5.31,2.35-2.31,4.86-3.68,5.59-3.05,.73,.62-.58,3-2.94,5.31Z"/><path class="cls-6" d="M134.88,220.55c.02-5.61,.96-11.19,2.8-16.57,1.88-5.5,4.62-10.55,8.13-15l-1.82-3.97c.11-.32,.23-.64,.34-.96-10.28,8.98-17.95,21.71-20.17,34.76l.22,.04,10.49,1.71Z"/><path class="cls-6" d="M205.53,215.55c-.2,5.49-1.51,10.82-3.86,15.86l14.07,2.29c2.58-13.01-.1-27.8-6.74-39.7-2.15,1.57-4.29,3.14-6.44,4.72,2.18,5.41,3.19,11.07,2.97,16.83Z"/><path class="cls-6" d="M164.69,230.53c-.19-.39-.63-1.31-.88-1.38,0,0-.08,.04-.21,.25-2.85,15.75-5.69,31.51-8.54,47.26,3.04,1.12,6.24,1.86,9.61,2.13,7.25,.6,14.15-1.02,20.43-4.14-6.59-14.37-13.17-28.74-19.76-43.1-.17-.17-.38-.48-.64-1.03Z"/><path class="cls-6" d="M153.32,202.61l8.65,18.1s.03,.02,.05,.02c.05,.02,.09,.02,.12,.03,.27,.07,.48-.01,.7-.06,.52-.11,.96-.35,1.3-.67,2.93-16.18,5.85-32.36,8.78-48.53-10.09,.48-19.98,5.15-28.24,12.25l.08,.17,8.57,18.69Z"/><path class="cls-9" d="M168.6,222.03c-.79-.07-1.58-.9-2.03-1.38-.19-.2-.35-.41-.48-.64-.21-.37-.33-.75-.39-1.09,.07-.35,.06-.72,0-1.09,2.78-15.41,5.57-30.83,8.35-46.24l.02-.11,.07-.38c-.38-.03-.76-.06-1.13-.09-.03,.16-.06,.33-.09,.49-2.93,16.18-5.85,32.36-8.78,48.53-.34,.32-.79,.57-1.3,.67-.21,.04-.43,.12-.7,.06-.02,0-.06-.01-.12-.03-.02,0-.03-.02-.05-.02l-8.65-18.1-8.57-18.69-.08-.17-.13-.28c-.07,.19-.14,.38-.2,.58-.11,.32-.23,.64-.34,.96l1.82,3.97c-3.51,4.46-6.25,9.5-8.13,15-1.85,5.39-2.78,10.96-2.8,16.57l-10.49-1.71-.22-.04-.31-.05c.04,.38,.09,.75,.13,1.13,0,.04,0,.08,.01,.12,11.19,1.8,22.38,3.61,33.57,5.41,1.23,.62,1.91,1.29,1.99,1.98,.05,.45-.15,.92-.3,1.29-.05,.11-.09,.22-.13,.32-10.01,7.37-20.01,14.75-30.02,22.12l-.27,.2,.74,.82s0,0,.01,0c10.13-7.41,20.25-14.83,30.38-22.24,.27-.09,.55-.28,.86-.48,.3-.2,1.01-.66,1.2-.58,0,0,.35,.21,.11,1.89h.04c-2.73,15.1-5.46,30.19-8.19,45.28l.4,.4c.2,.2,.4,.4,.6,.6,.02-.11,.04-.22,.06-.34,2.85-15.75,5.69-31.51,8.54-47.26,.14-.22,.22-.25,.21-.25,.25,.07,.69,.99,.88,1.38,.26,.55,.47,.86,.64,1.03,6.59,14.37,13.17,28.74,19.76,43.1,0,.02,.01,.03,.02,.05l.21,.46,1.08-.41-.29-.63-19.89-43.37c.02-.08,.05-.17,.07-.27,.43-1.64,.18-2.15,.53-2.53,.4-.44,1.09-.68,2.06-.73l22.12,3.57,10.14,1.73,.04-.09c4.77,.77,9.55,1.54,14.32,2.31,0,0,.02,0,.02,0l.53,.08,.2-1.05-.53-.09-14.07-2.29c2.35-5.04,3.65-10.37,3.86-15.86,.21-5.76-.79-11.42-2.97-16.83,2.15-1.57,4.29-3.14,6.44-4.72,0,0,0,0,0,0h-.01c-.33-.34-.66-.67-.99-1-13.13,9.68-26.27,19.35-39.4,29.03Zm-11.16,2.19c-.07,0-.14,0-.2,0l-3.68-.63-6.1-1.04s-.03,.03-.04,.04c-.17,.2-.33,.3-.46,.28-.13-.02-.24-.17-.32-.4,0-.02-.01-.04-.02-.06l-10.87-1.86c.02-5.53,.95-11.02,2.77-16.33,1.8-5.26,4.39-10.09,7.69-14.38,0-.01,.02-.03,.03-.04l13.65,28.57c-.02,.32,0,.81,.02,1.36,.02,.41,.05,.85,.09,1.28,.04,.49,.05,.68,0,1-.02,.15-.22,1.23-1.25,1.85-.47,.28-.93,.36-1.31,.37Zm10.77,2.28c-.35,.05-.66,.14-.95,.25-.13,.05-.25,.11-.37,.17-.28,.15-.54,.32-.74,.53-.44,.48-.62,1.07-.69,1.65-.04,.32-.06,.64-.06,.93-.21-.43-.42-.85-.67-1.16-.18-.22-.48-.49-.86-.51-.02,0-.03,0-.04,0-.01,0-.02,0-.04,0-.1,0-.18,.02-.22,.03-.32,.09-.51,.31-.58,.41-.08-.23-.2-.39-.36-.52-.07-.06-.13-.12-.21-.16,0,0,0,0-.01,0-.66-.28-1.42,.21-2.08,.65-.07,.04-.14,.09-.22,.14,.1-.24,.21-.52,.27-.82,.06-.25,.09-.51,.06-.78-.06-.56-.4-1.09-.94-1.58-.14-.13-.29-.26-.47-.39-.21-.15-.43-.3-.69-.44,.06-.01,.1-.04,.15-.05,.27-.08,.49-.18,.68-.29,.02-.01,.05-.02,.07-.04,0,0,.02,0,.02-.01,1.06-.67,1.47-1.83,1.63-2.64,.08-.41,.1-.74,.11-.85,.04,.03,.12,.08,.21,.12,.15,.08,.34,.16,.59,.24,.04,.01,.09,.02,.13,.03,.13,.03,.25,.07,.4,.08,.21,.02,.44,.03,.68,0,.34-.04,.64-.14,.9-.27,.77-.37,1.19-.99,1.26-1.11,.02,.05,.05,.09,.08,.14,.16,.31,.37,.63,.66,.93,.58,.6,1.33,1.01,2.17,1.24,.09,.02,.17,.05,.26,.07,.19,.04,.38,.07,.58,.09,.07,0,.14,.03,.21,.03-.18,.2-.32,.41-.44,.64-.06,.12-.12,.25-.16,.39-.08,.22-.13,.45-.15,.7-.04,.63,.16,1.24,.53,1.76,.04,.05,.08,.1,.11,.15,.05,.06,.1,.14,.15,.2-.35,0-.67,.03-.97,.07Zm36.45-10.97c-.2,5.45-1.51,10.74-3.86,15.74-.06,.12-.11,.24-.16,.36l-29.75-5.08s-.16-.08-.33-.2c-.43-.29-1.14-.92-1.3-1.98-.08-.54,.01-1.01,.15-1.39,.01-.03,.03-.06,.04-.1,.04-.11,.09-.21,.14-.3,.09-.16,.18-.3,.25-.4,.11,0,.22-.01,.33-.03l20.26-14.73c.35-.67,.67-1.03,.92-.99,.08,.01,.15,.08,.21,.17l10.24-7.45s.02,.06,.03,.08c2.07,5.24,3.02,10.71,2.82,16.28Z"/><path class="cls-1" d="M201.81,199.16l-10.24,7.45s.05,.06,.07,.11c.51,1.14,.16,5.62-.91,10.87-1.23,6.01-2.93,10.75-3.81,10.61-.88-.15-.59-5.14,.64-11.15,.83-4.08,1.89-7.58,2.75-9.35,.05-.09,.09-.18,.13-.26l-20.26,14.73c.16-.02,.32-.05,.48-.09,.03,0,.06,0,.09-.02-.05,.02-.1,.04-.15,.06-.46,.17-.85,.44-1.14,.77-.01,.03-.03,.06-.04,.1-.14,.38-.23,.85-.15,1.39,.16,1.06,.87,1.69,1.3,1.98,.17,.11,.29,.18,.33,.2l29.75,5.08c.06-.12,.11-.24,.16-.36,2.36-5,3.66-10.29,3.86-15.74,.21-5.57-.74-11.05-2.82-16.28-.01-.03-.02-.06-.03-.08Z"/><path class="cls-1" d="M160,222c.05-.32,.04-.51,0-1-.03-.43-.06-.87-.09-1.28-.03-.55-.05-1.05-.02-1.36l-13.65-28.57s-.02,.03-.03,.04c-3.31,4.29-5.89,9.12-7.69,14.38-1.82,5.31-2.75,10.8-2.77,16.33l10.87,1.86c-.42-1.37-.05-5.67,.97-10.68,1.22-5.96,2.91-10.67,3.79-10.6,0,0,.01,0,.02,0,.23,.04,.37,.41,.45,1.03,.21,1.78-.18,5.67-1.09,10.12-1.03,5.01-2.38,9.14-3.31,10.28l6.1,1.04,3.68,.63c.07,0,.13,0,.2,0,.38,0,.85-.09,1.31-.37,1.03-.62,1.22-1.7,1.25-1.85Z"/><path class="cls-10" d="M187.55,217.04c-1.23,6.01-1.51,11-.64,11.15,.88,.15,2.58-4.6,3.81-10.61,1.07-5.25,1.43-9.73,.91-10.87-.02-.04-.05-.07-.07-.11-.06-.09-.13-.16-.21-.17-.25-.04-.57,.32-.92,.99-.04,.08-.09,.17-.13,.26-.87,1.78-1.92,5.27-2.75,9.35Z"/><path class="cls-10" d="M151.86,202.15c-.07-.62-.22-.99-.45-1.03,0,0-.01,0-.02,0-.88-.07-2.57,4.64-3.79,10.6-1.03,5.01-1.39,9.31-.97,10.68,0,.02,.01,.04,.02,.06,.08,.23,.18,.38,.32,.4,.13,.02,.29-.08,.46-.28,.01-.01,.02-.03,.04-.04,.93-1.14,2.29-5.27,3.31-10.28,.91-4.45,1.3-8.34,1.09-10.12Z"/><path class="cls-11" d="M170.75,222.06s-.06,.01-.09,.02c-.16,.04-.32,.07-.48,.09-.11,.01-.22,.02-.33,.03-.07,.1-.16,.23-.25,.4-.05,.09-.1,.19-.14,.3,.3-.33,.69-.6,1.14-.77,.05-.02,.1-.04,.15-.06Z"/><path class="cls-11" d="M168.91,226.08c-.37-.51-.57-1.12-.53-1.76,.01-.24,.07-.47,.15-.7,.04-.13,.1-.26,.16-.39,.12-.23,.26-.45,.44-.64-.07,0-.14-.02-.21-.03-.2-.02-.39-.05-.58-.09-.09-.02-.17-.04-.26-.07-.83-.23-1.59-.64-2.17-1.24-.29-.3-.5-.61-.66-.93-.02-.05-.06-.09-.08-.14-.08,.12-.49,.73-1.26,1.11-.26,.13-.56,.22-.9,.27-.24,.03-.47,.02-.68,0-.15-.02-.27-.05-.4-.08-.04-.01-.09-.02-.13-.03-.25-.08-.45-.16-.59-.24-.09-.05-.17-.1-.21-.12,0,.12-.03,.44-.11,.85-.16,.81-.57,1.97-1.63,2.64,0,0-.02,0-.02,.01-.02,.01-.05,.02-.07,.04-.18,.11-.41,.21-.68,.29-.05,.02-.1,.04-.15,.05,.26,.14,.48,.29,.69,.44,.18,.13,.33,.26,.47,.39,.54,.5,.88,1.02,.94,1.58,.03,.27,0,.54-.06,.78-.07,.3-.18,.59-.27,.82,.08-.05,.15-.1,.22-.14,.67-.44,1.43-.94,2.08-.65,0,0,0,0,.01,0,.08,.04,.15,.1,.21,.16,.15,.13,.28,.29,.36,.52,.07-.1,.26-.32,.58-.41,.04-.01,.12-.03,.22-.03,.01,0,.02,0,.04,0,.02,0,.03,0,.04,0,.38,.02,.69,.29,.86,.51,.25,.31,.47,.73,.67,1.16,0-.29,.02-.61,.06-.93,.08-.58,.25-1.17,.69-1.65,.2-.22,.46-.39,.74-.53,.12-.06,.24-.12,.37-.17,.28-.11,.59-.19,.95-.25,.3-.04,.62-.07,.97-.07-.06-.06-.1-.13-.15-.2-.04-.05-.08-.1-.11-.15Z"/><path class="cls-5" d="M194.67,191.65c-2.35,2.31-3.67,4.69-2.94,5.31,.73,.62,3.24-.74,5.59-3.05,2.35-2.31,3.67-4.69,2.94-5.31-.73-.62-3.24,.74-5.59,3.05Z"/><path class="cls-5" d="M178.62,247.24c-.95,.3-.78,2.97,.37,5.94,1.15,2.98,2.84,5.14,3.79,4.84,.95-.3,.78-2.97-.37-5.94-1.15-2.98-2.84-5.14-3.79-4.84Z"/><path class="cls-5" d="M153.01,254.11c-.97-.24-2.49,2.03-3.4,5.08s-.87,5.71,.1,5.95,2.49-2.03,3.4-5.08,.87-5.71-.1-5.95Z"/><path class="cls-10" d="M224.83,187.3s-.04,0-.07,0c-.17,0-.33,.11-.36,.28-.04,.18,.09,.36,.3,.39,.2,.03,.39-.09,.43-.27,.04-.18-.09-.36-.3-.39Z"/><path class="cls-9" d="M224.99,186.51c-.67-.12-1.33,.29-1.45,.91s.32,1.21,1,1.33c.08,.01,.15,.02,.23,.02,.59,0,1.11-.38,1.22-.93,.13-.62-.32-1.21-1-1.33Zm-.3,1.45c-.2-.03-.33-.21-.3-.39,.03-.16,.19-.28,.36-.28,.02,0,.04,0,.07,0,.2,.03,.33,.21,.3,.39-.04,.18-.23,.3-.43,.27Z"/><path class="cls-10" d="M240.11,201.73c-.44-.07-.86,.19-.94,.59s.21,.79,.64,.86,.86-.19,.94-.59-.21-.79-.64-.86Z"/><path class="cls-10" d="M227.69,250.8c-.19-.03-.39,.09-.43,.27-.04,.18,.1,.36,.3,.39,.2,.04,.39-.09,.43-.27,.04-.18-.1-.36-.3-.39Z"/><path class="cls-9" d="M227.86,250.02c-.68-.12-1.32,.29-1.45,.91-.13,.62,.32,1.21,1,1.33,.08,.01,.15,.02,.23,.02,.59,0,1.11-.38,1.22-.93,.13-.62-.32-1.21-1-1.33Zm-.3,1.45c-.2-.03-.33-.21-.3-.39,.04-.18,.24-.3,.43-.27,.2,.03,.33,.21,.3,.39-.04,.18-.23,.31-.43,.27Z"/><path class="cls-10" d="M232.78,219.68s-.05,0-.07,0c-.07,0-.15,.02-.21,.06-.08,.05-.14,.13-.15,.22h0c-.02,.09,0,.18,.06,.25,.06,.07,.14,.12,.24,.14,.2,.03,.39-.09,.43-.27,.04-.18-.1-.36-.3-.39Z"/><path class="cls-9" d="M232.94,218.9c-.33-.06-.66,0-.93,.18s-.46,.43-.52,.73c-.06,.3,0,.6,.2,.85,.19,.25,.47,.42,.8,.48,.08,.01,.15,.02,.23,.02,.59,0,1.11-.38,1.22-.93,.13-.62-.32-1.21-.99-1.33Zm-.3,1.45c-.1-.02-.18-.07-.24-.14-.06-.07-.08-.16-.06-.25h0c.02-.09,.07-.17,.15-.22,.06-.04,.13-.06,.21-.06,.02,0,.05,0,.07,0,.2,.03,.33,.21,.3,.39-.04,.18-.24,.3-.43,.27Z"/><path class="cls-10" d="M245.54,245.28c-.1-.02-.19,0-.28,.05-.08,.05-.14,.13-.15,.22-.02,.09,0,.18,.06,.25,.06,.07,.14,.12,.24,.14,.2,.03,.39-.09,.43-.27,.04-.18-.1-.36-.3-.39Z"/><path class="cls-9" d="M245.7,244.5c-.33-.06-.66,0-.93,.18-.27,.17-.46,.43-.52,.73-.06,.3,0,.6,.2,.85,.19,.25,.47,.42,.8,.47,.08,.01,.15,.02,.23,.02,.59,0,1.11-.38,1.22-.93,.13-.62-.32-1.21-.99-1.33Zm-.3,1.45c-.1-.02-.18-.07-.24-.14-.06-.08-.08-.16-.06-.25,.02-.09,.07-.17,.15-.22,.08-.05,.18-.07,.28-.05,.2,.03,.33,.21,.3,.39-.04,.18-.23,.3-.43,.27Z"/><path class="cls-10" d="M218.39,269.23c-.19-.03-.39,.09-.43,.27-.02,.09,0,.18,.06,.25s.14,.12,.24,.14c.2,.04,.39-.09,.43-.27,.04-.18-.1-.36-.3-.39Z"/><path class="cls-9" d="M218.55,268.44c-.68-.12-1.32,.29-1.45,.91-.06,.3,0,.6,.2,.85,.19,.25,.47,.42,.8,.47,.08,.01,.15,.02,.23,.02,.59,0,1.11-.38,1.22-.93,.13-.62-.32-1.21-1-1.33Zm-.3,1.45c-.1-.02-.18-.07-.24-.14s-.08-.16-.06-.25c.04-.18,.24-.3,.43-.27,.2,.03,.33,.21,.3,.39-.04,.18-.23,.31-.43,.27Z"/><path class="cls-10" d="M192.02,283.5s-.05,0-.07,0c-.07,0-.15,.02-.21,.06-.08,.05-.14,.13-.15,.22h0c-.02,.09,0,.18,.06,.25,.06,.07,.14,.12,.24,.14,.1,.02,.2,0,.28-.05,.08-.05,.14-.13,.15-.22,.02-.09,0-.18-.06-.25-.06-.07-.14-.12-.24-.14Z"/><path class="cls-9" d="M192.18,282.71c-.33-.06-.66,0-.93,.18s-.46,.43-.52,.73c-.06,.3,0,.6,.2,.85,.19,.25,.47,.42,.8,.48,.08,.01,.16,.02,.23,.02,.25,0,.49-.07,.7-.2,.27-.17,.46-.43,.52-.73,.06-.3,0-.6-.2-.85-.19-.25-.47-.42-.8-.47Zm-.02,1.4c-.08,.05-.18,.07-.28,.05-.1-.02-.18-.07-.24-.14-.06-.07-.08-.16-.06-.25h0c.02-.09,.07-.17,.15-.22,.06-.04,.13-.06,.21-.06,.02,0,.05,0,.07,0,.1,.02,.18,.07,.24,.14,.06,.07,.08,.16,.06,.25-.02,.09-.07,.17-.15,.22Z"/></g><g><path class="cls-8" d="M256.72,311.68c5.44,2.19,7.44,1.91,8.2,1.15,1.66-1.68-1.95-6.38-.38-7.61,1.58-1.23,6.44,2.56,7.7,1.44,1.26-1.12-3.04-5.38-1.43-8.31,.86-1.57,3.11-2.18,5.06-2.43-.73-2.73-1.23-5.49-1.53-8.28l-28.55,12.91c1.98,2.91,5.51,7.22,10.93,11.13Z"/><path class="cls-9" d="M256.72,311.68c-5.43-3.91-8.95-8.21-10.93-11.13l28.55-12.91c-.03-.33-.07-.65-.1-.98l-29.88,13.51,.28,.43c2.72,4.12,8.71,11.42,19.17,16.33-3.6-2.03-6.15-4.18-7.5-5.42,.14,.06,.27,.11,.41,.16Z"/><path class="cls-9" d="M290.55,321.05c-1.32,.28-2.83,.53-4.48,.69,1.77-.01,3.42-.11,4.91-.26-.16-.17-.33-.33-.49-.5,.02,.02,.04,.05,.06,.07Z"/><path class="cls-5" d="M415.79,232.7c-1.29,.34-2.51,.67-3.65,1.01,5.14,6.38,9.15,13.5,11.57,21.04,10.3,32.09-7.59,74.07-41.83,81.37-30.03,6.4-59.73-16.61-71.59-39.37-15.98-30.68-7.74-76.66,24.89-89.43,21.45-8.39,47.99-.29,66.88,16,1.06-.61,2.12-1.21,3.18-1.82-14.28-12.59-33.06-20.55-52.45-20.04-43.89,1.15-82.11,45.45-78.57,85.19,.03,.33,.07,.65,.1,.98,.3,2.79,.8,5.56,1.53,8.28,.03,0,.07-.01,.1-.01,1.37,3.77,3.26,8.12,5.93,12.77,2.82,4.92,5.84,9.02,8.6,12.31,.16,.17,.33,.33,.49,.5,26.8,26.97,79.66,35.84,112.58,12.23,26.71-19.16,35.03-55.9,21.54-85.71-2.44-5.39-5.59-10.53-9.31-15.3Zm-132.79,61.3c-.15,.32-.42,.57-.77,.7-.18,.07-.36,.1-.54,.1s-.37-.03-.54-.1c-.35-.13-.62-.38-.77-.7-.3-.66,.05-1.42,.77-1.7,.35-.13,.74-.13,1.09,0,.35,.13,.63,.38,.77,.7,.15,.32,.15,.67,0,1Zm-.21-19.09c-.18,.07-.36,.1-.54,.1s-.37-.03-.54-.1c-.35-.13-.62-.38-.77-.7-.3-.66,.05-1.42,.77-1.7,.35-.13,.74-.13,1.09,0,.35,.13,.62,.38,.77,.7,.3,.66-.05,1.42-.77,1.7Zm10.25-20.73c-.15,.32-.42,.57-.77,.7-.18,.07-.36,.1-.54,.1-.56,0-1.09-.3-1.32-.8-.15-.32-.15-.67,0-1,.15-.32,.42-.57,.77-.7,.72-.27,1.56,.04,1.86,.7,.15,.32,.15,.68,0,1Zm8.58-24.61c.15-.34,.45-.61,.82-.75,.37-.14,.79-.14,1.16,0,.37,.14,.66,.41,.82,.75,.15,.34,.15,.72,0,1.06-.15,.34-.45,.61-.82,.75-.19,.07-.38,.11-.58,.11s-.4-.04-.58-.11c-.38-.14-.67-.41-.82-.75-.16-.34-.16-.72,0-1.06Zm-.73,67.36c-.35-.13-.62-.38-.77-.7-.15-.32-.15-.67,0-1,.15-.32,.42-.57,.77-.7,.72-.28,1.56,.04,1.86,.7,.3,.66-.05,1.42-.77,1.7-.18,.07-.36,.1-.54,.1s-.37-.03-.54-.1Zm2.68,22.11c-.18,.07-.36,.1-.54,.1-.56,0-1.09-.3-1.32-.8-.3-.66,.05-1.42,.77-1.7,.73-.27,1.56,.04,1.86,.7,.3,.66-.05,1.42-.77,1.7Zm27.32,15.47c-.18,.07-.36,.1-.54,.1s-.37-.03-.54-.1c-.35-.13-.62-.38-.77-.7-.15-.32-.15-.67,0-1,.15-.32,.42-.57,.77-.7,.35-.13,.74-.13,1.09,0,.35,.13,.62,.38,.77,.7,.3,.66-.05,1.42-.77,1.7Z"/><path class="cls-11" d="M414.34,253.2l.23-.09c.14,.28,.28,.57,.41,.85-.09,.03-.19,.07-.28,.1,.36,.93,.7,1.86,1.01,2.79,3.42,10.33,3.81,22.22,1.37,33.38,.11,.05,.22,.1,.32,.15l-.58,1.05s0,0-.01,0c-3.16,13.25-10.38,25.33-21.4,32.4,.02,.05,.04,.1,.06,.14h-.28c-3.23,2.04-6.78,3.67-10.66,4.76-7.94,2.22-16.07,1.9-23.88-.23-.04,.2-.08,.4-.13,.6-.09-.24-.18-.48-.27-.71-19.03-5.36-36.09-21.49-43.83-37.97l-.49,.18-.41-.93,.46-.17c-12.27-27.39-3.74-66.82,23.98-76.81,2.12-.76,4.3-1.31,6.5-1.7-.06-.13-.11-.26-.17-.39l1.2-.43,.18,.43c.02,.06,.05,.12,.07,.17,11.38-1.63,23.63,1.46,34.67,7.62,.02-.11,.05-.23,.07-.34l1.27,.23c-.06,.26-.11,.53-.17,.79,4.05,2.36,7.93,5.12,11.53,8.22,2.32-1.32,4.63-2.65,6.95-3.97-18.89-16.3-45.43-24.4-66.88-16-32.63,12.76-40.88,58.75-24.89,89.43,11.86,22.76,41.56,45.77,71.59,39.37,34.24-7.3,52.13-49.28,41.83-81.37-2.42-7.54-6.43-14.65-11.57-21.04-3.21,.94-5.86,1.86-8.01,2.76,4.27,5.15,7.76,10.81,10.2,16.73Z"/><path class="cls-6" d="M370.5,276.05c-.1-.23-.16-.52-.22-.85-.15-.83-.39-2.09-1.24-2.71-.87-.62-2.37-.58-4.47,.12h0c-16.05,5.94-32.1,11.87-48.15,17.81,7.74,16.48,24.8,32.61,43.83,37.97-.12-.32-.25-.64-.37-.97,3.54-17.13,7.08-34.25,10.62-51.38Z"/><path class="cls-6" d="M382.33,295.69c-2.06-1.91-4.67-4.89-6.45-9.09-.39-.92-.7-1.83-.96-2.71-.48-.94-.66-1.92-.69-3.03-.3-1.86-.35-3.55-.29-4.98-.37-.88-.75-1.76-1.12-2.64-.09-.06-.14-.07-.14-.08-.23,.12-.48,1.24-.59,1.72-.14,.6-.26,1.05-.47,1.32-3.66,17.44-7.31,34.87-10.97,52.31,7.81,2.13,15.93,2.46,23.88,.23,3.88-1.09,7.42-2.71,10.66-4.76h-.87c-3.99-9.43-7.99-18.86-11.98-28.29Z"/><path class="cls-6" d="M364.29,271.67c.45-.29,.8-.66,1-1.1,.31-.68,.18-1.29,.12-1.57-.32-1.55-1.85-2.3-2.08-2.41-.02-.01-.03-.02-.05-.03-16.44-7.64-32.87-15.28-49.31-22.92v-1.15c16.59,7.68,33.18,15.37,49.77,23.05,.47,.08,1.14,.13,1.89-.09,.39-.11,1.29-.38,1.83-1.18,.18-.27,.27-.53,.32-.68,.18-.52,.22-1.01,.2-1.44-.13-.29-.2-.61-.24-.93-.46-1.09-.93-2.19-1.39-3.28-1.65-.79-3.19-1.57-4.37-3.38-1.9-2.91-1.45-6.36-.78-8.79-4.91-11.59-9.81-23.17-14.72-34.76-2.21,.39-4.38,.93-6.5,1.7-27.71,9.98-36.25,49.42-23.98,76.81h0s48.3-17.83,48.3-17.83Zm-42.67-35.92c.66-.86,3.8,.13,7.02,2.2s5.3,4.44,4.64,5.3c-.66,.85-3.8-.13-7.02-2.2-3.22-2.07-5.3-4.44-4.64-5.3Z"/><path class="cls-6" d="M378.75,236.14c1.22-5.91,2.44-11.82,3.67-17.74-11.04-6.16-23.28-9.24-34.67-7.62,4.8,11.39,9.6,22.79,14.41,34.18,5.53-2.94,11.06-5.89,16.59-8.83Zm-5-7.55c.52-3.57,1.85-6.35,2.99-6.22,1.13,.14,1.63,3.14,1.12,6.71s-1.85,6.35-2.99,6.22c-1.13-.14-1.63-3.14-1.12-6.71Z"/><path class="cls-6" d="M371.65,263.52c.34,0,.68-.07,1-.17-.3-.57-.63-1.13-1.06-1.68-1.14-1.44-2.38-2.28-3.62-2.94,.57,1.34,1.13,2.69,1.7,4.03,.53,.45,1.21,.75,1.98,.76Z"/><path class="cls-6" d="M374.17,273.46c.05-.33,.1-.62,.14-.88-.1,.07-.2,.16-.28,.25,0,.12,.02,.26,.04,.4,.03,.08,.06,.15,.1,.23Z"/><path class="cls-6" d="M395.21,263.28c.26,.1,.5,.19,.78,.31,1.72,3.29,3.43,6.57,5.15,9.86,.64,1.09,1.27,2.18,1.91,3.28-.05,.02-.11,.05-.16,.08,.08,.15,.16,.3,.24,.45-1.61,.52-3.06,1.02-4.39,1.51-1.06,.5-2.12,1.01-3.19,1.51,7.17,3.32,14.35,6.64,21.52,9.97,2.45-11.17,2.05-23.05-1.37-33.38-.31-.94-.65-1.87-1.01-2.79-6.82,2.52-13.63,5.04-20.45,7.56,.32,.55,.64,1.1,.96,1.65Z"/><path class="cls-6" d="M389.84,282.99c-2.69,1.8-3.57,3.36-3.53,4.67,.06,1.99,2.19,4.09,1.15,6.65-.63,1.54-2.08,2.47-3.2,3.02-.01,0-.03-.02-.04-.03,3.73,8.85,7.46,17.7,11.19,26.55,11.02-7.07,18.24-19.15,21.4-32.4-7.54-3.51-15.08-7.01-22.62-10.52-1.45,.69-2.9,1.37-4.35,2.06Zm9.42,28.11c1.7,3.25,2.24,6.25,1.21,6.7-1.03,.45-3.24-1.82-4.94-5.07-1.7-3.25-2.24-6.25-1.21-6.7,1.03-.45,3.24,1.82,4.94,5.07Z"/><path class="cls-6" d="M414.34,253.2c-2.44-5.92-5.94-11.58-10.2-16.73-6.38,2.67-8.48,5.15-8.63,7.28-.12,1.62,.72,5.25-1.58,7.04-1.54,1.2-3.83,1.06-5.45,.79-.1-.12-.19-.25-.29-.37,1.86,3.19,3.72,6.39,5.59,9.58l20.57-7.59Z"/><path class="cls-6" d="M380.07,235.9c5.02-2.87,10.04-5.74,15.06-8.6-3.6-3.1-7.48-5.86-11.53-8.22-1.18,5.61-2.35,11.21-3.53,16.82Z"/><path class="cls-9" d="M361.27,245.44c.3-.16,.59-.32,.89-.47-4.8-11.39-9.6-22.79-14.41-34.18-.02-.06-.05-.12-.07-.17l-.18-.43-1.2,.43c.06,.13,.11,.26,.17,.39,4.91,11.59,9.81,23.17,14.72,34.76,.03-.1,.05-.22,.08-.32Z"/><path class="cls-9" d="M382.33,295.69c3.99,9.43,7.99,18.86,11.98,28.29h1.15s-.04-.1-.06-.14c-3.73-8.85-7.46-17.7-11.19-26.55-.52-.41-1.17-.94-1.88-1.6Z"/><path class="cls-9" d="M374.15,273.61s.01-.1,.02-.15c-.03-.08-.06-.15-.1-.23,.02,.12,.04,.25,.08,.38Z"/><path class="cls-9" d="M394.25,261.63c6.82-2.52,13.63-5.04,20.45-7.56,.09-.03,.19-.07,.28-.1-.14-.28-.28-.57-.41-.85l-.23,.09-20.57,7.59c.16,.28,.33,.56,.49,.84Z"/><path class="cls-9" d="M394.19,280.93c7.54,3.51,15.08,7.01,22.62,10.52,0,0,0,0,.01,0l.58-1.05c-.11-.05-.22-.1-.32-.15-7.17-3.32-14.35-6.64-21.52-9.97-.46,.22-.91,.43-1.37,.65Z"/><path class="cls-9" d="M383.76,218.29l-1.27-.23c-.02,.11-.05,.23-.07,.34-1.22,5.91-2.44,11.82-3.67,17.74,.16-.09,.32-.17,.48-.26,.07,.12,.14,.25,.21,.37,.2-.12,.41-.23,.61-.35,1.18-5.61,2.35-11.21,3.53-16.82,.06-.26,.11-.53,.17-.79Z"/><path class="cls-11" d="M371.63,264.44c-1.07-.01-2.05-.42-2.76-1.06-.1,.43-.27,.89-.55,1.34-.69,1.11-1.86,1.92-3.22,2.29,.61,.44,1.07,1.05,1.28,1.76,.25,.86,.11,1.76-.35,2.51,.49-.09,.95-.13,1.38-.13,.92,0,1.67,.21,2.25,.63,.95,.68,1.3,1.79,1.5,2.71,.24-1.05,.53-2.06,1.35-2.21,.34-.06,.67,.04,1.02,.32,.04-.4,.19-.68,.46-.87,.09-.07,.19-.11,.3-.15-.21-2.99-.44-5.32-1.26-7.35-.43,.14-.89,.22-1.36,.22h-.05Z"/><path class="cls-11" d="M374.07,273.23c-.02-.14-.04-.27-.04-.4-.15,.19-.27,.4-.36,.6,.14,.18,.28,.38,.42,.59,.02-.15,.04-.28,.06-.42-.03-.13-.06-.26-.08-.38Z"/><path class="cls-9" d="M372.09,274.89c.11-.48,.36-1.6,.59-1.72,0,0,.06,.01,.14,.08,.37,.88,.75,1.76,1.12,2.64,.03-.68,.08-1.31,.15-1.87-.14-.21-.28-.41-.42-.59,.09-.2,.2-.41,.36-.6,.08-.1,.17-.18,.28-.25,.01-.08,.03-.16,.04-.23-.02-.27-.04-.52-.06-.79-.11,.03-.21,.08-.3,.15-.27,.19-.43,.48-.46,.87-.35-.28-.68-.38-1.02-.32-.82,.14-1.11,1.16-1.35,2.21-.2-.91-.55-2.02-1.5-2.71-.58-.42-1.34-.63-2.25-.63-.42,0-.88,.04-1.38,.13,.46-.75,.6-1.65,.35-2.51-.21-.71-.67-1.33-1.28-1.76,1.36-.36,2.54-1.17,3.22-2.29,.28-.45,.45-.9,.55-1.34,.71,.65,1.68,1.05,2.76,1.06h.05c.47,0,.93-.08,1.36-.22-.12-.29-.25-.58-.4-.86-.32,.1-.66,.16-1,.17-.77,0-1.46-.31-1.98-.76-.57-1.34-1.13-2.69-1.7-4.03-.55-.29-1.09-.55-1.63-.81,.46,1.09,.93,2.19,1.39,3.28,.04,.32,.11,.64,.24,.93,.02,.43-.02,.93-.2,1.44-.05,.14-.15,.41-.32,.68-.54,.8-1.43,1.07-1.83,1.18-.75,.22-1.42,.18-1.89,.09-16.59-7.68-33.18-15.37-49.77-23.05v1.15c16.44,7.64,32.87,15.28,49.31,22.92,.02,.01,.03,.02,.05,.03,.23,.11,1.76,.86,2.08,2.41,.06,.28,.19,.9-.12,1.57-.2,.44-.55,.81-1,1.1l-48.3,17.83h0s-.46,.17-.46,.17l.41,.93,.49-.18c16.05-5.94,32.1-11.87,48.15-17.81h0c2.1-.7,3.61-.74,4.47-.12,.85,.61,1.08,1.87,1.24,2.71,.06,.33,.12,.63,.22,.85-3.54,17.13-7.08,34.25-10.62,51.38,.12,.32,.25,.64,.37,.97,.09,.24,.18,.48,.27,.71,.04-.2,.08-.4,.13-.6,3.66-17.44,7.31-34.87,10.97-52.31,.22-.27,.34-.72,.47-1.32Z"/><path class="cls-5" d="M326.26,241.06c3.22,2.07,6.37,3.06,7.02,2.2,.66-.86-1.42-3.23-4.64-5.3s-6.37-3.06-7.02-2.2c-.66,.85,1.42,3.23,4.64,5.3Z"/><path class="cls-5" d="M395.53,312.73c1.7,3.25,3.91,5.52,4.94,5.07,1.03-.45,.49-3.45-1.21-6.7-1.7-3.25-3.91-5.52-4.94-5.07-1.03,.45-.49,3.45,1.21,6.7Z"/><path class="cls-5" d="M374.87,235.3c1.13,.14,2.47-2.65,2.99-6.22s.01-6.57-1.12-6.71c-1.13-.14-2.47,2.65-2.99,6.22-.52,3.57-.01,6.57,1.12,6.71Z"/><path class="cls-10" d="M303.14,230.38c.08-.03,.14-.09,.17-.16,.03-.07,.03-.15,0-.23-.03-.07-.09-.13-.17-.16-.04-.02-.08-.02-.12-.02s-.08,0-.12,.02c-.08,.03-.14,.09-.18,.16-.03,.07-.03,.15,0,.23,.03,.07,.09,.13,.17,.16,.08,.03,.16,.03,.25,0Z"/><path class="cls-9" d="M302.43,231.39c.19,.07,.38,.11,.58,.11s.39-.04,.58-.11c.38-.14,.67-.41,.82-.75,.15-.34,.15-.72,0-1.06-.15-.34-.45-.61-.82-.75-.37-.14-.79-.14-1.16,0-.38,.14-.67,.41-.82,.75-.16,.34-.16,.72,0,1.06,.15,.34,.44,.61,.82,.75Zm.28-1.4c.03-.07,.09-.13,.18-.16,.04-.02,.08-.02,.12-.02s.08,0,.12,.02c.08,.03,.14,.09,.17,.16,.03,.07,.03,.15,0,.23-.03,.07-.09,.13-.17,.16-.08,.03-.17,.03-.25,0-.08-.03-.14-.09-.17-.16-.03-.07-.03-.15,0-.23Z"/><path class="cls-10" d="M291.72,253.3c-.05,0-.11,0-.16,.03-.1,.04-.18,.11-.23,.21-.04,.09-.04,.2,0,.29,.09,.2,.34,.29,.55,.21,.21-.08,.31-.3,.23-.5-.07-.15-.22-.24-.39-.24Z"/><path class="cls-9" d="M291.18,252.48c-.35,.13-.62,.38-.77,.7-.15,.32-.15,.67,0,1,.23,.5,.76,.8,1.32,.8,.18,0,.36-.03,.54-.1,.35-.13,.62-.38,.77-.7,.15-.32,.15-.67,0-1-.3-.66-1.13-.98-1.86-.7Zm.7,1.56c-.21,.08-.46-.01-.55-.21-.04-.09-.04-.2,0-.29,.04-.1,.12-.17,.23-.21,.05-.02,.11-.03,.16-.03,.16,0,.32,.09,.39,.24,.09,.19-.01,.42-.23,.5Z"/><path class="cls-10" d="M281.85,293.15c-.05-.02-.1-.03-.16-.03s-.11,0-.16,.03c-.21,.08-.31,.3-.23,.5,.04,.1,.12,.17,.23,.21,.1,.04,.22,.04,.32,0,.1-.04,.18-.11,.23-.21,.04-.09,.04-.2,0-.29-.04-.1-.12-.17-.23-.21Z"/><path class="cls-9" d="M282.23,292.3c-.35-.13-.74-.13-1.09,0-.72,.27-1.07,1.04-.77,1.7,.15,.32,.42,.57,.77,.7,.18,.07,.36,.1,.54,.1s.37-.03,.54-.1c.35-.13,.62-.38,.77-.7,.15-.32,.15-.67,0-1-.15-.32-.42-.57-.77-.7Zm-.16,1.35c-.04,.1-.12,.17-.23,.21-.1,.04-.22,.04-.32,0-.1-.04-.18-.11-.23-.21-.09-.19,.01-.42,.23-.5,.05-.02,.11-.03,.16-.03s.11,0,.16,.03c.1,.04,.18,.11,.23,.21,.04,.09,.04,.2,0,.29Z"/><path class="cls-10" d="M301.42,295.35c-.05,0-.11,0-.16,.03-.1,.04-.18,.11-.23,.21-.04,.09-.04,.2,0,.29,.04,.1,.12,.17,.23,.21,.1,.04,.22,.04,.32,0,.21-.08,.31-.3,.23-.5-.07-.15-.22-.24-.39-.24Z"/><path class="cls-9" d="M302.74,295.23c-.3-.66-1.13-.98-1.86-.7-.35,.13-.62,.38-.77,.7-.15,.32-.15,.67,0,1,.15,.32,.42,.57,.77,.7,.18,.07,.36,.1,.54,.1s.37-.03,.54-.1c.72-.27,1.07-1.04,.77-1.7Zm-1.15,.85c-.1,.04-.22,.04-.32,0-.1-.04-.18-.11-.23-.21-.04-.09-.04-.2,0-.29,.04-.1,.12-.17,.23-.21,.05-.02,.11-.03,.16-.03,.16,0,.32,.09,.39,.24,.09,.19-.01,.42-.23,.5Z"/><path class="cls-10" d="M303.01,317.46c-.05,0-.11,0-.16,.03-.21,.08-.31,.3-.23,.5,.09,.19,.33,.29,.55,.21,.21-.08,.31-.3,.23-.5-.07-.15-.22-.24-.39-.24Z"/><path class="cls-9" d="M302.47,316.64c-.72,.27-1.07,1.04-.77,1.7,.23,.5,.76,.8,1.32,.8,.18,0,.36-.03,.54-.1,.72-.27,1.07-1.04,.77-1.7-.3-.66-1.13-.98-1.86-.7Zm.7,1.55c-.21,.08-.46-.01-.55-.21-.09-.19,.01-.42,.23-.5,.05-.02,.11-.03,.16-.03,.16,0,.32,.09,.39,.24,.09,.19-.01,.42-.23,.5Z"/><path class="cls-10" d="M330.5,332.96c-.05-.02-.11-.03-.16-.03s-.11,0-.16,.03c-.1,.04-.18,.11-.23,.21-.04,.09-.04,.2,0,.29,.04,.1,.12,.17,.23,.21,.1,.04,.22,.04,.32,0,.21-.08,.31-.3,.23-.5-.04-.09-.12-.17-.23-.21Z"/><path class="cls-9" d="M330.88,332.12c-.35-.13-.74-.13-1.09,0-.35,.13-.62,.38-.77,.7-.15,.32-.15,.67,0,1,.15,.32,.42,.57,.77,.7,.18,.07,.36,.1,.54,.1s.37-.03,.54-.1c.72-.27,1.07-1.04,.77-1.7-.15-.32-.42-.57-.77-.7Zm-.39,1.55c-.1,.04-.22,.04-.32,0-.1-.04-.18-.11-.23-.21-.04-.09-.04-.2,0-.29,.04-.09,.12-.17,.23-.21,.05-.02,.11-.03,.16-.03s.11,0,.16,.03c.1,.04,.18,.11,.23,.21,.09,.19-.01,.42-.23,.5Z"/><path class="cls-10" d="M282.41,273.36c-.05-.02-.11-.03-.16-.03s-.11,0-.16,.03c-.1,.04-.18,.11-.23,.21-.04,.09-.04,.2,0,.29,.09,.19,.33,.29,.55,.21,.21-.08,.31-.3,.23-.5-.04-.09-.12-.17-.23-.21Z"/><path class="cls-9" d="M282.79,272.51c-.35-.13-.74-.13-1.09,0-.72,.27-1.07,1.04-.77,1.7,.15,.32,.42,.57,.77,.7,.18,.07,.36,.1,.54,.1s.37-.03,.54-.1c.72-.27,1.07-1.04,.77-1.7-.15-.32-.42-.57-.77-.7Zm-.38,1.55c-.21,.08-.46-.01-.55-.21-.04-.09-.04-.2,0-.29,.04-.1,.12-.17,.23-.21,.05-.02,.11-.03,.16-.03s.11,0,.16,.03c.1,.04,.18,.11,.23,.21,.09,.19-.01,.42-.23,.5Z"/><path class="cls-3" d="M395.12,227.3c-5.02,2.87-10.04,5.74-15.06,8.6-.2,.12-.41,.23-.61,.35,2.91,4.99,5.82,9.97,8.72,14.96,.1,.12,.19,.25,.29,.37,1.62,.28,3.91,.42,5.45-.79,2.3-1.79,1.46-5.42,1.58-7.04,.16-2.13,2.25-4.61,8.63-7.28,2.15-.9,4.8-1.82,8.01-2.76,1.14-.33,2.36-.67,3.65-1.01,4.67-1.22,10.34-2.47,17.21-3.72-2.92-6.11-5.83-12.22-8.75-18.32-6.33,3.62-12.67,7.24-19,10.86-1.06,.61-2.12,1.21-3.18,1.82-2.32,1.32-4.63,2.65-6.95,3.97Z"/><path class="cls-4" d="M290.49,320.98c-2.76-3.29-5.77-7.38-8.6-12.31-2.67-4.65-4.56-9-5.93-12.77-.03,0-.07,.01-.1,.01-1.96,.26-4.2,.86-5.06,2.43-1.6,2.93,2.69,7.19,1.43,8.31-1.26,1.12-6.12-2.67-7.7-1.44-1.57,1.23,2.05,5.93,.38,7.61-.76,.76-2.75,1.04-8.2-1.15-.14-.06-.27-.11-.41-.16,1.36,1.24,3.91,3.39,7.5,5.42,3.99,2.25,9.27,4.35,15.69,4.86,2.38,.19,4.58,.13,6.57-.06,1.65-.16,3.16-.4,4.48-.69-.02-.02-.04-.05-.06-.07Z"/><path class="cls-8" d="M403.05,276.73c-.64-1.09-1.27-2.18-1.91-3.28,.58,1.12,1.17,2.23,1.75,3.35,.05-.03,.11-.05,.16-.08Z"/><path class="cls-8" d="M374.92,283.9c-.31-1.05-.53-2.06-.69-3.03,.03,1.11,.21,2.09,.69,3.03Z"/><path class="cls-8" d="M394.19,280.93c.46-.22,.91-.43,1.37-.65,1.06-.5,2.12-1.01,3.19-1.51-4.13,1.53-6.98,2.94-8.9,4.22,1.45-.69,2.9-1.37,4.35-2.06Z"/><path class="cls-8" d="M378.75,236.14c-5.53,2.94-11.06,5.89-16.59,8.83-.3,.16-.59,.32-.89,.47-.03,.1-.06,.21-.08,.32-.66,2.43-1.11,5.88,.78,8.79,1.18,1.81,2.72,2.59,4.37,3.38,.53,.26,1.08,.52,1.63,.81,1.24,.66,2.48,1.5,3.62,2.94,.43,.54,.76,1.1,1.06,1.68,.15,.28,.28,.57,.4,.86,.82,2.03,1.05,4.35,1.26,7.35,.02,.26,.04,.51,.06,.79,3.52,5.18,5.46,6.15,6.6,5.86,2.51-.63,1.8-7.5,5.07-8.4,2.02-.55,3.94,1.66,4.83,1.01,1.4-1.03-3.05-6.7-1.43-8.31,.61-.6,2.17-.68,5.79,.77-.32-.55-.64-1.1-.96-1.65-.16-.28-.33-.56-.49-.84-1.86-3.19-3.72-6.39-5.59-9.58-2.91-4.99-5.82-9.97-8.72-14.96-.07-.12-.14-.25-.21-.37-.16,.09-.32,.17-.48,.26Z"/><path class="cls-4" d="M374.17,273.46s-.01,.1-.02,.15c-.02,.14-.04,.27-.06,.42-.07,.55-.12,1.18-.15,1.87-.06,1.43-.01,3.12,.29,4.98,.15,.97,.38,1.98,.69,3.03,.26,.88,.57,1.78,.96,2.71,1.78,4.2,4.39,7.18,6.45,9.09,.71,.66,1.36,1.19,1.88,1.6,.01,0,.03,.02,.04,.03,1.12-.55,2.58-1.48,3.2-3.02,1.04-2.56-1.09-4.66-1.15-6.65-.04-1.31,.84-2.87,3.53-4.67,1.92-1.28,4.77-2.69,8.9-4.22,1.33-.49,2.78-1,4.39-1.51-.08-.15-.16-.3-.24-.45-.58-1.12-1.17-2.23-1.75-3.35-1.72-3.29-3.43-6.57-5.15-9.86-.28-.12-.52-.21-.78-.31-3.62-1.44-5.18-1.37-5.79-.77-1.62,1.6,2.84,7.28,1.43,8.31-.89,.66-2.81-1.56-4.83-1.01-3.28,.9-2.56,7.76-5.07,8.4-1.14,.29-3.08-.68-6.6-5.86-.01,.07-.03,.15-.04,.23-.05,.26-.1,.55-.14,.88Z"/></g><g><path class="cls-9" d="M199.41,96.89l-.7-2.33h-5.78l-.7,2.33h-5.42l6.02-16.51h6.17l6.02,16.51h-5.62Zm-5.38-6.02h3.58l-1.73-5.88h-.1l-1.75,5.88Z"/><path class="cls-9" d="M228.3,80.89c.7,.34,1.25,.83,1.66,1.45,.41,.62,.61,1.32,.61,2.09,0,2.03-.92,3.31-2.76,3.84v.1c2.1,.48,3.14,1.86,3.14,4.13,0,.86-.21,1.63-.64,2.29-.42,.66-1,1.18-1.74,1.55s-1.54,.55-2.42,.55h-11.14v-16.51h10.99c.83,0,1.6,.17,2.29,.52Zm-7.98,5.92h3.65c.35,0,.64-.12,.88-.37,.23-.25,.35-.56,.35-.92v-.24c0-.35-.12-.65-.36-.9-.24-.25-.53-.37-.86-.37h-3.65v2.81Zm0,6.24h4.03c.35,0,.64-.12,.88-.37s.35-.56,.35-.92v-.24c0-.37-.12-.68-.35-.92s-.52-.37-.88-.37h-4.03v2.83Z"/><path class="cls-9" d="M233.69,80.38h5.3v12.29h8.47v4.22h-13.78v-16.51Z"/><path class="cls-9" d="M264.09,82.27c1.55,1.46,2.33,3.58,2.33,6.36s-.78,4.9-2.33,6.36c-1.55,1.46-3.75,2.18-6.6,2.18s-5.04-.72-6.59-2.17c-1.54-1.45-2.32-3.57-2.32-6.37s.77-4.92,2.32-6.37c1.54-1.45,3.74-2.17,6.59-2.17s5.05,.73,6.6,2.18Zm-9.19,2.81c-.59,.69-.89,1.62-.89,2.78v1.54c0,1.17,.3,2.1,.89,2.78,.59,.69,1.46,1.03,2.59,1.03s2-.34,2.6-1.03c.6-.69,.9-1.62,.9-2.78v-1.54c0-1.17-.3-2.1-.9-2.78-.6-.69-1.47-1.03-2.6-1.03s-2,.34-2.59,1.03Z"/><path class="cls-9" d="M284.09,82.27c1.55,1.46,2.33,3.58,2.33,6.36s-.78,4.9-2.33,6.36c-1.55,1.46-3.75,2.18-6.6,2.18s-5.04-.72-6.59-2.17c-1.54-1.45-2.32-3.57-2.32-6.37s.77-4.92,2.32-6.37c1.54-1.45,3.74-2.17,6.59-2.17s5.05,.73,6.6,2.18Zm-9.19,2.81c-.59,.69-.89,1.62-.89,2.78v1.54c0,1.17,.3,2.1,.89,2.78,.59,.69,1.46,1.03,2.59,1.03s2-.34,2.6-1.03c.6-.69,.9-1.62,.9-2.78v-1.54c0-1.17-.3-2.1-.9-2.78-.6-.69-1.47-1.03-2.6-1.03s-2,.34-2.59,1.03Z"/><path class="cls-9" d="M305.08,88.63c0,5.5-2.89,8.26-8.66,8.26h-7.15v-16.51h7.15c5.78,0,8.66,2.75,8.66,8.26Zm-10.51,4.3h1.75c2.22,0,3.34-1.19,3.34-3.58v-1.44c0-2.38-1.11-3.58-3.34-3.58h-1.75v8.59Z"/><path class="cls-9" d="M320.76,96.89l-2.14-10.06h-.1l-2.14,10.06h-5.83l-3.86-16.51h5.52l1.9,9.36h.1l1.87-9.36h5.23l1.99,9.36h.1l1.78-9.36h5.28l-3.86,16.51h-5.83Z"/><path class="cls-9" d="M346.75,82.27c1.55,1.46,2.33,3.58,2.33,6.36s-.78,4.9-2.33,6.36c-1.55,1.46-3.75,2.18-6.6,2.18s-5.04-.72-6.59-2.17c-1.54-1.45-2.32-3.57-2.32-6.37s.77-4.92,2.32-6.37c1.54-1.45,3.74-2.17,6.59-2.17s5.05,.73,6.6,2.18Zm-9.19,2.81c-.59,.69-.89,1.62-.89,2.78v1.54c0,1.17,.3,2.1,.89,2.78,.59,.69,1.46,1.03,2.59,1.03s2-.34,2.6-1.03c.6-.69,.9-1.62,.9-2.78v-1.54c0-1.17-.3-2.1-.9-2.78-.6-.69-1.47-1.03-2.6-1.03s-2,.34-2.59,1.03Z"/><path class="cls-9" d="M366.79,88.18c-.54,.82-1.34,1.42-2.38,1.8l3.67,6.91h-5.95l-2.93-6.02h-1.97v6.02h-5.3v-16.51h10.1c1.18,0,2.2,.23,3.04,.68s1.47,1.07,1.9,1.85c.42,.78,.64,1.62,.64,2.53,0,1.01-.27,1.92-.82,2.74Zm-5.02-3.6c-.29-.29-.64-.43-1.06-.43h-3.48v3.05h3.48c.42,0,.77-.15,1.06-.44,.29-.3,.43-.66,.43-1.09s-.14-.79-.43-1.08Z"/><path class="cls-9" d="M381.79,80.38h6.58l-5.93,6.79,6.05,9.72h-6.26l-3.43-6.05-2.88,2.35v3.7h-5.3v-16.51h5.3v7.06l5.88-7.06Z"/><path class="cls-9" d="M413.4,82.27c1.55,1.46,2.33,3.58,2.33,6.36s-.78,4.9-2.33,6.36c-1.55,1.46-3.75,2.18-6.6,2.18s-5.04-.72-6.59-2.17c-1.54-1.45-2.32-3.57-2.32-6.37s.77-4.92,2.32-6.37c1.54-1.45,3.74-2.17,6.59-2.17s5.05,.73,6.6,2.18Zm-9.19,2.81c-.59,.69-.89,1.62-.89,2.78v1.54c0,1.17,.3,2.1,.89,2.78,.59,.69,1.46,1.03,2.59,1.03s2-.34,2.6-1.03c.6-.69,.9-1.62,.9-2.78v-1.54c0-1.17-.3-2.1-.9-2.78-.6-.69-1.47-1.03-2.6-1.03s-2,.34-2.59,1.03Z"/><path class="cls-9" d="M433.44,88.18c-.54,.82-1.34,1.42-2.38,1.8l3.67,6.91h-5.95l-2.93-6.02h-1.97v6.02h-5.3v-16.51h10.1c1.18,0,2.2,.23,3.04,.68s1.47,1.07,1.9,1.85c.42,.78,.64,1.62,.64,2.53,0,1.01-.27,1.92-.82,2.74Zm-5.02-3.6c-.29-.29-.64-.43-1.06-.43h-3.48v3.05h3.48c.42,0,.77-.15,1.06-.44,.29-.3,.43-.66,.43-1.09s-.14-.79-.43-1.08Z"/><path class="cls-9" d="M448.32,96.89l-.7-2.33h-5.78l-.7,2.33h-5.42l6.02-16.51h6.17l6.02,16.51h-5.62Zm-5.38-6.02h3.58l-1.73-5.88h-.1l-1.75,5.88Z"/><path class="cls-9" d="M467.73,96.89l-6.94-8.02v8.02h-4.87v-16.51h4.63l6.94,8.14v-8.14h4.87v16.51h-4.63Z"/><path class="cls-9" d="M488.49,80.81c1.26,.48,2.27,1.19,3.01,2.12s1.12,2.08,1.12,3.42h-5.06c0-.69-.3-1.24-.91-1.67-.61-.42-1.34-.64-2.21-.64-1.25,0-2.19,.33-2.83,1-.64,.66-.96,1.6-.96,2.82v1.54c0,1.22,.32,2.16,.96,2.82,.64,.66,1.58,1,2.83,1,.86,0,1.6-.2,2.21-.61,.61-.41,.91-.93,.91-1.57h-3.74v-3.36h8.81v9.22h-2.74l-.53-1.63c-1.5,1.28-3.47,1.92-5.9,1.92-2.74,0-4.79-.72-6.17-2.15s-2.06-3.56-2.06-6.4,.78-4.92,2.34-6.37c1.56-1.45,3.78-2.17,6.66-2.17,1.58,0,3.01,.24,4.27,.72Z"/><path class="cls-9" d="M495.91,80.38h14.28v3.96h-8.98v2.28h7.68v3.79h-7.68v2.52h9.14v3.96h-14.45v-16.51Z"/></g></g></svg>