<?xml version="1.0" encoding="UTF-8"?><svg xmlns="http://www.w3.org/2000/svg" width="700" height="400" xmlns:xlink="http://www.w3.org/1999/xlink" viewBox="0 0 700 400"><defs><style>.cls-1{stroke:gray;stroke-width:1.13px;}.cls-1,.cls-2{fill:none;}.cls-1,.cls-2,.cls-3,.cls-4{stroke-miterlimit:10;}.cls-5{opacity:.48;}.cls-5,.cls-6{fill:#c7b299;}.cls-7{fill:#bc4d24;}.cls-8{fill:#4a4a4a;}.cls-9{fill:#4d4d4d;}.cls-2{stroke:#bc4d24;}.cls-2,.cls-3{stroke-width:.85px;}.cls-10{fill:#603813;}.cls-3{stroke:#999;}.cls-3,.cls-11{fill:#ccc;}.cls-12{fill:#c69c6d;}.cls-13{fill:gray;}.cls-14{fill:#3a3a3a;}.cls-15{fill:#5c88d1;}.cls-16{fill:#2e2e2e;}.cls-17{fill:#999;}.cls-18{fill:#b3b3b3;}.cls-6{opacity:.5;}.cls-19{fill:#1a1a1a;}.cls-4{fill:#e8d384;stroke:#eee;stroke-width:.87px;}.cls-20{fill:url(#linear-gradient);}.cls-21{fill:#eee;}.cls-22{fill:#666;}</style><linearGradient id="linear-gradient" x1="382.78" y1="292.33" x2="405.42" y2="292.33" gradientTransform="translate(-47.19 103.73) rotate(-13.72)" gradientUnits="userSpaceOnUse"><stop offset="0" stop-color="#3a3a3a"/><stop offset=".85" stop-color="#ccc"/></linearGradient></defs><g id="Layer_2"><rect class="cls-16" width="700" height="400"/></g><g id="Layer_3"><path class="cls-22" d="M555.76,356.17c.26-60.2,.53-120.4,.79-180.6-.02-2.38,1.9-4.32,4.27-4.34,.8,.51,1.8,1.05,3.02,1.45,3.5,1.15,6.62,.52,8.14,.1,1.34-1.01,2.93-1.9,3.93-1.34,1.25,.7,.98,3.39,.91,3.98-.46,4.13-1.73,70.17-3.35,162.97-1.65,2.8-4.09,6.32-7.61,9.87-3.64,3.68-7.27,6.22-10.11,7.91Z"/><path class="cls-8" d="M554.24,356.3l-264.39-15.04c-.63-.33-1.52-.9-2.4-1.82-1.02-1.08-1.54-2.14-1.77-2.68-.8-1.87-.77-3.57-.69-4.47,2.99-52.64,5.99-105.28,8.98-157.92,.17-2.95,2.7-5.21,5.65-5.04,90.86,5.17,248.15,14.39,254.48,14.47,1.34,.02,1.97,.07,3.23,.17,2.09,.16,2.94,.34,3.37,.44,1.32,.3,2.11,.48,2.96,1.06,1.11,.76,1.71,1.79,2.04,2.54,.14,.47,.28,1.22,.15,2.11-.06,.4-.16,.75-.27,1.04-1.9,53.37-3.79,106.73-5.69,160.1-.17,2.95-2.7,5.21-5.65,5.04Z"/><path class="cls-11" d="M564.13,231.88c-90.81-5.16-181.61-10.33-272.42-15.49l2.37-41.72c90.59,5.15,181.18,10.3,271.76,15.46-.57,13.92-1.15,27.84-1.72,41.76Z"/><ellipse class="cls-14" cx="423.23" cy="281.52" rx="64.57" ry="66.66" transform="translate(-54.7 108.44) rotate(-13.72)"/><ellipse class="cls-8" cx="422.76" cy="282.52" rx="61.15" ry="63.27" transform="translate(-54.95 108.35) rotate(-13.72)"/><rect class="cls-12" x="472.19" y="305.21" width="7.68" height="8.46" rx="1.16" ry="1.16" transform="translate(8.31 631.3) rotate(-67.56)"/><path class="cls-12" d="M383.65,236.78l-5.14,3.4-4.26-6.44c-.5-1.55,.18-3.21,1.52-3.91,1.14-.59,2.6-.4,3.62,.51,1.42,2.15,2.84,4.3,4.26,6.44Z"/><path class="cls-9" d="M564.59,219.39c-15.14-.83-30.28-1.67-45.42-2.5l1.68-29.49,45.01,2.56c-.42,9.81-.85,19.62-1.27,29.43Z"/><rect class="cls-7" x="316.36" y="190.23" width="54.05" height="3.17" transform="translate(11.45 -19.19) rotate(3.26)"/><rect class="cls-7" x="316.08" y="200.12" width="53.75" height="3.17" transform="translate(12.01 -19.15) rotate(3.26)"/><path class="cls-2" d="M388.76,207.62c-1.33,.12-2.86,.18-4.54,.11-1.58-.07-3.02-.24-4.27-.46-.81-.18-1.15-.57-1.3-.78-.12-.17-.2-.37-.27-2.12-.04-.93-.03-1.3,.03-1.75,.09-.63,.13-.94,.36-1.2,.54-.61,1.56-.41,1.58-.61,.01-.14-.49-.18-1.11-.62-.25-.18-.53-.38-.69-.73-.15-.33-.11-.6-.03-1.25,.2-1.67,.12-1.63,.22-1.82,.44-.85,1.59-1.07,2.06-1.13,1.24-.02,2.58,0,4,.1,1.65,.11,3.17,.31,4.55,.54,.3,.07,.91,.25,1.23,.78,.12,.2,.15,.47,.22,1.02,.09,.75,.08,1.2,.06,1.78-.02,.5-.05,.69-.18,.88-.17,.25-.41,.38-.62,.48-.59,.3-1.05,.25-1.06,.35-.01,.15,.98,.09,1.45,.71,.2,.27,.23,.59,.28,1.24,.03,.43,.02,.85-.07,1.73-.12,1.17-.18,1.75-.39,2.03-.14,.19-.54,.62-1.52,.73Z"/><rect class="cls-2" x="383.21" y="196.86" width="2.8" height="3.75" rx=".59" ry=".59" transform="translate(11.91 -21.52) rotate(3.26)"/><rect class="cls-2" x="382.91" y="202.18" width="2.8" height="3.75" rx=".59" ry=".59" transform="translate(12.21 -21.49) rotate(3.26)"/><path class="cls-7" d="M410.19,209.32l-.45-.02s-.46-.03-.88-.05l-2.58-.14c-.21,0-.45-.03-.5-.04-.55-.13-.64-.73-.52-3.25v-.23c.02-.13,.02-.25,.02-.38-.11,.38-.22,.75-.32,1.08q-.72,2.43-.94,2.55c-.16,.09-.32,.11-.37,.11-.05,0-.09,0-.31-.01l-1.82-.1c-.19,0-.24-.01-.28-.02-.11-.03-.22-.07-.32-.14-.26-.18-.42-.57-1.16-3.66,0,.09-.01,.18-.02,.27-.17,3.24-.61,3.33-.9,3.38-.14,.02-.19,.01-.34,0h-.16s-1.98-.13-1.98-.13c-.07,0-1.92-.11-1.98-.11l-.46-.02,.73-12.78,1.62,.09c.59,.03,1.18,.07,1.18,.07l2.86,.16c.23,.01,.25,.01,.34,.06l.18,.09,.13,.43c.21,.76,.4,1.44,.57,2.11,.26,.99,.51,1.95,.86,3.07,.06,.2,.21,.69,.34,1.02,.14-.31,.31-.8,.45-1.19,.93-2.6,1.7-4.98,1.71-5l.11-.34,2.88,.16c.05,0,2.54,.14,2.59,.15l.46,.02-.73,12.77Zm-3.57-1.11s.52,.03,1.57,.09l1.14,.07,.62-10.97c-.74-.04-2.12-.12-2.14-.12l-.91-.05c-.56-.03-1.19-.07-1.27-.07-.26,.79-.91,2.72-1.61,4.69-.5,1.4-.73,2.04-1.32,2.04,0,0-.02,0-.03,0-.55-.02-.74-.57-1.16-1.92-.35-1.13-.6-2.09-.87-3.11-.17-.64-.34-1.3-.55-2.03l-3.88-.22c-.26-.01-.51-.03-.72-.04l-.62,10.97c.58,.03,1.51,.09,1.54,.09l2.11,.12c.13-.42,.26-1.54,.31-2.47,.27-3.22,.27-3.23,.75-3.21q.41,0,1.01,2.48c.27,1.1,.7,2.9,.9,3.37,.02,0,.05,0,.09,0l1.92,.11c.13-.38,.39-1.27,.61-2.01,1.04-3.51,1.05-3.51,1.49-3.5h.19s.14,.15,.14,.15c.37,.41,.27,2.83,.27,2.94v.23c-.07,1.21-.07,2-.02,2.34,.04,0,.08,0,.11,0h.33Zm-5.19-.28s0,0,0,0h0Z"/><path class="cls-14" d="M564.2,231.94c-15.25-.85-30.49-1.7-45.74-2.56l2.39-41.99,45.16,2.57c-.6,13.99-1.21,27.98-1.81,41.97Z"/><rect class="cls-4" x="544.66" y="192.53" width="15.08" height="6.86" rx=".34" ry=".34" transform="translate(12.02 -31.04) rotate(3.26)"/><path class="cls-13" d="M560.24,184.26c-.51-.08-34.69-2.05-262.53-14.7,7.05-3.91,14.1-7.83,21.15-11.74l257.05,13.6c-1.54,1.56-2.81,2.87-3.73,3.84-.78,.82-1.68,1.77-2.86,3.06-1.06,1.15-2.2,2.22-3.17,3.44,0,0-.54,.68-2.58,2.43-.16,.14-.45,.38-.87,.45-.38,.06-.63-.06-1.24-.19,0,0,0,0-1.22-.19Z"/><path class="cls-22" d="M402.85,173.9l-17.32-.99,.6-10.53,17.32,.99c-.69,4.72,.26,6.66,1.34,7.53,.77,.62,2.15,1.16,2.04,1.64-.06,.25-.46,.33-1.29,.55-1.07,.28-1.98,.57-2.7,.81Z"/><path class="cls-9" d="M403.15,163.47c-5.67-.36-11.35-.73-17.02-1.09,1.36-.75,2.73-1.5,4.09-2.24,5.3,.31,10.59,.63,15.89,.94-.99,.8-1.97,1.59-2.96,2.39Z"/><path class="cls-9" d="M406.11,161.08c-.89,.76-1.77,1.52-2.66,2.29l-.45,1.74c1.46-.33,2.91-.66,4.37-.99-.42-1.01-.84-2.02-1.26-3.03Z"/><path class="cls-22" d="M445.58,174.28c-.12-1.92-.23-3.85-.35-5.77,3.26-.24,6.52-.48,9.78-.72-1.31,1.25-2.55,2.4-3.72,3.47-4.19,3.81-1.76,1.29-2.73,2.22-.24,.23-.62,.6-1.24,.8-.7,.23-1.34,.12-1.75,0Z"/><path class="cls-22" d="M457,158.65c-.37,.04-.92,.13-1.53,.38-1.03,.43-1.5,1.01-2.39,1.82-.09,.08-1.05,.79-2.97,2.22-.29,.21-1.37,1.02-2.81,2.08-1.06,.78-2,1.47-2.78,2.04,2.39,.68,4.79,1.35,7.18,2.03,3.71-3.1,7.43-6.19,11.14-9.29-.85-.56-1.64-.86-2.2-1.02-.2-.06-.89-.25-1.84-.31-.71-.05-1.33,0-1.8,.07Z"/><path class="cls-17" d="M452.17,168.81c-.21-.32-.57-.8-1.15-1.22-.87-.62-1.71-.74-2.6-.87-.66-.09-1.65-.23-2.87,.09-.73,.19-1.3,.48-1.68,.7-.18,.25-.43,.64-.65,1.15-.12,.28-.42,1.06-.47,2.84-.04,1.61-.12,2.41,.33,2.7,.07,.04,.15,.09,1.15,.16,1.44,.11,1.55,.04,1.62-.03,.26-.3-.2-.78-.39-1.99-.09-.6-.22-1.55,.27-2.29,.34-.5,.87-.69,1.09-.77,1.67-.59,2.93,.87,4.4,.26,.43-.18,.74-.47,.96-.74Z"/><path class="cls-22" d="M454.76,167.81c-2.59,2.18-5.18,4.36-7.78,6.54,14.8,.98,29.61,1.95,44.41,2.93,.87-2.44,1.74-4.88,2.61-7.32-13.08-.72-26.16-1.43-39.25-2.15Z"/><path class="cls-22" d="M501.8,162.43c.94,1.46,.54,3.11,.43,3.57-.26,1.08-.8,1.76-1.81,3.06-.28,.36-.87,1-2.06,2.28-.98,1.06-.92,.97-1.68,1.8-1.26,1.38-1.89,2.07-1.98,2.17-.38,.46-.85,.84-1.24,1.29-.23,.27-.53,.63-1,.68-.19,.02-.37-.01-.46-.05-1.03-.4,.11-4.01-1.67-6.38-.22-.29-.43-.5-.53-.59-1.89-.04-3.78-.09-5.67-.13,3.15-3.01,6.29-6.02,9.44-9.03,1.19-.51,2.22-.66,2.89-.71,.8-.06,1.87-.14,3.09,.36,.56,.23,1.57,.63,2.25,1.68Z"/><path class="cls-17" d="M485.1,171.79c-.5,.05-.96-.18-1.14-.56-.21-.44,.05-.9,.1-.97,.19-.34,.52-.52,.95-.68,.82-.3,1.65-.37,2.76-.34,.56,.02,1.31,.07,2.19,.2,.37,.11,.85,.31,1.35,.71,.05,.04,.08,.06,.1,.08,.59,.51,.86,1.17,.96,1.44,.08,.21,.4,1.08,.37,3.58-.02,1.66-.17,2.14-.5,2.29-.09,.04-.35,.04-.88,.05-.58,0-.87,0-.96-.04-.39-.23-.21-.94-.21-2.45,0-1.84-.27-2.3-.45-2.54-.33-.43-.75-.63-.96-.73-.68-.33-1.31-.3-2.12-.26-.38,.02-.92,.07-1.56,.22Z"/><g><path class="cls-9" d="M471.16,174.75c-.68,.12-1.6,.23-2.69,.18-1.01-.04-1.85-.2-2.49-.36l.17-4.78,5.18,.18-.17,4.78Z"/><path class="cls-9" d="M471.25,169.9c0,.27-1.16,.46-2.57,.41-1.41-.05-2.54-.31-2.53-.59,0-.27,1.16-.46,2.57-.41s2.54,.31,2.53,.59Z"/></g><path class="cls-17" d="M539.59,176.57c-4.44,1.24-10.79,2.5-18.45,2.39-7.5-.11-13.69-1.5-18.05-2.83-.2-.33-.57-1.01-.64-1.96-.07-.96,.19-1.71,.35-2.06,5.2-.81,11.41-1.41,18.41-1.35,7.2,.06,13.55,.8,18.84,1.75,.14,.38,.35,1.09,.27,1.99-.09,1-.5,1.72-.72,2.07Z"/><path class="cls-22" d="M538.43,173.13c-4.25,1.08-10.08,2.12-17.04,2.04-7-.08-12.84-1.25-17.08-2.44-.1-.11-.55-.65-.51-1.45,.03-.71,.43-1.16,.54-1.28,11.37,.13,22.75,.27,34.12,.4,.12,.14,.46,.59,.49,1.26,.03,.81-.42,1.35-.52,1.47Z"/><path class="cls-17" d="M539.69,170.59c-4.44,1.24-10.79,2.5-18.45,2.39-7.5-.11-13.69-1.5-18.05-2.83-.2-.33-.57-1.01-.64-1.96-.07-.96,.19-1.71,.35-2.06,5.2-.81,11.41-1.41,18.41-1.35,7.2,.06,13.55,.8,18.84,1.75,.14,.38,.35,1.09,.27,1.99-.09,1-.5,1.72-.72,2.07Z"/><ellipse class="cls-22" cx="521.51" cy="166.53" rx="2.55" ry="18.63" transform="translate(345.98 685.08) rotate(-89.01)"/><rect class="cls-22" x="524.81" y="191.1" width="6.24" height="22.93" transform="translate(12.35 -29.65) rotate(3.26)"/><path class="cls-13" d="M559.15,215.95l-34.94-1.99c2.26-3.53,4.53-7.05,6.79-10.58,9.62,.57,19.24,1.14,28.86,1.71-.24,3.62-.47,7.24-.71,10.86Z"/><path class="cls-8" d="M567.18,341.76c1.5-1.47,3-2.94,4.5-4.41,.86-38.28,1.73-76.55,2.59-114.83-1.66,.87-3.31,1.73-4.97,2.6-.71,38.88-1.42,77.76-2.12,116.64Z"/><ellipse class="cls-11" cx="421.74" cy="282.77" rx="59.34" ry="61.09" transform="translate(-55.04 108.12) rotate(-13.72)"/><ellipse class="cls-3" cx="415.18" cy="286.9" rx="56.46" ry="59.48" transform="translate(-56.21 106.68) rotate(-13.72)"/><ellipse class="cls-3" cx="408.74" cy="292.31" rx="54.95" ry="56.52" transform="translate(-57.68 105.31) rotate(-13.72)"/><ellipse class="cls-18" cx="406.29" cy="293.91" rx="49.52" ry="51.44" transform="translate(-58.12 104.77) rotate(-13.72)"/><ellipse class="cls-1" cx="406.29" cy="293.91" rx="45.23" ry="46.98" transform="translate(-58.12 104.77) rotate(-13.72)"/><ellipse class="cls-22" cx="403.31" cy="294.63" rx="24.31" ry="25.25" transform="translate(-58.38 104.09) rotate(-13.72)"/><ellipse class="cls-8" cx="402.87" cy="294.74" rx="21.16" ry="21.7" transform="translate(-58.42 103.99) rotate(-13.72)"/><circle class="cls-14" cx="403.08" cy="294.69" r="16.98"/><circle class="cls-20" cx="405" cy="294.22" r="11.32"/><g><path class="cls-18" d="M254.6,316.96c-1.19,1.6-8.16,10.64-20.92,12.25-13.6,1.71-23.01-6.38-24.41-7.62,.18-24.4,.37-48.8,.55-73.21l47.91,.36c-1.04,22.74-2.09,45.47-3.13,68.21Z"/><g><path class="cls-14" d="M237.68,270.4c-2.52,.88-6.95,2.08-12.53,1.73-6.15-.38-10.73-2.46-13.14-3.75,.02-.23,.04-.46,.05-.68,2.39,1.31,7.01,3.44,13.23,3.8,5.56,.33,9.96-.89,12.45-1.78-.02,.23-.04,.46-.05,.68Z"/><path class="cls-14" d="M237.8,271.59c-2.52,.88-6.95,2.08-12.53,1.73-6.15-.38-10.73-2.46-13.14-3.75,.02-.23,.04-.46,.05-.68,2.39,1.31,7.01,3.44,13.23,3.8,5.56,.33,9.96-.89,12.45-1.78-.02,.23-.04,.46-.05,.68Z"/><path class="cls-14" d="M237.51,272.65c-2.52,.88-6.95,2.08-12.53,1.73-6.15-.38-10.73-2.46-13.14-3.75,.02-.23,.04-.46,.05-.68,2.39,1.31,7.01,3.44,13.23,3.8,5.56,.33,9.96-.89,12.45-1.78-.02,.23-.04,.46-.05,.68Z"/><path class="cls-14" d="M237.65,273.96c-2.52,.88-6.95,2.08-12.53,1.73-6.15-.38-10.73-2.46-13.14-3.75,.02-.23,.04-.46,.05-.68,2.39,1.31,7.01,3.44,13.23,3.8,5.56,.33,9.96-.89,12.45-1.78-.02,.23-.04,.46-.05,.68Z"/></g><g><path class="cls-14" d="M237.31,276.34c-2.52,.88-6.95,2.08-12.53,1.73-6.15-.38-10.73-2.46-13.14-3.75,.02-.23,.04-.46,.05-.68,2.39,1.31,7.01,3.44,13.23,3.8,5.56,.33,9.96-.89,12.45-1.78-.02,.23-.04,.46-.05,.68Z"/><path class="cls-14" d="M237.44,277.52c-2.52,.88-6.95,2.08-12.53,1.73-6.15-.38-10.73-2.46-13.14-3.75,.02-.23,.04-.46,.05-.68,2.39,1.31,7.01,3.44,13.23,3.8,5.56,.33,9.96-.89,12.45-1.78-.02,.23-.04,.46-.05,.68Z"/><path class="cls-14" d="M237.14,278.59c-2.52,.88-6.95,2.08-12.53,1.73-6.15-.38-10.73-2.46-13.14-3.75,.02-.23,.04-.46,.05-.68,2.39,1.31,7.01,3.44,13.23,3.8,5.56,.33,9.96-.89,12.45-1.78-.02,.23-.04,.46-.05,.68Z"/><path class="cls-14" d="M237.28,279.89c-2.52,.88-6.95,2.08-12.53,1.73-6.15-.38-10.73-2.46-13.14-3.75,.02-.23,.04-.46,.05-.68,2.39,1.31,7.01,3.44,13.23,3.8,5.56,.33,9.96-.89,12.45-1.78-.02,.23-.04,.46-.05,.68Z"/></g><path class="cls-14" d="M213.15,324.47c-.84-.46-1.74-1.02-2.67-1.68-.67-.47-1.28-.95-1.83-1.41-.09-24.02-.19-48.03-.28-72.05l4.43-.02c.12,25.05,.24,50.11,.35,75.16Z"/><path class="cls-10" d="M239.62,326.38c-12.34,6.86-31.79,15.08-55.84,15.24-4.29,.03-10.95-.06-19.12-1.72-.89-.18-6.08-1.26-11.86-3.32-13.63-4.86-24.39-13.03-30.55-18.32,.04-7.71,.57-16.52,1.99-26.18,1.64-11.13,4.1-20.9,6.69-29.1,9.39,5.23,27.91,13.93,52.9,15.31,25.05,1.38,44.46-5.27,54.37-9.44,.47,19.18,.94,38.35,1.42,57.53Z"/><path class="cls-5" d="M237.94,277.93l-1.44,.21c-.57,.02-1.05-.42-1.08-.99l-.12-3.03c0-.17,.03-.51,.27-.74,.14-.13,.29-.18,.38-.21,.69-.2,1.9-.27,2.14-.28,.11,.01,.28,.05,.41,.18,.07,.07,.15,.18,.21,.65,.02,.19,.05,.45,.04,.76,.02,.8,.05,1.61,.07,2.41,0,.05,.07,.41-.18,.72-.27,.33-.66,.33-.71,.33Z"/><path class="cls-15" d="M254.62,317.76c-1.19,1.49-2.79,3.23-4.92,4.91-3.4,2.69-6.75,4.15-9.14,4.97,1.07-23.33,2.15-46.67,3.22-70,2.22-.59,5-1.56,8-3.18,2.5-1.35,4.52-2.83,6.08-4.13-1.08,22.48-2.16,44.95-3.24,67.43Z"/><path class="cls-6" d="M235.58,327.37c-.28,.08-.57,.16-.88,.22-.46,.1-.89,.18-1.3,.24-.12,0-.28-.02-.42-.13-.15-.13-.19-.31-.24-.81-.06-.53-.08-.88-.1-1.14-.02-.25-.03-.51-.01-.86,.02-.38,.06-.5,.12-.58,.17-.27,.5-.35,.64-.37,.25-.05,.51-.11,.78-.15,.34-.06,.66-.11,.98-.15,.08-.02,.26-.05,.41,.05,.19,.12,.24,.36,.28,.5,.01,.04,.02,.08,.02,.09,.16,1.03,.14,2.05,.14,2.05,0,.43-.03,.7-.23,.89-.07,.07-.14,.11-.2,.14Z"/><ellipse class="cls-14" cx="233.23" cy="245.7" rx="14.26" ry="26.25" transform="translate(-22.21 468.22) rotate(-87.55)"/><ellipse class="cls-8" cx="232.8" cy="243.71" rx="10.16" ry="22.17" transform="translate(-14.66 472.51) rotate(-89.07)"/><path d="M254.87,244.43c-1.31-1.37-9.61-9.76-22.74-9.42-12.23,.32-19.79,7.98-21.21,9.48-.15-.57-.39-1.83,.01-3.34,.39-1.45,1.19-2.39,1.59-2.82,2.7-1.81,9.69-5.98,19.5-6.09,11.37-.12,19.27,5.28,21.76,7.13,.36,.47,1.07,1.51,1.24,3,.09,.85-.03,1.56-.15,2.04Z"/><path class="cls-14" d="M244.46,246.71c-1.17,.94-5.28,4-11.34,4-6.44,0-10.72-3.45-11.81-4.38,.06-3.65,.12-7.31,.18-10.96l23.14,.38-.18,10.96Z"/><ellipse class="cls-8" cx="233.07" cy="235.3" rx="4.95" ry="11.95" transform="translate(-5.99 464.5) rotate(-89.07)"/><path class="cls-22" d="M245.12,247.84c-.99,.94-5.15,4.64-11.62,4.82-7.08,.19-11.7-3.99-12.59-4.83,.11-.98,.23-1.95,.34-2.93,.82,.93,2.18,2.24,4.16,3.35,3.59,2,6.95,2.04,7.99,2.02,1.4-.03,4.93-.28,8.39-2.65,1.34-.91,2.3-1.89,2.94-2.63,.13,.95,.26,1.9,.39,2.85Z"/><ellipse class="cls-14" cx="233.07" cy="235.3" rx="3.76" ry="9.09" transform="translate(-5.99 464.5) rotate(-89.07)"/><path class="cls-19" d="M234.98,330.47c.87-.13,2.17-.43,3.58-1.19,1.25-.67,2.13-1.46,2.7-2.06,1.22-23.24,2.45-46.47,3.67-69.71-.69-.12-1.6-.16-1.99,.34-.18,.23-.18,.5-.18,.58-.04,.63-1.1,1.68-5.44,3.54-.78,22.83-1.56,45.66-2.34,68.49Z"/><rect class="cls-6" x="185.98" y="281.36" width="5.1" height="6.02" rx="1.35" ry="1.35" transform="translate(-11.15 7.72) rotate(-2.28)"/><rect class="cls-6" x="187.66" y="332.84" width="4.31" height="5.1" rx="1.15" ry="1.15" transform="translate(-13.18 7.81) rotate(-2.28)"/><rect class="cls-6" x="177.8" y="332.96" width="4.31" height="5.1" rx="1.15" ry="1.15" transform="translate(-13.19 7.42) rotate(-2.28)"/><rect class="cls-6" x="197.56" y="332.17" width="4.31" height="5.1" rx="1.15" ry="1.15" transform="translate(-13.15 8.2) rotate(-2.28)"/><rect class="cls-6" x="175.38" y="281.46" width="5.1" height="6.02" rx="1.35" ry="1.35" transform="translate(-11.17 7.3) rotate(-2.28)"/><rect class="cls-6" x="196.57" y="280.71" width="5.1" height="6.02" rx="1.35" ry="1.35" transform="translate(-11.12 8.14) rotate(-2.28)"/><rect class="cls-6" x="207.47" y="279.71" width="4.34" height="5.72" rx="1.22" ry="1.22" transform="translate(-11.07 8.56) rotate(-2.28)"/><path class="cls-5" d="M220.46,283.68l-1.61,.24c-.64,.03-1.18-.47-1.21-1.11l-.14-3.4c0-.19,.03-.57,.31-.83,.15-.15,.32-.2,.43-.23,.78-.23,2.14-.3,2.4-.31,.12,.01,.31,.05,.46,.2,.08,.08,.17,.21,.23,.73,.03,.21,.05,.5,.05,.85,.03,.9,.05,1.8,.08,2.7,.01,.06,.08,.46-.21,.81-.3,.37-.74,.37-.8,.37Z"/><path class="cls-5" d="M229.55,280.8l-1.54,.23c-.61,.02-1.13-.45-1.15-1.06l-.13-3.24c0-.18,.03-.54,.29-.79,.15-.14,.31-.19,.41-.22,.74-.21,2.04-.29,2.29-.3,.12,.01,.3,.05,.44,.19,.07,.07,.16,.2,.22,.7,.03,.2,.05,.48,.04,.81,.02,.86,.05,1.72,.07,2.58,.01,.05,.08,.44-.2,.77-.29,.35-.71,.35-.76,.35Z"/><rect class="cls-6" x="165.34" y="281.03" width="4.5" height="5.6" rx="1.23" ry="1.23" transform="translate(-11.15 6.89) rotate(-2.28)"/><path class="cls-6" d="M158.82,285.16c-.57-.04-.39-.04-1.21-.12-.26-.03-.43-.04-.63-.13-.11-.05-.28-.13-.44-.31-.18-.22-.23-.45-.25-.56,0-.02-.04-1.41-.04-1.43,0-.02-.04-1.33-.04-1.35-.03-.56,0-1,.02-1.31,.01-.15,.03-.31,.15-.44,.21-.24,.59-.2,.71-.19,.31,.01,.64,.04,.99,.08,.3,.04,.59,.09,.85,.14,.12,.03,.32,.11,.51,.29,.34,.32,.38,.73,.38,.83l.14,3.59s.02,.15,0,.32c0,.04-.08,.37-.31,.54-.12,.09-.22,.09-.83,.05Z"/><path class="cls-6" d="M151.15,282.37c-.57-.04-.39-.04-1.21-.12-.26-.03-.43-.04-.63-.13-.11-.05-.28-.13-.44-.31-.18-.22-.23-.45-.25-.56,0-.02-.04-1.41-.04-1.43,0-.02-.04-1.33-.04-1.35-.03-.56,0-1,.02-1.31,.01-.15,.03-.31,.15-.44,.21-.24,.59-.2,.71-.19,.31,.01,.64,.04,.99,.08,.3,.04,.59,.09,.85,.14,.12,.03,.32,.11,.51,.29,.34,.32,.38,.73,.38,.83l.14,3.59s.02,.15,0,.32c0,.04-.08,.37-.31,.54-.12,.09-.22,.09-.83,.05Z"/><path class="cls-6" d="M143.27,278.91c-.51-.04-.35-.03-1.09-.11-.24-.02-.38-.04-.57-.12-.1-.04-.25-.12-.39-.28-.17-.19-.21-.41-.22-.51,0-.02-.04-1.27-.04-1.29,0-.02-.04-1.2-.04-1.22-.02-.51,0-.91,.02-1.18,.01-.14,.03-.28,.13-.4,.19-.21,.54-.18,.64-.17,.28,.01,.58,.04,.9,.08,.27,.03,.53,.08,.77,.13,.11,.03,.29,.1,.46,.26,.3,.29,.34,.66,.35,.75l.13,3.24s.02,.13,0,.29c0,.04-.07,.34-.28,.49-.11,.08-.2,.08-.75,.04Z"/><path class="cls-6" d="M135.83,274.99c-.51-.04-.35-.03-1.09-.11-.24-.02-.38-.04-.57-.12-.1-.04-.25-.11-.39-.28-.17-.19-.21-.41-.22-.51,0-.02-.04-1.27-.04-1.29,0-.02-.04-1.2-.04-1.21-.02-.5,0-.9,.02-1.18,.01-.14,.03-.28,.13-.4,.19-.21,.53-.18,.64-.17,.28,.01,.58,.04,.89,.08,.27,.03,.53,.08,.77,.13,.11,.03,.29,.1,.46,.26,.3,.28,.34,.65,.35,.75l.13,3.23s.02,.13,0,.29c0,.04-.07,.34-.28,.49-.11,.08-.2,.08-.75,.04Z"/><path class="cls-6" d="M210.86,335.6c-.36,.08-.75,.16-1.15,.23-.6,.1-1.17,.17-1.7,.22-.15,0-.37-.04-.53-.19-.19-.17-.22-.41-.25-1.06-.04-.69-.04-1.15-.05-1.48,0-.32,0-.67,.04-1.12,.05-.5,.12-.64,.2-.75,.24-.34,.68-.41,.85-.43,.33-.05,.67-.1,1.03-.14,.44-.05,.87-.09,1.28-.12,.11-.02,.34-.04,.53,.09,.23,.17,.29,.49,.32,.67,.01,.06,.01,.1,.02,.11,.14,1.34,.04,2.67,.04,2.67-.04,.55-.09,.9-.36,1.14-.1,.09-.2,.14-.26,.16Z"/><path class="cls-6" d="M220.16,333.41c-.36,.11-.74,.21-1.14,.3-.59,.14-1.16,.24-1.68,.32-.15,0-.37-.02-.54-.16-.2-.16-.24-.39-.32-1.05-.08-.69-.11-1.14-.14-1.48-.02-.32-.05-.66-.03-1.12,.02-.5,.08-.65,.15-.76,.22-.36,.65-.45,.83-.48,.33-.07,.67-.14,1.02-.21,.44-.08,.86-.14,1.27-.2,.1-.03,.34-.06,.54,.06,.24,.15,.32,.47,.36,.65,.01,.06,.02,.1,.02,.11,.22,1.33,.21,2.66,.21,2.66,0,.56-.03,.9-.29,1.16-.09,.09-.19,.15-.25,.18Z"/><path class="cls-6" d="M228.44,330.39c-.32,.1-.65,.2-1.01,.28-.52,.13-1.02,.23-1.49,.31-.13,0-.33,0-.49-.13-.18-.14-.22-.35-.3-.93-.08-.61-.12-1.01-.15-1.31-.03-.28-.05-.59-.04-1,.01-.44,.06-.58,.12-.68,.19-.32,.57-.41,.73-.44,.29-.07,.59-.14,.9-.2,.39-.08,.76-.14,1.12-.2,.09-.02,.3-.06,.48,.05,.22,.13,.29,.41,.33,.57,.01,.05,.02,.09,.02,.1,.22,1.18,.23,2.36,.23,2.36,0,.49-.02,.8-.24,1.04-.08,.08-.16,.13-.22,.16Z"/><path class="cls-6" d="M171.4,337.57c-.37-.07-.67-.11-.88-.14-.25-.03-.62-.08-1.09-.15-.5-.07-.64-.1-.74-.16-.03-.02-.05-.03-.05-.03-.04-.03-.21-.15-.32-.44-.1-.27-.09-.51-.09-.9,0-.1-.01-.34-.04-.82-.04-.69-.05-1.37-.09-2.06,0-.11-.02-.33,.12-.49,.11-.13,.28-.16,.41-.19,.21-.04,.38-.02,.49,0,.17,.03,.43,.07,.76,.11,.31,.04,.39,.04,.68,.07,.51,.06,.78,.1,.95,.2,.27,.16,.41,.41,.5,.6,0,.07,.02,.17,.03,.29,.07,.79,.05,1.26,.05,1.93,0,1.46,.1,1.81-.17,2.04-.16,.13-.37,.14-.51,.14Z"/><path class="cls-6" d="M162.13,335.86c-.37-.07-.67-.12-.88-.15-.25-.04-.62-.09-1.08-.17-.49-.08-.64-.11-.73-.17-.03-.02-.05-.03-.05-.03-.04-.03-.21-.15-.31-.44-.1-.27-.08-.5-.08-.88,0-.1-.01-.33-.03-.81-.03-.67-.03-1.35-.06-2.02,0-.11-.01-.33,.12-.48,.11-.13,.28-.16,.41-.18,.21-.04,.38-.01,.49,.01,.17,.03,.43,.08,.75,.12,.31,.04,.39,.04,.68,.08,.51,.07,.77,.11,.94,.22,.26,.16,.41,.41,.49,.6,0,.07,.02,.17,.02,.28,.06,.78,.03,1.24,.02,1.89-.02,1.43,.08,1.78-.2,1.99-.17,.13-.37,.14-.51,.12Z"/><path class="cls-6" d="M153.42,333.54c-.36-.1-.66-.17-.86-.22-.24-.06-.61-.14-1.07-.25-.49-.12-.63-.16-.72-.22-.03-.02-.05-.04-.05-.04-.04-.03-.19-.17-.28-.46-.08-.28-.04-.51-.01-.89,0-.09,.02-.33,.03-.81,.02-.67,.07-1.35,.09-2.02,0-.11,.01-.33,.16-.47,.12-.12,.29-.13,.43-.15,.21-.02,.38,.02,.48,.05,.16,.04,.42,.11,.74,.18,.3,.06,.38,.07,.67,.14,.51,.11,.76,.17,.93,.29,.25,.18,.38,.44,.44,.64,0,.07,0,.17,0,.28,0,.78-.06,1.24-.12,1.89-.13,1.43-.06,1.78-.35,1.97-.18,.12-.38,.11-.52,.09Z"/><path class="cls-6" d="M145.52,329.9c-.19-.05-.43-.12-.71-.21-.51-.16-.39-.15-.77-.26,0,0-.52-.16-.81-.35-.02-.01-.04-.03-.04-.03s0,0,0,0c-.16-.14-.17-.46-.17-.46-.01-.36,.01-.71,.02-.77,0-.05,.01-.27,.03-.72,.02-.48,.03-.72,.03-.88,0-.22,0-.44,.02-.8,.01-.24,.03-.44,.16-.61,.04-.05,.11-.14,.22-.18,.15-.06,.26,0,.53,.06,.32,.09,.15,.02,.66,.15,.36,.09,.33,.1,.61,.17,.55,.15,.67,.13,.84,.26,.18,.13,.28,.3,.34,.42,0,.12,0,.31,0,.54,0,.46-.03,.74-.05,1.06-.04,.55-.03,.8-.1,1.84-.03,.47-.05,.72-.24,.83-.19,.11-.44,.02-.58-.05Z"/><path class="cls-6" d="M139.25,326.39c-.15-.04-.35-.09-.59-.15-.42-.12-.32-.12-.64-.21,0,0-.43-.12-.67-.29-.02-.01-.03-.03-.03-.03s0,0,0,0c-.13-.12-.15-.42-.15-.42-.01-.33,0-.65,0-.72,0-.04,0-.25,.02-.67,.01-.44,.02-.67,.01-.82,0-.2,0-.41,0-.74,0-.23,.02-.4,.12-.57,.03-.05,.09-.13,.18-.18,.12-.06,.22-.02,.44,.03,.27,.07,.13,.01,.54,.11,.29,.07,.27,.08,.5,.13,.45,.11,.55,.09,.7,.2,.15,.11,.24,.27,.28,.37,0,.11,.01,.29,.01,.5,0,.42-.02,.68-.03,.98-.02,.51-.02,.74-.06,1.7-.02,.43-.03,.66-.18,.77-.15,.11-.36,.04-.48-.02Z"/><path class="cls-6" d="M133.4,322.33c-.14-.03-.33-.08-.55-.15-.39-.11-.3-.11-.6-.19,0,0-.4-.11-.63-.27-.02-.01-.03-.02-.03-.02s0,0,0,0c-.12-.11-.14-.39-.14-.39-.01-.31,0-.62,0-.67,0-.04,0-.24,.02-.63,0-.42,.01-.63,.01-.77,0-.19,0-.39,0-.7,0-.21,.02-.38,.12-.54,.03-.05,.08-.13,.17-.17,.11-.06,.2-.02,.41,.03,.25,.06,.12,.01,.51,.1,.28,.07,.26,.07,.47,.12,.43,.1,.52,.09,.66,.19,.14,.11,.22,.25,.27,.35,0,.11,.01,.27,.01,.47,0,.4-.02,.64-.03,.93-.02,.48-.01,.7-.05,1.6-.02,.41-.03,.63-.17,.73-.14,.1-.34,.04-.45-.02Z"/><path class="cls-6" d="M128.41,318.07c-.14-.03-.33-.08-.54-.14-.39-.11-.3-.11-.59-.19,0,0-.39-.11-.62-.26-.02-.01-.03-.02-.03-.02s0,0,0,0c-.12-.11-.13-.38-.13-.38-.01-.31,0-.6,0-.66,0-.04,0-.23,.02-.61,0-.41,.01-.61,.01-.75,0-.19,0-.38,0-.68,0-.21,.02-.37,.11-.53,.03-.05,.08-.12,.17-.17,.11-.06,.2-.02,.41,.03,.25,.06,.12,.01,.5,.1,.27,.06,.25,.07,.46,.12,.42,.1,.51,.08,.64,.18,.14,.1,.22,.25,.26,.34,0,.1,.01,.26,.01,.46,0,.39-.02,.63-.03,.91-.02,.47-.01,.69-.05,1.57-.02,.4-.03,.61-.17,.71-.14,.1-.33,.03-.44-.02Z"/></g><g><path class="cls-21" d="M68.62,99.91v-24.37h2.76v24.06c0,10.52,4.93,13.69,10.52,13.69s10.75-3.17,10.75-13.69v-24.06h2.62v24.37c0,12.35-6.55,15.89-13.37,15.89s-13.28-3.54-13.28-15.89Z"/><path class="cls-21" d="M106.79,75.54h9.96c8.95,0,14.33,2.9,14.33,11.02s-5.28,11.52-14.09,11.52h-7.44v17h-2.76v-39.54Zm9.5,20.21c8.08,0,11.94-2.69,11.94-9.19s-4.01-8.69-12.18-8.69h-6.5v17.88h6.74Z"/><path class="cls-21" d="M139.73,75.54h21.63v2.38h-18.88v14.98h15.85v2.38h-15.85v17.44h19.48v2.38h-22.23v-39.54Z"/><path class="cls-21" d="M170.63,75.54h11.3c7.86,0,13.01,2.88,13.01,10.44s-5.15,10.94-13.01,10.94h-8.54v18.16h-2.76v-39.54Zm10.58,19.06c7,0,10.88-2.77,10.88-8.62s-3.89-8.11-10.88-8.11h-7.82v16.73h7.82Zm.1,1.52l2.64-.79,11.74,19.76h-3.2l-11.18-18.97Z"/><path class="cls-21" d="M203.27,75.54h21.55v2.38h-18.79v15.76h15.88v2.38h-15.88v19.03h-2.76v-39.54Z"/><path class="cls-21" d="M231.89,75.54h21.63v2.38h-18.88v14.98h15.85v2.38h-15.85v17.44h19.47v2.38h-22.23v-39.54Z"/><path class="cls-21" d="M262.79,75.54h2.76v21.97h.13l19.13-21.97h3.29l-12.61,14.65,14.35,24.89h-3.18l-13.07-22.78-8.04,9.17v13.61h-2.76v-39.54Z"/><path class="cls-21" d="M304.07,77.91h-12.59v-2.38h27.93v2.38h-12.59v37.16h-2.76v-37.16Z"/><path class="cls-21" d="M338.99,75.54h21.63v2.38h-18.88v14.98h15.85v2.38h-15.85v17.44h19.47v2.38h-22.23v-39.54Z"/><path class="cls-21" d="M369.89,75.54h11.3c7.86,0,13.01,2.88,13.01,10.44s-5.15,10.94-13.01,10.94h-8.54v18.16h-2.76v-39.54Zm10.58,19.06c7,0,10.88-2.77,10.88-8.62s-3.89-8.11-10.88-8.11h-7.82v16.73h7.82Zm.1,1.52l2.64-.79,11.74,19.76h-3.2l-11.18-18.97Z"/><path class="cls-21" d="M414.53,75.54h9.96c8.95,0,14.33,2.9,14.33,11.02s-5.28,11.52-14.09,11.52h-7.44v17h-2.76v-39.54Zm9.5,20.21c8.08,0,11.94-2.69,11.94-9.19s-4.01-8.69-12.18-8.69h-6.5v17.88h6.74Z"/><path class="cls-21" d="M447.47,75.54h21.63v2.38h-18.88v14.98h15.85v2.38h-15.85v17.44h19.47v2.38h-22.23v-39.54Z"/><path class="cls-21" d="M478.37,75.54h11.3c7.86,0,13.01,2.88,13.01,10.44s-5.15,10.94-13.01,10.94h-8.54v18.16h-2.76v-39.54Zm10.58,19.06c7,0,10.88-2.77,10.88-8.62s-3.89-8.11-10.88-8.11h-7.82v16.73h7.82Zm.1,1.52l2.64-.79,11.74,19.76h-3.2l-11.18-18.97Z"/><path class="cls-21" d="M511.01,75.54h21.55v2.38h-18.79v15.76h15.88v2.38h-15.88v19.03h-2.76v-39.54Z"/><path class="cls-21" d="M539.62,75.54h21.63v2.38h-18.88v14.98h15.85v2.38h-15.85v17.44h19.47v2.38h-22.23v-39.54Z"/><path class="cls-21" d="M570.53,75.54h2.76v21.97h.13l19.13-21.97h3.29l-12.61,14.65,14.35,24.89h-3.18l-13.07-22.78-8.04,9.17v13.61h-2.76v-39.54Z"/><path class="cls-21" d="M611.8,77.91h-12.59v-2.38h27.93v2.38h-12.59v37.16h-2.76v-37.16Z"/></g></g></svg>