<?xml version="1.0" encoding="UTF-8"?><svg id="Layer_1" xmlns="http://www.w3.org/2000/svg" width="800" height="400" viewBox="0 0 800 400"><defs><style>.cls-1{opacity:.52;}.cls-2{opacity:.22;}.cls-3{opacity:.1;}.cls-4{fill:#2e2e2e;}.cls-5{fill:#f0f;}</style></defs><g><rect class="cls-4" x="-6.53" y="-2.97" width="826.81" height="411.02"/><path d="M819.73-2.42V407.5H-5.98V-2.42H819.73m1.1-1.1H-7.08V408.6H820.83V-3.53h0Z"/></g><path class="cls-5" d="M113.18-54.82c44.99,0,87.29,17.52,119.11,49.34,31.82,31.82,49.34,74.12,49.34,119.11s-17.52,87.29-49.34,119.11c-31.82,31.82-74.12,49.34-119.11,49.34S25.89,264.55-5.93,232.73c-31.82-31.82-49.34-74.12-49.34-119.11S-37.74,26.33-5.93-5.49c31.82-31.82,74.12-49.34,119.11-49.34m0-2.17C18.95-57-57.44,19.39-57.44,113.62S18.95,284.24,113.18,284.24s170.62-76.39,170.62-170.62S207.41-57,113.18-57h0Z"/><path class="cls-5" d="M354.81,138.81c44.99,0,87.29,17.52,119.11,49.34,31.82,31.82,49.34,74.12,49.34,119.11s-17.52,87.29-49.34,119.11c-31.82,31.82-74.12,49.34-119.11,49.34s-87.29-17.52-119.11-49.34c-31.82-31.82-49.34-74.12-49.34-119.11s17.52-87.29,49.34-119.11c31.82-31.82,74.12-49.34,119.11-49.34m0-2.17c-94.23,0-170.62,76.39-170.62,170.62s76.39,170.62,170.62,170.62,170.62-76.39,170.62-170.62-76.39-170.62-170.62-170.62h0Z"/><circle class="cls-5" cx="719.36" cy="-3.53" r="170.62"/><circle class="cls-5" cx="6.31" cy="125.5" r="36.09"/><circle class="cls-5" cx="336.88" cy="400" r="36.09"/><g class="cls-3"><circle class="cls-5" cx="254.03" cy="43.87" r="108.59"/></g><g class="cls-3"><circle class="cls-5" cx="603.51" cy="371.17" r="172.97"/></g><g class="cls-3"><circle class="cls-5" cx="23.84" cy="490.94" r="108.59"/></g><path class="cls-5" d="M607.06,226.66c44.44,0,80.59,36.15,80.59,80.59s-36.15,80.59-80.59,80.59-80.59-36.15-80.59-80.59,36.15-80.59,80.59-80.59m0-1.04c-45.08,0-81.63,36.55-81.63,81.63s36.55,81.63,81.63,81.63,81.63-36.55,81.63-81.63-36.55-81.63-81.63-81.63h0Z"/><path class="cls-5" d="M403.91-36.73c44.44,0,80.59,36.15,80.59,80.59s-36.15,80.59-80.59,80.59-80.59-36.15-80.59-80.59,36.15-80.59,80.59-80.59m0-1.04c-45.08,0-81.63,36.55-81.63,81.63s36.55,81.63,81.63,81.63,81.63-36.55,81.63-81.63-36.55-81.63-81.63-81.63h0Z"/><g class="cls-2"><circle class="cls-5" cx="194.81" cy="326.97" r="81.63"/></g><g class="cls-1"><circle class="cls-5" cx="560.82" cy="225.62" r="48.07"/></g></svg>