<?xml version="1.0" encoding="UTF-8"?>
<svg id="Layer_1" data-name="Layer 1" xmlns="http://www.w3.org/2000/svg" viewBox="0 0 450 452.8">
  <defs>
    <style>
      .cls-1 {
        fill: #0068ba;
      }

      .cls-2 {
        fill: #fff;
      }
    </style>
  </defs>
  <rect class="cls-2" x="40" y="63.4" width="379" height="348"/>
  <g>
    <path class="cls-1" d="M242,204.2v-.7c-.1,.2-.3,.5-.5,.7h.5Z"/>
    <path class="cls-1" d="M416.7,0H33.2C14.9,0,0,14.5,0,32.4V420.4c0,17.9,14.9,32.4,33.2,32.4H416.7c18.4,0,33.3-14.5,33.3-32.4V32.4c0-17.9-14.9-32.4-33.3-32.4ZM136.4,379.1H68.4V174.6h68v204.5Zm-34-232.5h-.4c-22.8,0-37.5-15.7-37.5-35.3s15.2-35.3,38.4-35.3,37.6,15.3,38,35.3c0,19.6-14.8,35.3-38.5,35.3Zm279.1,232.5h-68v-109.5c0-27.5-9.8-46.2-34.4-46.2-18.8,0-30,12.6-34.9,24.9-1.8,4.4-2.2,10.5-2.2,16.6v114.2h-68s.9-185.3,0-204.5h68v28.9c9-13.9,25.2-33.8,61.3-33.8,44.7,0,78.2,29.2,78.2,92.1v117.3Z"/>
  </g>
</svg>