<?xml version="1.0" encoding="UTF-8"?><svg id="Layer_1" xmlns="http://www.w3.org/2000/svg" width="700" height="400" viewBox="0 0 700 400"><defs><style>.cls-1{opacity:.52;}.cls-2{opacity:.22;}.cls-3{opacity:.1;}.cls-4{fill:#2e2e2e;}.cls-5{fill:#f0f;}</style></defs><g><rect class="cls-4" x=".5" y=".5" width="699" height="399"/><path d="M699,1V399H1V1H699M700,0H0V400H700V0h0Z"/></g><path class="cls-5" d="M100.94-58.27c41.44,0,80.39,16.14,109.69,45.44s45.44,68.26,45.44,109.69-16.14,80.39-45.44,109.69c-29.3,29.3-68.26,45.44-109.69,45.44S20.55,235.85-8.75,206.55c-29.3-29.3-45.44-68.26-45.44-109.69S-38.05,16.46-8.75-12.84,59.5-58.27,100.94-58.27m0-2C14.16-60.27-56.19,10.07-56.19,96.85S14.16,253.98,100.94,253.98s157.13-70.35,157.13-157.13S187.72-60.27,100.94-60.27h0Z"/><path class="cls-5" d="M287.16,138.2c41.44,0,80.39,16.14,109.69,45.44s45.44,68.26,45.44,109.69-16.14,80.39-45.44,109.69c-29.3,29.3-68.26,45.44-109.69,45.44s-80.39-16.14-109.69-45.44c-29.3-29.3-45.44-68.26-45.44-109.69s16.14-80.39,45.44-109.69,68.26-45.44,109.69-45.44m0-2c-86.78,0-157.13,70.35-157.13,157.13s70.35,157.13,157.13,157.13,157.13-70.35,157.13-157.13-70.35-157.13-157.13-157.13h0Z"/><circle class="cls-5" cx="690.22" cy="0" r="157.13"/><circle class="cls-5" cx="51.89" cy="155.74" r="33.23"/><circle class="cls-5" cx="340.18" cy="411.11" r="33.23"/><g class="cls-3"><circle class="cls-5" cx="230.65" cy="32.61" r="100"/></g><g class="cls-3"><circle class="cls-5" cx="552.5" cy="334.04" r="159.29"/></g><g class="cls-3"><circle class="cls-5" cx="18.66" cy="444.34" r="100"/></g><path class="cls-5" d="M555.76,200.96c40.93,0,74.22,33.3,74.22,74.22s-33.3,74.22-74.22,74.22-74.22-33.3-74.22-74.22,33.3-74.22,74.22-74.22m0-.96c-41.52,0-75.18,33.66-75.18,75.18s33.66,75.18,75.18,75.18,75.18-33.66,75.18-75.18-33.66-75.18-75.18-75.18h0Z"/><path class="cls-5" d="M368.68-41.61c40.93,0,74.22,33.3,74.22,74.22s-33.3,74.22-74.22,74.22-74.22-33.3-74.22-74.22,33.3-74.22,74.22-74.22m0-.96c-41.52,0-75.18,33.66-75.18,75.18s33.66,75.18,75.18,75.18,75.18-33.66,75.18-75.18-33.66-75.18-75.18-75.18h0Z"/><g class="cls-2"><circle class="cls-5" cx="176.12" cy="293.33" r="75.18"/></g><g class="cls-1"><circle class="cls-5" cx="513.18" cy="200" r="44.26"/></g></svg>